SplineFontDB: 3.2
FontName: Titillium-Bold
FullName: Titillium Bold
FamilyName: Titillium
Weight: Bold
Copyright: Copyright (c) 2008-2011 by Accademia di Belle Arti di Urbino and others. All rights reserved.
Version: 57.000
ItalicAngle: 0
UnderlinePosition: -110
UnderlineWidth: 30
Ascent: 750
Descent: 250
InvalidEm: 0
sfntRevision: 0x00010000
LayerCount: 2
Layer: 0 0 "Zur+APwA-ck" 1
Layer: 1 0 "Zeichen" 0
XUID: [1021 1010 -703601740 26109]
StyleMap: 0x0020
FSType: 8
OS2Version: 3
OS2_WeightWidthSlopeOnly: 0
OS2_UseTypoMetrics: 0
CreationTime: 1339467515
ModificationTime: 1577952377
PfmFamily: 81
TTFWeight: 800
TTFWidth: 5
LineGap: 200
VLineGap: 0
Panose: 0 0 8 0 0 0 0 0 0 0
OS2TypoAscent: 750
OS2TypoAOffset: 0
OS2TypoDescent: -250
OS2TypoDOffset: 0
OS2TypoLinegap: 200
OS2WinAscent: 1114
OS2WinAOffset: 0
OS2WinDescent: 311
OS2WinDOffset: 0
HheadAscent: 750
HheadAOffset: 0
HheadDescent: -250
HheadDOffset: 0
OS2SubXSize: 650
OS2SubYSize: 600
OS2SubXOff: 0
OS2SubYOff: 75
OS2SupXSize: 650
OS2SupYSize: 600
OS2SupXOff: 0
OS2SupYOff: 350
OS2StrikeYSize: 30
OS2StrikeYPos: 300
OS2CapHeight: 680
OS2XHeight: 500
OS2Vendor: 'UKWN'
OS2CodePages: 20000093.00000000
OS2UnicodeRanges: 00000007.00000001.00000000.00000000
Lookup: 1 0 0 "'locl' Localized Forms in Lateinisch lookup 0" { "'locl' Localized Forms in Lateinisch lookup 0 subtable"  } ['locl' ('DFLT' <'dflt' > 'latn' <'dflt' > ) ]
Lookup: 1 0 0 "'frac' Diagonal Fractions in Lateinisch lookup 1" { "'frac' Diagonal Fractions in Lateinisch lookup 1 subtable"  } ['frac' ('DFLT' <'dflt' > 'latn' <'dflt' > ) ]
Lookup: 6 0 0 "'frac' Diagonal Fractions in Lateinisch lookup 2" { "'frac' Diagonal Fractions in Lateinisch lookup 2 subtable"  } ['frac' ('DFLT' <'dflt' > 'latn' <'dflt' > ) ]
Lookup: 1 0 0 "'frac' Diagonal Fractions in Lateinisch lookup 3" { "'frac' Diagonal Fractions in Lateinisch lookup 3 subtable"  } ['frac' ('DFLT' <'dflt' > 'latn' <'dflt' > ) ]

StartChar: acute
Encoding: 180 180 2
Width: 268
Flags: MW
HStem: 564 189
VStem: 5 292<638 651>
LayerCount: 2
Fore
SplineSet
5 651 m 1
 257 753 l 1
 297 638 l 1
 35 564 l 1
 5 651 l 1
EndSplineSet
EndChar

StartChar: breve
Encoding: 728 728 3
Width: 268
Flags: MW
HStem: 573 157<-20 194>
VStem: -20 101<730 730>
LayerCount: 2
Fore
SplineSet
-20 730 m 1
 81 730 l 1
 86 690 108 664 144 664 c 0
 182 664 203 691 207 730 c 1
 308 730 l 1
 298 650 244 573 144 573 c 0
 44 573 -10 650 -20 730 c 1
EndSplineSet
EndChar

StartChar: caron
Encoding: 711 711 4
Width: 268
Flags: MW
HStem: 580 151<-20 106 -20 190>
VStem: -20 338<731 731>
LayerCount: 2
Fore
SplineSet
106 580 m 1
 -20 731 l 1
 103 731 l 1
 149 664 l 1
 195 731 l 1
 318 731 l 1
 190 580 l 1
 106 580 l 1
EndSplineSet
EndChar

StartChar: cedilla
Encoding: 184 184 5
Width: 264
Flags: MW
HStem: -241 88<73.5 157> -230 21G<30 30> -105 106<58 82 58 111>
VStem: 58 53<-37 1 -37 1 -37 1> 120 114<-135.5 -118.5>
LayerCount: 2
Fore
SplineSet
234 -127 m 0xb8
 234 -205 191 -241 123 -241 c 0xb0
 80 -241 30 -230 30 -230 c 1x70
 34 -152 l 1
 34 -152 65 -153 82 -153 c 0
 109 -153 120 -144 120 -127 c 0
 120 -110 109 -105 82 -105 c 2xb8
 58 -105 l 1
 58 1 l 1
 111 1 l 1
 111 -37 l 1x70
 189 -38 234 -52 234 -127 c 0xb8
EndSplineSet
EndChar

StartChar: circumflex
Encoding: 710 710 6
Width: 268
Flags: MW
HStem: 580 151<-24 186 -24 186 102 191 102 314>
VStem: -24 338<580 580>
LayerCount: 2
Fore
SplineSet
-24 580 m 1
 102 731 l 1
 186 731 l 1
 314 580 l 1
 191 580 l 1
 145 647 l 1
 99 580 l 1
 -24 580 l 1
EndSplineSet
EndChar

StartChar: commaaccent
Encoding: 63171 63171 7
Width: 170
Flags: MW
HStem: -311 234<-5 171 41 116>
VStem: -5 176
LayerCount: 2
Fore
SplineSet
-5 -311 m 1
 41 -77 l 1
 171 -77 l 1
 116 -311 l 1
 -5 -311 l 1
EndSplineSet
EndChar

StartChar: dieresis
Encoding: 168 168 8
Width: 268
Flags: MW
HStem: 596 132<-30 98 -30 98 186 314 -30 186>
VStem: -30 128<596 728 596 728> 186 128<596 728 596 728>
LayerCount: 2
Fore
SplineSet
-30 596 m 1
 -30 728 l 1
 98 728 l 1
 98 596 l 1
 -30 596 l 1
186 596 m 1
 186 728 l 1
 314 728 l 1
 314 596 l 1
 186 596 l 1
EndSplineSet
EndChar

StartChar: dotaccent
Encoding: 729 729 9
Width: 268
Flags: MW
HStem: 556 135<67 201 67 201>
VStem: 67 134<556 691 556 691>
LayerCount: 2
Fore
SplineSet
67 556 m 1
 67 691 l 1
 201 691 l 1
 201 556 l 1
 67 556 l 1
EndSplineSet
EndChar

StartChar: hungarumlaut
Encoding: 733 733 10
Width: 268
Flags: MW
HStem: 563 255<51 271 255 271>
VStem: -50 430<628 751>
LayerCount: 2
Fore
SplineSet
154 628 m 1
 271 818 l 1
 380 751 l 1
 255 563 l 1
 154 628 l 1
-50 628 m 1
 67 817 l 1
 176 751 l 1
 51 563 l 1
 -50 628 l 1
EndSplineSet
EndChar

StartChar: grave
Encoding: 96 96 11
Width: 268
Flags: MW
HStem: 564 189
VStem: -17 292<638 651>
LayerCount: 2
Fore
SplineSet
23 753 m 1
 275 651 l 1
 245 564 l 1
 -17 638 l 1
 23 753 l 1
EndSplineSet
EndChar

StartChar: macron
Encoding: 175 175 12
Width: 268
Flags: MW
HStem: 597 100<-5 282 -5 282>
VStem: -5 287<597 697 597 697>
LayerCount: 2
Fore
SplineSet
-5 597 m 1
 -5 697 l 1
 282 697 l 1
 282 597 l 1
 -5 597 l 1
EndSplineSet
EndChar

StartChar: ogonek
Encoding: 731 731 13
Width: 474
Flags: MW
HStem: -216 102<297 379.5> 1 21G<402 402>
VStem: 219 125<-92 -79.5>
LayerCount: 2
Fore
SplineSet
402 1 m 1
 402 1 344 -46 344 -81 c 0
 344 -103 358 -114 376 -114 c 0
 383 -114 418 -110 418 -110 c 1
 430 -205 l 1
 430 -205 371 -216 328 -216 c 0
 266 -216 219 -180 219 -120 c 0
 219 -39 300 11 300 11 c 1
 402 1 l 1
EndSplineSet
EndChar

StartChar: ring
Encoding: 730 730 14
Width: 268
Flags: MW
HStem: 521 71<124.5 151 124.5 169.5> 683 72<124.5 151>
VStem: 20 72<624.5 651 624.5 670.5> 183 71<624.5 651>
LayerCount: 2
Fore
SplineSet
20 638 m 0
 20 703 70 755 137 755 c 0
 202 755 254 703 254 638 c 0
 254 571 202 521 137 521 c 0
 70 521 20 571 20 638 c 0
92 638 m 0
 92 611 111 592 138 592 c 0
 164 592 183 611 183 638 c 0
 183 664 164 683 138 683 c 0
 111 683 92 664 92 638 c 0
EndSplineSet
EndChar

StartChar: tilde
Encoding: 732 732 15
Width: 268
Flags: MW
HStem: 585 104<195 222 195 239> 621 104<70 100.5> 665 21G<-22 -22>
VStem: -22 340<647 665>
LayerCount: 2
Fore
SplineSet
289 723 m 1x90
 318 647 l 1
 318 647 265 585 213 585 c 0x90
 171 585 117 621 84 621 c 0
 56 621 7 590 7 590 c 1x50
 -22 665 l 1x30
 -22 665 30 725 82 725 c 0x50
 123 725 181 689 209 689 c 0
 235 689 289 723 289 723 c 1x90
EndSplineSet
EndChar

StartChar: A
Encoding: 65 65 16
Width: 602
Flags: MW
HStem: 0 21G<17 17 17 155 447 447 447 585> 123 120<208 394 208 420 182 394> 566 114<277 277 277 325>
VStem: 17 568<0 0>
LayerCount: 2
Fore
SplineSet
17 0 m 1
 170 680 l 1
 432 680 l 1
 585 0 l 1
 447 0 l 1
 420 123 l 1
 182 123 l 1
 155 0 l 1
 17 0 l 1
277 566 m 1
 208 243 l 1
 394 243 l 1
 325 566 l 1
 277 566 l 1
EndSplineSet
Position2: "'cpsp' Capital Spacing in Lateinisch lookup 0 subtable" dx=5 dy=0 dh=10 dv=0
EndChar

StartChar: Aacute
Encoding: 193 193 17
Width: 602
Flags: MW
HStem: 0 21G<17 17 17 155 447 447 447 585> 123 120<208 394 208 420 182 394> 566 114<277 277 277 325>
VStem: 17 568<0 0>
LayerCount: 2
Fore
SplineSet
17 0 m 1
 170 680 l 1
 432 680 l 1
 585 0 l 1
 447 0 l 1
 420 123 l 1
 182 123 l 1
 155 0 l 1
 17 0 l 1
277 566 m 1
 208 243 l 1
 394 243 l 1
 325 566 l 1
 277 566 l 1
162 839 m 1
 414 945 l 1
 455 825 l 1
 195 746 l 1
 162 839 l 1
EndSplineSet
Position2: "'cpsp' Capital Spacing in Lateinisch lookup 0 subtable" dx=5 dy=0 dh=10 dv=0
EndChar

StartChar: Abreve
Encoding: 258 258 18
Width: 602
Flags: MW
HStem: 0 21G<17 17 17 155 447 447 447 585> 123 120<208 394 208 420 182 394> 566 114<277 277 277 325> 759 151<111 357.5>
VStem: 17 568<0 0>
LayerCount: 2
Fore
SplineSet
17 0 m 1
 170 680 l 1
 432 680 l 1
 585 0 l 1
 447 0 l 1
 420 123 l 1
 182 123 l 1
 155 0 l 1
 17 0 l 1
277 566 m 1
 208 243 l 1
 394 243 l 1
 325 566 l 1
 277 566 l 1
111 910 m 1
 232 910 l 1
 237 878 260 853 297 853 c 0
 336 853 359 878 363 910 c 1
 484 910 l 1
 474 825 418 759 297 759 c 0
 176 759 121 825 111 910 c 1
EndSplineSet
Position2: "'cpsp' Capital Spacing in Lateinisch lookup 0 subtable" dx=5 dy=0 dh=10 dv=0
EndChar

StartChar: Acircumflex
Encoding: 194 194 19
Width: 602
Flags: MW
HStem: 0 21G<17 17 17 155 447 447 447 585> 123 120<208 394 208 420 182 394> 566 114<277 277 277 325> 765 149<107 358 241 249 350 350 350 358 241 492>
VStem: 17 568<0 0>
LayerCount: 2
Fore
SplineSet
17 0 m 1
 170 680 l 1
 432 680 l 1
 585 0 l 1
 447 0 l 1
 420 123 l 1
 182 123 l 1
 155 0 l 1
 17 0 l 1
277 566 m 1
 208 243 l 1
 394 243 l 1
 325 566 l 1
 277 566 l 1
107 765 m 1
 241 914 l 1
 358 914 l 1
 492 765 l 1
 350 765 l 1
 301 821 l 1
 249 765 l 1
 107 765 l 1
EndSplineSet
Position2: "'cpsp' Capital Spacing in Lateinisch lookup 0 subtable" dx=5 dy=0 dh=10 dv=0
EndChar

StartChar: Agrave
Encoding: 192 192 20
Width: 602
Flags: MW
HStem: 0 21G<17 17 17 155 447 447 447 585> 123 120<208 394 208 420 182 394> 566 114<277 277 277 325>
VStem: 17 568<0 0>
LayerCount: 2
Fore
SplineSet
17 0 m 1
 170 680 l 1
 432 680 l 1
 585 0 l 1
 447 0 l 1
 420 123 l 1
 182 123 l 1
 155 0 l 1
 17 0 l 1
277 566 m 1
 208 243 l 1
 394 243 l 1
 325 566 l 1
 277 566 l 1
183 945 m 1
 435 839 l 1
 402 746 l 1
 142 825 l 1
 183 945 l 1
EndSplineSet
Position2: "'cpsp' Capital Spacing in Lateinisch lookup 0 subtable" dx=5 dy=0 dh=10 dv=0
EndChar

StartChar: Adieresis
Encoding: 196 196 21
Width: 602
Flags: MW
HStem: 0 21G<17 17 17 155 447 447 447 585> 123 120<208 394 208 420 182 394> 566 114<277 277 277 325> 764 132<129 257 129 257 343 471 129 343>
VStem: 129 128<764 896 764 896> 343 128<764 896 764 896>
LayerCount: 2
Fore
SplineSet
17 0 m 1
 170 680 l 1
 432 680 l 1
 585 0 l 1
 447 0 l 1
 420 123 l 1
 182 123 l 1
 155 0 l 1
 17 0 l 1
277 566 m 1
 208 243 l 1
 394 243 l 1
 325 566 l 1
 277 566 l 1
129 764 m 1
 129 896 l 1
 257 896 l 1
 257 764 l 1
 129 764 l 1
343 764 m 1
 343 896 l 1
 471 896 l 1
 471 764 l 1
 343 764 l 1
EndSplineSet
Position2: "'cpsp' Capital Spacing in Lateinisch lookup 0 subtable" dx=5 dy=0 dh=10 dv=0
EndChar

StartChar: Amacron
Encoding: 256 256 22
Width: 602
Flags: MW
HStem: 0 21G<17 17 17 155 447 447 447 585> 123 120<208 394 208 420 182 394> 566 114<277 277 277 325> 782 98<124 471 124 471>
VStem: 17 568<0 0>
LayerCount: 2
Fore
SplineSet
17 0 m 1
 170 680 l 1
 432 680 l 1
 585 0 l 1
 447 0 l 1
 420 123 l 1
 182 123 l 1
 155 0 l 1
 17 0 l 1
277 566 m 1
 208 243 l 1
 394 243 l 1
 325 566 l 1
 277 566 l 1
124 782 m 1
 124 880 l 1
 471 880 l 1
 471 782 l 1
 124 782 l 1
EndSplineSet
Position2: "'cpsp' Capital Spacing in Lateinisch lookup 0 subtable" dx=5 dy=0 dh=10 dv=0
EndChar

StartChar: Aogonek
Encoding: 260 260 23
Width: 602
Flags: MW
HStem: -216 102<464 546.5> 0 21G<17 17 17 155 447 447 447 452 567 567 567 585> 123 120<208 394 208 420 182 394> 566 114<277 277 277 325>
VStem: 386 125<-92 -90.5>
LayerCount: 2
Fore
SplineSet
17 0 m 1
 170 680 l 1
 432 680 l 1
 585 0 l 1
 567 0 l 1
 561 -5 511 -48 511 -81 c 0
 511 -103 525 -114 543 -114 c 0
 550 -114 585 -110 585 -110 c 1
 597 -205 l 1
 597 -205 538 -216 495 -216 c 0
 433 -216 386 -180 386 -120 c 0
 386 -61 428 -19 452 0 c 1
 447 0 l 1
 420 123 l 1
 182 123 l 1
 155 0 l 1
 17 0 l 1
277 566 m 1
 208 243 l 1
 394 243 l 1
 325 566 l 1
 277 566 l 1
EndSplineSet
Position2: "'cpsp' Capital Spacing in Lateinisch lookup 0 subtable" dx=5 dy=0 dh=10 dv=0
EndChar

StartChar: Aring
Encoding: 197 197 24
Width: 602
Flags: MW
HStem: 0 21G<17 155 17 17 447 585 447 447> 123 120<208 394 208 420 182 394> 566 114<277 301 295 301 301 319 295 325> 662 21G<166 166 436 436> 762 85<283 319>
VStem: 151 91<709.5 733.5 709 761.5> 360 91<709.5 733.5>
LayerCount: 2
Fore
SplineSet
451 721 m 0xde
 451 698 445 679 436 662 c 1
 585 0 l 1
 447 0 l 1
 420 123 l 1
 182 123 l 1
 155 0 l 1
 17 0 l 1
 166 662 l 1
 156 679 151 698 151 721 c 0
 151 802 219 847 301 847 c 0
 382 847 451 802 451 721 c 0xde
277 566 m 1xee
 208 243 l 1
 394 243 l 1
 325 566 l 1
 277 566 l 1xee
242 721 m 0
 242 697 262 681 295 680 c 2
 301 680 l 2
 337 680 360 696 360 721 c 0
 360 746 337 762 301 762 c 0
 265 762 242 746 242 721 c 0
EndSplineSet
Position2: "'cpsp' Capital Spacing in Lateinisch lookup 0 subtable" dx=5 dy=0 dh=10 dv=0
EndChar

StartChar: Atilde
Encoding: 195 195 25
Width: 602
Flags: MW
HStem: 0 21G<17 17 17 155 447 447 447 585> 123 120<208 394 208 420 182 394> 566 114<277 277 277 325> 758 118<361 388 361 406> 804 118<196 226.5>
VStem: 17 568<0 0>
LayerCount: 2
Fore
SplineSet
17 0 m 1xf4
 170 680 l 1
 432 680 l 1
 585 0 l 1
 447 0 l 1
 420 123 l 1
 182 123 l 1
 155 0 l 1
 17 0 l 1xf4
277 566 m 1
 208 243 l 1
 394 243 l 1
 325 566 l 1
 277 566 l 1
457 918 m 1
 486 821 l 1
 486 821 433 758 379 758 c 0xf4
 327 758 243 804 210 804 c 0
 182 804 130 762 130 762 c 1
 101 858 l 1
 101 858 155 922 208 922 c 0xec
 269 922 347 876 375 876 c 0
 401 876 457 918 457 918 c 1
EndSplineSet
Position2: "'cpsp' Capital Spacing in Lateinisch lookup 0 subtable" dx=5 dy=0 dh=10 dv=0
EndChar

StartChar: AE
Encoding: 198 198 26
Width: 871
Flags: MW
HStem: 0 132<528 830 528 830> 116 133<213 392 213 392 179 392> 284 131<528 770 528 770> 558 132<293 293 293 393 528 830 528 528>
VStem: 392.5 135.5
LayerCount: 2
Fore
SplineSet
392 0 m 1xb8
 392 116 l 1
 179 116 l 1x78
 150 0 l 1
 12 0 l 1
 196 690 l 1
 830 690 l 1
 830 558 l 1
 528 558 l 1
 528 415 l 1
 770 415 l 1
 770 284 l 1
 528 284 l 1
 528 132 l 1
 830 132 l 1
 830 0 l 1
 392 0 l 1xb8
293 558 m 1
 213 249 l 1
 392 249 l 1
 393 558 l 1
 293 558 l 1
EndSplineSet
Position2: "'cpsp' Capital Spacing in Lateinisch lookup 0 subtable" dx=5 dy=0 dh=10 dv=0
EndChar

StartChar: AEacute
Encoding: 508 508 27
Width: 872
Flags: MW
HStem: 0 132<529 831 529 831> 116 133<214 393 214 393 180 393> 284 131<529 771 529 771> 558 132<294 294 294 394 529 831 529 529>
VStem: 393.5 135.5
LayerCount: 2
Fore
SplineSet
393 0 m 1xb8
 393 116 l 1
 180 116 l 1x78
 151 0 l 1
 13 0 l 1
 197 690 l 1
 831 690 l 1
 831 558 l 1
 529 558 l 1
 529 415 l 1
 771 415 l 1
 771 284 l 1
 529 284 l 1
 529 132 l 1
 831 132 l 1
 831 0 l 1
 393 0 l 1xb8
294 558 m 1
 214 249 l 1
 393 249 l 1
 394 558 l 1
 294 558 l 1
365 839 m 1
 617 945 l 1
 658 825 l 1
 398 746 l 1
 365 839 l 1
EndSplineSet
Position2: "'cpsp' Capital Spacing in Lateinisch lookup 0 subtable" dx=5 dy=0 dh=10 dv=0
EndChar

StartChar: B
Encoding: 66 66 28
Width: 609
Flags: MW
HStem: 0 118<212 338 338 345> 284 116<212 335 335 338 212 335> 562 118<212 334 212 212>
VStem: 74 138<118 284 118 400 400 562> 413 140<461.5 510> 426 140<168.5 230>
LayerCount: 2
Fore
SplineSet
74 680 m 1xf4
 341 680 l 2
 478 680 553 630 553 500 c 0xf8
 553 423 532 384 478 350 c 1
 536 325 566 283 566 195 c 0
 566 59 481 0 345 0 c 2
 74 0 l 1
 74 680 l 1xf4
338 284 m 2xf4
 212 284 l 1
 212 118 l 1
 338 118 l 2
 395 118 426 135 426 202 c 0
 426 258 393 284 338 284 c 2xf4
334 562 m 2xf8
 212 562 l 1
 212 400 l 1
 335 400 l 2
 389 400 413 428 413 482 c 0
 413 538 386 562 334 562 c 2xf8
EndSplineSet
Position2: "'cpsp' Capital Spacing in Lateinisch lookup 0 subtable" dx=5 dy=0 dh=10 dv=0
EndChar

StartChar: C
Encoding: 67 67 29
Width: 543
Flags: MW
HStem: -12 122<272 338> 570 122<274.5 342.5 206 349.5> 665 21G<506 506>
VStem: 47 142<248.5 436.5 248.5 469>
LayerCount: 2
Fore
SplineSet
502 124 m 1xb0
 505 11 l 1
 459 1 369 -12 307 -12 c 0
 97 -12 47 102 47 340 c 0
 47 598 105 692 307 692 c 0xd0
 378 692 464 675 506 665 c 1xb0
 502 555 l 1
 456 562 372 570 327 570 c 0xd0
 222 570 189 533 189 340 c 0
 189 157 213 110 331 110 c 0
 377 110 462 118 502 124 c 1xb0
EndSplineSet
Position2: "'cpsp' Capital Spacing in Lateinisch lookup 0 subtable" dx=5 dy=0 dh=10 dv=0
EndChar

StartChar: Cacute
Encoding: 262 262 30
Width: 543
Flags: MW
HStem: -12 122<272 338> 570 122<274.5 342.5 206 349.5> 665 21G<506 506>
VStem: 47 142<248.5 436.5 248.5 469>
LayerCount: 2
Fore
SplineSet
502 124 m 1xb0
 505 11 l 1
 459 1 369 -12 307 -12 c 0
 97 -12 47 102 47 340 c 0
 47 598 105 692 307 692 c 0xd0
 378 692 464 675 506 665 c 1xb0
 502 555 l 1
 456 562 372 570 327 570 c 0xd0
 222 570 189 533 189 340 c 0
 189 157 213 110 331 110 c 0
 377 110 462 118 502 124 c 1xb0
147 839 m 1
 399 945 l 1
 440 825 l 1
 180 746 l 1
 147 839 l 1
EndSplineSet
Position2: "'cpsp' Capital Spacing in Lateinisch lookup 0 subtable" dx=5 dy=0 dh=10 dv=0
EndChar

StartChar: Ccaron
Encoding: 268 268 31
Width: 543
Flags: MW
HStem: -12 122<272 338> 570 122<274.5 342.5 206 349.5> 665 21G<506 506> 765 149<250 250 250 258 359 367>
VStem: 47 142<248.5 436.5 248.5 469>
LayerCount: 2
Fore
SplineSet
502 124 m 1xb8
 505 11 l 1
 459 1 369 -12 307 -12 c 0
 97 -12 47 102 47 340 c 0
 47 598 105 692 307 692 c 0xd8
 378 692 464 675 506 665 c 1xb8
 502 555 l 1
 456 562 372 570 327 570 c 0xd8
 222 570 189 533 189 340 c 0
 189 157 213 110 331 110 c 0
 377 110 462 118 502 124 c 1xb8
250 765 m 1
 116 914 l 1
 258 914 l 1
 310 858 l 1
 359 914 l 1
 501 914 l 1
 367 765 l 1
 250 765 l 1
EndSplineSet
Position2: "'cpsp' Capital Spacing in Lateinisch lookup 0 subtable" dx=5 dy=0 dh=10 dv=0
EndChar

StartChar: Ccedilla
Encoding: 199 199 32
Width: 543
Flags: MW
HStem: -241 88<277.5 361> -230 21G<234 234> -105 68<262 315 262 315> -12 122<315 315> 570 122<274.5 342.5 206 349.5> 665 21G<506 506>
VStem: 47 142<248.5 436.5 248.5 469> 262 53<-37 -12 -37 -10 -37 -10> 324 114<-135.5 -118.5>
LayerCount: 2
Fore
SplineSet
438 -127 m 0xb780
 438 -205 395 -241 327 -241 c 0x97
 284 -241 234 -230 234 -230 c 1x57
 238 -152 l 1
 238 -152 269 -153 286 -153 c 0
 313 -153 324 -144 324 -127 c 0
 324 -110 313 -105 286 -105 c 2xb780
 262 -105 l 1x77
 262 -10 l 1
 90 6 47 120 47 340 c 0
 47 598 105 692 307 692 c 0x5b
 378 692 464 675 506 665 c 1x57
 502 555 l 1
 456 562 372 570 327 570 c 0
 222 570 189 533 189 340 c 0
 189 157 213 110 331 110 c 0
 377 110 462 118 502 124 c 1
 505 11 l 1
 461 1 376 -11 315 -12 c 1x5b
 315 -37 l 1x77
 393 -38 438 -52 438 -127 c 0xb780
EndSplineSet
Position2: "'cpsp' Capital Spacing in Lateinisch lookup 0 subtable" dx=5 dy=0 dh=10 dv=0
EndChar

StartChar: Ccircumflex
Encoding: 264 264 33
Width: 543
Flags: MW
HStem: -12 122<272 338> 570 122<274.5 342.5 206 349.5> 665 21G<506 506> 765 149<107 358 241 249 350 350 350 358 241 492>
VStem: 47 142<248.5 436.5 248.5 469>
LayerCount: 2
Fore
SplineSet
502 124 m 1xb8
 505 11 l 1
 459 1 369 -12 307 -12 c 0
 97 -12 47 102 47 340 c 0
 47 598 105 692 307 692 c 0xd8
 378 692 464 675 506 665 c 1xb8
 502 555 l 1
 456 562 372 570 327 570 c 0xd8
 222 570 189 533 189 340 c 0
 189 157 213 110 331 110 c 0
 377 110 462 118 502 124 c 1xb8
107 765 m 1
 241 914 l 1
 358 914 l 1
 492 765 l 1
 350 765 l 1
 301 821 l 1
 249 765 l 1
 107 765 l 1
EndSplineSet
Position2: "'cpsp' Capital Spacing in Lateinisch lookup 0 subtable" dx=5 dy=0 dh=10 dv=0
EndChar

StartChar: Cdotaccent
Encoding: 266 266 34
Width: 543
Flags: MW
HStem: -12 122<272 338> 570 122<274.5 342.5 206 349.5> 665 21G<506 506> 760 135<219 353 219 353>
VStem: 47 142<248.5 436.5 248.5 469> 219 134<760 895 760 895>
LayerCount: 2
Fore
SplineSet
502 124 m 1xb8
 505 11 l 1
 459 1 369 -12 307 -12 c 0
 97 -12 47 102 47 340 c 0
 47 598 105 692 307 692 c 0xd8
 378 692 464 675 506 665 c 1xb8
 502 555 l 1
 456 562 372 570 327 570 c 0xd8
 222 570 189 533 189 340 c 0
 189 157 213 110 331 110 c 0
 377 110 462 118 502 124 c 1xb8
219 760 m 1xbc
 219 895 l 1
 353 895 l 1
 353 760 l 1
 219 760 l 1xbc
EndSplineSet
Position2: "'cpsp' Capital Spacing in Lateinisch lookup 0 subtable" dx=5 dy=0 dh=10 dv=0
EndChar

StartChar: D
Encoding: 68 68 35
Width: 638
Flags: MW
HStem: 0 120<212 303 212 303> 560 120<212 303 212 212>
VStem: 74 138<120 560 120 680 120 680> 450 142<277.5 427.5>
LayerCount: 2
Fore
SplineSet
303 0 m 2
 74 0 l 1
 74 680 l 1
 303 680 l 2
 540 680 592 579 592 353 c 0
 592 121 547 0 303 0 c 2
450 353 m 0
 450 502 437 560 303 560 c 2
 212 560 l 1
 212 120 l 1
 303 120 l 2
 437 120 450 202 450 353 c 0
EndSplineSet
Position2: "'cpsp' Capital Spacing in Lateinisch lookup 0 subtable" dx=5 dy=0 dh=10 dv=0
EndChar

StartChar: Dcaron
Encoding: 270 270 36
Width: 638
Flags: MW
HStem: 0 120<212 303 212 303> 560 120<212 303 212 212> 765 149<246 246 246 254 355 363>
VStem: 74 138<120 560 120 680 120 680> 450 142<277.5 427.5>
LayerCount: 2
Fore
SplineSet
303 0 m 2
 74 0 l 1
 74 680 l 1
 303 680 l 2
 540 680 592 579 592 353 c 0
 592 121 547 0 303 0 c 2
450 353 m 0
 450 502 437 560 303 560 c 2
 212 560 l 1
 212 120 l 1
 303 120 l 2
 437 120 450 202 450 353 c 0
246 765 m 1
 112 914 l 1
 254 914 l 1
 306 858 l 1
 355 914 l 1
 497 914 l 1
 363 765 l 1
 246 765 l 1
EndSplineSet
Position2: "'cpsp' Capital Spacing in Lateinisch lookup 0 subtable" dx=5 dy=0 dh=10 dv=0
EndChar

StartChar: Dcroat
Encoding: 272 272 37
Width: 642
Flags: MW
HStem: 0 131<215 306 215 306> 277 132<25 79 25 79 215 345> 559 131<215 306 215 215>
VStem: 79 136<131 277 131 277 131 277 409 559> 453 142<287 428>
LayerCount: 2
Fore
SplineSet
25 277 m 1
 25 409 l 1
 79 409 l 1
 79 690 l 1
 306 690 l 2
 543 690 595 586 595 358 c 0
 595 124 550 0 306 0 c 2
 79 0 l 1
 79 277 l 1
 25 277 l 1
453 358 m 0
 453 498 440 559 306 559 c 2
 215 559 l 1
 215 409 l 1
 345 409 l 1
 345 277 l 1
 215 277 l 1
 215 131 l 1
 306 131 l 2
 440 131 453 216 453 358 c 0
EndSplineSet
Position2: "'cpsp' Capital Spacing in Lateinisch lookup 0 subtable" dx=5 dy=0 dh=10 dv=0
EndChar

StartChar: E
Encoding: 69 69 38
Width: 554
Flags: MW
HStem: 0 120<212 514 212 514> 283 118<212 454 212 454> 560 120<212 514 212 212>
VStem: 74 138<120 283 401 560>
LayerCount: 2
Fore
SplineSet
74 0 m 1
 74 680 l 1
 514 680 l 1
 514 560 l 1
 212 560 l 1
 212 401 l 1
 454 401 l 1
 454 283 l 1
 212 283 l 1
 212 120 l 1
 514 120 l 1
 514 0 l 1
 74 0 l 1
EndSplineSet
Position2: "'cpsp' Capital Spacing in Lateinisch lookup 0 subtable" dx=5 dy=0 dh=10 dv=0
EndChar

StartChar: Eacute
Encoding: 201 201 39
Width: 554
Flags: MW
HStem: 0 120<212 514 212 514> 283 118<212 454 212 454> 560 120<212 514 212 212>
VStem: 74 138<120 283 401 560>
LayerCount: 2
Fore
SplineSet
74 0 m 1
 74 680 l 1
 514 680 l 1
 514 560 l 1
 212 560 l 1
 212 401 l 1
 454 401 l 1
 454 283 l 1
 212 283 l 1
 212 120 l 1
 514 120 l 1
 514 0 l 1
 74 0 l 1
154 839 m 1
 406 945 l 1
 447 825 l 1
 187 746 l 1
 154 839 l 1
EndSplineSet
Position2: "'cpsp' Capital Spacing in Lateinisch lookup 0 subtable" dx=5 dy=0 dh=10 dv=0
EndChar

StartChar: Ebreve
Encoding: 276 276 40
Width: 554
Flags: MW
HStem: 0 120<212 514 212 514> 283 118<212 454 212 454> 560 120<212 514 212 212> 759 151<114 360.5>
VStem: 74 138<120 283 401 560>
LayerCount: 2
Fore
SplineSet
74 0 m 1
 74 680 l 1
 514 680 l 1
 514 560 l 1
 212 560 l 1
 212 401 l 1
 454 401 l 1
 454 283 l 1
 212 283 l 1
 212 120 l 1
 514 120 l 1
 514 0 l 1
 74 0 l 1
114 910 m 1
 235 910 l 1
 240 878 263 853 300 853 c 0
 339 853 362 878 366 910 c 1
 487 910 l 1
 477 825 421 759 300 759 c 0
 179 759 124 825 114 910 c 1
EndSplineSet
Position2: "'cpsp' Capital Spacing in Lateinisch lookup 0 subtable" dx=5 dy=0 dh=10 dv=0
EndChar

StartChar: Ecaron
Encoding: 282 282 41
Width: 554
Flags: MW
HStem: 0 120<212 514 212 514> 283 118<212 454 212 454> 560 120<212 514 212 212> 765 149<221 221 221 229 330 338>
VStem: 74 138<120 283 401 560>
LayerCount: 2
Fore
SplineSet
74 0 m 1
 74 680 l 1
 514 680 l 1
 514 560 l 1
 212 560 l 1
 212 401 l 1
 454 401 l 1
 454 283 l 1
 212 283 l 1
 212 120 l 1
 514 120 l 1
 514 0 l 1
 74 0 l 1
221 765 m 1
 87 914 l 1
 229 914 l 1
 281 858 l 1
 330 914 l 1
 472 914 l 1
 338 765 l 1
 221 765 l 1
EndSplineSet
Position2: "'cpsp' Capital Spacing in Lateinisch lookup 0 subtable" dx=5 dy=0 dh=10 dv=0
EndChar

StartChar: Ecircumflex
Encoding: 202 202 42
Width: 554
Flags: MW
HStem: 0 120<212 514 212 514> 283 118<212 454 212 454> 560 120<212 514 212 212> 765 149<105 356 239 247 348 348 348 356 239 490>
VStem: 74 138<120 283 401 560>
LayerCount: 2
Fore
SplineSet
74 0 m 1
 74 680 l 1
 514 680 l 1
 514 560 l 1
 212 560 l 1
 212 401 l 1
 454 401 l 1
 454 283 l 1
 212 283 l 1
 212 120 l 1
 514 120 l 1
 514 0 l 1
 74 0 l 1
105 765 m 1
 239 914 l 1
 356 914 l 1
 490 765 l 1
 348 765 l 1
 299 821 l 1
 247 765 l 1
 105 765 l 1
EndSplineSet
Position2: "'cpsp' Capital Spacing in Lateinisch lookup 0 subtable" dx=5 dy=0 dh=10 dv=0
EndChar

StartChar: Edieresis
Encoding: 203 203 43
Width: 554
Flags: MW
HStem: 0 120<212 514 212 514> 283 118<212 454 212 454> 560 120<212 514 212 212> 764 132<123 251 123 251 337 465 123 337>
VStem: 74 138<120 283 401 560> 123 128<764 896 764 896> 337 128<764 896 764 896>
LayerCount: 2
Fore
SplineSet
74 0 m 1xfa
 74 680 l 1
 514 680 l 1
 514 560 l 1
 212 560 l 1
 212 401 l 1
 454 401 l 1
 454 283 l 1
 212 283 l 1
 212 120 l 1
 514 120 l 1
 514 0 l 1
 74 0 l 1xfa
123 764 m 1xf6
 123 896 l 1
 251 896 l 1
 251 764 l 1
 123 764 l 1xf6
337 764 m 1
 337 896 l 1
 465 896 l 1
 465 764 l 1
 337 764 l 1
EndSplineSet
Position2: "'cpsp' Capital Spacing in Lateinisch lookup 0 subtable" dx=5 dy=0 dh=10 dv=0
EndChar

StartChar: Edotaccent
Encoding: 278 278 44
Width: 554
Flags: MW
HStem: 0 120<212 514 212 514> 283 118<212 454 212 454> 560 120<212 514 212 212> 767 135<233 367 233 367>
VStem: 74 138<120 283 401 560> 233 134<767 902 767 902>
LayerCount: 2
Fore
SplineSet
74 0 m 1
 74 680 l 1
 514 680 l 1
 514 560 l 1
 212 560 l 1
 212 401 l 1
 454 401 l 1
 454 283 l 1
 212 283 l 1
 212 120 l 1
 514 120 l 1
 514 0 l 1
 74 0 l 1
233 767 m 1xfc
 233 902 l 1
 367 902 l 1
 367 767 l 1
 233 767 l 1xfc
EndSplineSet
Position2: "'cpsp' Capital Spacing in Lateinisch lookup 0 subtable" dx=5 dy=0 dh=10 dv=0
EndChar

StartChar: Egrave
Encoding: 200 200 45
Width: 554
Flags: MW
HStem: 0 120<212 514 212 514> 283 118<212 454 212 454> 560 120<212 514 212 212>
VStem: 74 138<120 283 401 560>
LayerCount: 2
Fore
SplineSet
74 0 m 1
 74 680 l 1
 514 680 l 1
 514 560 l 1
 212 560 l 1
 212 401 l 1
 454 401 l 1
 454 283 l 1
 212 283 l 1
 212 120 l 1
 514 120 l 1
 514 0 l 1
 74 0 l 1
180 945 m 1
 432 839 l 1
 399 746 l 1
 139 825 l 1
 180 945 l 1
EndSplineSet
Position2: "'cpsp' Capital Spacing in Lateinisch lookup 0 subtable" dx=5 dy=0 dh=10 dv=0
EndChar

StartChar: Emacron
Encoding: 274 274 46
Width: 554
Flags: MW
HStem: 0 120<212 514 212 514> 283 118<212 454 212 454> 560 120<212 514 212 212> 782 98<116 463 116 463>
VStem: 74 138<120 283 401 560>
LayerCount: 2
Fore
SplineSet
74 0 m 1
 74 680 l 1
 514 680 l 1
 514 560 l 1
 212 560 l 1
 212 401 l 1
 454 401 l 1
 454 283 l 1
 212 283 l 1
 212 120 l 1
 514 120 l 1
 514 0 l 1
 74 0 l 1
116 782 m 1
 116 880 l 1
 463 880 l 1
 463 782 l 1
 116 782 l 1
EndSplineSet
Position2: "'cpsp' Capital Spacing in Lateinisch lookup 0 subtable" dx=5 dy=0 dh=10 dv=0
EndChar

StartChar: Eogonek
Encoding: 280 280 47
Width: 554
Flags: MW
HStem: -216 102<383 465.5> 0 120<212 371 486 486 486 514> 283 118<212 454 212 454> 560 120<212 514 212 212>
VStem: 74 138<120 283 401 560> 305 125<-92 -90.5>
LayerCount: 2
Fore
SplineSet
74 0 m 1
 74 680 l 1
 514 680 l 1
 514 560 l 1
 212 560 l 1
 212 401 l 1
 454 401 l 1
 454 283 l 1
 212 283 l 1
 212 120 l 1
 514 120 l 1
 514 0 l 1
 486 0 l 1
 480 -5 430 -48 430 -81 c 0
 430 -103 444 -114 462 -114 c 0
 469 -114 504 -110 504 -110 c 1
 516 -205 l 1
 516 -205 457 -216 414 -216 c 0
 352 -216 305 -180 305 -120 c 0
 305 -61 347 -19 371 0 c 1
 74 0 l 1
EndSplineSet
Position2: "'cpsp' Capital Spacing in Lateinisch lookup 0 subtable" dx=5 dy=0 dh=10 dv=0
EndChar

StartChar: F
Encoding: 70 70 48
Width: 531
Flags: MW
HStem: 0 21G<74 74 74 212> 240 120<212 454 212 454> 560 120<212 508 212 212>
VStem: 74 138<0 240 360 560>
LayerCount: 2
Fore
SplineSet
74 0 m 1
 74 680 l 1
 508 680 l 1
 508 560 l 1
 212 560 l 1
 212 360 l 1
 454 360 l 1
 454 240 l 1
 212 240 l 1
 212 0 l 1
 74 0 l 1
EndSplineSet
Position2: "'cpsp' Capital Spacing in Lateinisch lookup 0 subtable" dx=5 dy=0 dh=10 dv=0
EndChar

StartChar: G
Encoding: 71 71 49
Width: 611
Flags: MW
HStem: -12 120<274 356.5 274 367.5> 244 120<357 555 357 419> 570 122<281 370.5 217.5 385.5> 664 21G<555 555>
VStem: 45 142<249.5 435.5 249.5 464> 419 136<112 244 244 244>
LayerCount: 2
Fore
SplineSet
357 244 m 1xdc
 357 364 l 1
 555 364 l 1
 555 11 l 1
 555 11 412 -12 323 -12 c 0
 101 -12 45 112 45 340 c 0
 45 588 117 692 318 692 c 0xec
 423 692 555 664 555 664 c 1xdc
 551 557 l 1
 551 557 431 570 340 570 c 0xec
 222 570 187 531 187 340 c 0
 187 159 212 108 336 108 c 0
 377 108 419 112 419 112 c 1
 419 244 l 1
 357 244 l 1xdc
EndSplineSet
Position2: "'cpsp' Capital Spacing in Lateinisch lookup 0 subtable" dx=5 dy=0 dh=10 dv=0
EndChar

StartChar: Gbreve
Encoding: 286 286 50
Width: 611
Flags: MW
HStem: -12 120<274 356.5 274 367.5> 244 120<357 555 357 419> 570 122<281 370.5 217.5 385.5> 664 21G<555 555> 759 151<136 382.5>
VStem: 45 142<249.5 435.5 249.5 464> 419 136<112 244 244 244>
LayerCount: 2
Fore
SplineSet
357 244 m 1xde
 357 364 l 1
 555 364 l 1
 555 11 l 1
 555 11 412 -12 323 -12 c 0
 101 -12 45 112 45 340 c 0
 45 588 117 692 318 692 c 0xee
 423 692 555 664 555 664 c 1xde
 551 557 l 1
 551 557 431 570 340 570 c 0xee
 222 570 187 531 187 340 c 0
 187 159 212 108 336 108 c 0
 377 108 419 112 419 112 c 1
 419 244 l 1
 357 244 l 1xde
136 910 m 1
 257 910 l 1
 262 878 285 853 322 853 c 0
 361 853 384 878 388 910 c 1
 509 910 l 1
 499 825 443 759 322 759 c 0
 201 759 146 825 136 910 c 1
EndSplineSet
Position2: "'cpsp' Capital Spacing in Lateinisch lookup 0 subtable" dx=5 dy=0 dh=10 dv=0
EndChar

StartChar: Gcircumflex
Encoding: 284 284 51
Width: 611
Flags: MW
HStem: -12 120<274 356.5 274 367.5> 244 120<357 555 357 419> 570 122<281 370.5 217.5 385.5> 664 21G<555 555> 765 149<136 387 270 278 379 379 379 387 270 521>
VStem: 45 142<249.5 435.5 249.5 464> 419 136<112 244 244 244>
LayerCount: 2
Fore
SplineSet
357 244 m 1xde
 357 364 l 1
 555 364 l 1
 555 11 l 1
 555 11 412 -12 323 -12 c 0
 101 -12 45 112 45 340 c 0
 45 588 117 692 318 692 c 0xee
 423 692 555 664 555 664 c 1xde
 551 557 l 1
 551 557 431 570 340 570 c 0xee
 222 570 187 531 187 340 c 0
 187 159 212 108 336 108 c 0
 377 108 419 112 419 112 c 1
 419 244 l 1
 357 244 l 1xde
136 765 m 1
 270 914 l 1
 387 914 l 1
 521 765 l 1
 379 765 l 1
 330 821 l 1
 278 765 l 1
 136 765 l 1
EndSplineSet
Position2: "'cpsp' Capital Spacing in Lateinisch lookup 0 subtable" dx=5 dy=0 dh=10 dv=0
EndChar

StartChar: Gcommaaccent
Encoding: 290 290 52
Width: 611
Flags: MW
HStem: -77 185<266 356.5 274 356.5 274 396> -12 120<274 356.5 274 367.5> 244 120<357 555 357 419> 570 122<281 370.5 217.5 385.5> 664 21G<555 555>
VStem: 45 142<249.5 435.5 249.5 464> 419 136<112 244 244 244>
LayerCount: 2
Fore
SplineSet
357 244 m 1x6e
 357 364 l 1
 555 364 l 1
 555 11 l 1
 555 11 412 -12 323 -12 c 0
 101 -12 45 112 45 340 c 0
 45 588 117 692 318 692 c 0x76
 423 692 555 664 555 664 c 1x6e
 551 557 l 1
 551 557 431 570 340 570 c 0x76
 222 570 187 531 187 340 c 0
 187 159 212 108 336 108 c 0
 377 108 419 112 419 112 c 1
 419 244 l 1
 357 244 l 1x6e
266 -77 m 1xae
 220 -311 l 1
 341 -311 l 1
 396 -77 l 1
 266 -77 l 1xae
EndSplineSet
Position2: "'cpsp' Capital Spacing in Lateinisch lookup 0 subtable" dx=5 dy=0 dh=10 dv=0
EndChar

StartChar: Gdotaccent
Encoding: 288 288 53
Width: 611
Flags: MW
HStem: -12 120<274 356.5 274 367.5> 244 120<357 555 357 419> 570 122<281 370.5 217.5 385.5> 664 21G<555 555> 767 135<245 379 245 379>
VStem: 45 142<249.5 435.5 249.5 464> 245 134<767 902 767 902> 419 136<112 244 244 244>
LayerCount: 2
Fore
SplineSet
357 244 m 1xdf
 357 364 l 1
 555 364 l 1
 555 11 l 1
 555 11 412 -12 323 -12 c 0
 101 -12 45 112 45 340 c 0
 45 588 117 692 318 692 c 0xef
 423 692 555 664 555 664 c 1xdf
 551 557 l 1
 551 557 431 570 340 570 c 0xef
 222 570 187 531 187 340 c 0
 187 159 212 108 336 108 c 0
 377 108 419 112 419 112 c 1
 419 244 l 1
 357 244 l 1xdf
245 767 m 1
 245 902 l 1
 379 902 l 1
 379 767 l 1
 245 767 l 1
EndSplineSet
Position2: "'cpsp' Capital Spacing in Lateinisch lookup 0 subtable" dx=5 dy=0 dh=10 dv=0
EndChar

StartChar: H
Encoding: 72 72 54
Width: 677
Flags: MW
HStem: 0 21G<74 212 74 74 465 603 465 465> 282 120<212 465 212 465>
VStem: 74 138<0 282 0 402 402 680> 465 138<0 282 282 282 402 680 0 680>
LayerCount: 2
Fore
SplineSet
465 0 m 1
 465 282 l 1
 212 282 l 1
 212 0 l 1
 74 0 l 1
 74 680 l 1
 212 680 l 1
 212 402 l 1
 465 402 l 1
 465 680 l 1
 603 680 l 1
 603 0 l 1
 465 0 l 1
EndSplineSet
Position2: "'cpsp' Capital Spacing in Lateinisch lookup 0 subtable" dx=5 dy=0 dh=10 dv=0
EndChar

StartChar: Hbar
Encoding: 294 294 55
Width: 685
Flags: MW
HStem: 0 21G<78 216 78 78 469 607 469 469> 282 120<216 469 216 469> 486 116<19 78 19 78 216 469 607 673>
VStem: 78 138<0 282 402 486 602 680> 469 138<0 282 282 282 402 486 0 486 602 680>
LayerCount: 2
Fore
SplineSet
19 486 m 1
 19 602 l 1
 78 602 l 1
 78 680 l 1
 216 680 l 1
 216 602 l 1
 469 602 l 1
 469 680 l 1
 607 680 l 1
 607 602 l 1
 673 602 l 1
 673 486 l 1
 607 486 l 1
 607 0 l 1
 469 0 l 1
 469 282 l 1
 216 282 l 1
 216 0 l 1
 78 0 l 1
 78 486 l 1
 19 486 l 1
216 402 m 1
 469 402 l 1
 469 486 l 1
 216 486 l 1
 216 402 l 1
EndSplineSet
Position2: "'cpsp' Capital Spacing in Lateinisch lookup 0 subtable" dx=5 dy=0 dh=10 dv=0
EndChar

StartChar: Hcircumflex
Encoding: 292 292 56
Width: 677
Flags: MW
HStem: 0 21G<74 212 74 74 465 603 465 465> 282 120<212 465 212 465> 765 149<146 397 280 288 389 389 389 397 280 531>
VStem: 74 138<0 282 0 402 402 680> 465 138<0 282 282 282 402 680 0 680>
LayerCount: 2
Fore
SplineSet
465 0 m 1
 465 282 l 1
 212 282 l 1
 212 0 l 1
 74 0 l 1
 74 680 l 1
 212 680 l 1
 212 402 l 1
 465 402 l 1
 465 680 l 1
 603 680 l 1
 603 0 l 1
 465 0 l 1
146 765 m 1
 280 914 l 1
 397 914 l 1
 531 765 l 1
 389 765 l 1
 340 821 l 1
 288 765 l 1
 146 765 l 1
EndSplineSet
Position2: "'cpsp' Capital Spacing in Lateinisch lookup 0 subtable" dx=5 dy=0 dh=10 dv=0
EndChar

StartChar: I
Encoding: 73 73 57
Width: 286
Flags: MW
HStem: 0 21G<74 74 74 212>
VStem: 74 138<0 680 0 680>
LayerCount: 2
Fore
SplineSet
74 0 m 1
 74 680 l 1
 212 680 l 1
 212 0 l 1
 74 0 l 1
EndSplineSet
Position2: "'cpsp' Capital Spacing in Lateinisch lookup 0 subtable" dx=5 dy=0 dh=10 dv=0
EndChar

StartChar: Iacute
Encoding: 205 205 58
Width: 286
Flags: MW
HStem: 0 21G<74 74 74 212>
VStem: 74 138<0 680 0 680>
LayerCount: 2
Fore
SplineSet
74 0 m 1
 74 680 l 1
 212 680 l 1
 212 0 l 1
 74 0 l 1
7 839 m 1
 259 945 l 1
 300 825 l 1
 40 746 l 1
 7 839 l 1
EndSplineSet
Position2: "'cpsp' Capital Spacing in Lateinisch lookup 0 subtable" dx=5 dy=0 dh=10 dv=0
EndChar

StartChar: Ibreve
Encoding: 300 300 59
Width: 286
Flags: MW
HStem: 0 21G<74 74 74 212> 759 151<-26 220.5>
VStem: 74 138<0 680 0 680>
LayerCount: 2
Fore
SplineSet
74 0 m 1
 74 680 l 1
 212 680 l 1
 212 0 l 1
 74 0 l 1
-26 910 m 1
 95 910 l 1
 100 878 123 853 160 853 c 0
 199 853 222 878 226 910 c 1
 347 910 l 1
 337 825 281 759 160 759 c 0
 39 759 -16 825 -26 910 c 1
EndSplineSet
Position2: "'cpsp' Capital Spacing in Lateinisch lookup 0 subtable" dx=5 dy=0 dh=10 dv=0
EndChar

StartChar: Icircumflex
Encoding: 206 206 60
Width: 286
Flags: MW
HStem: 0 21G<74 74 74 212> 765 149<-50 201 84 92 193 193 193 201 84 335>
VStem: 74 138<0 680 0 680>
LayerCount: 2
Fore
SplineSet
74 0 m 1
 74 680 l 1
 212 680 l 1
 212 0 l 1
 74 0 l 1
-50 765 m 1
 84 914 l 1
 201 914 l 1
 335 765 l 1
 193 765 l 1
 144 821 l 1
 92 765 l 1
 -50 765 l 1
EndSplineSet
Position2: "'cpsp' Capital Spacing in Lateinisch lookup 0 subtable" dx=5 dy=0 dh=10 dv=0
EndChar

StartChar: Idieresis
Encoding: 207 207 61
Width: 286
Flags: MW
HStem: 0 21G<74 74 74 212> 764 132<-28 100 -28 100 186 314 -28 186>
VStem: -28 128<764 896 764 896> 74 138<0 680 0 680> 186 128<764 896 764 896>
LayerCount: 2
Fore
SplineSet
74 0 m 1xd0
 74 680 l 1
 212 680 l 1
 212 0 l 1
 74 0 l 1xd0
-28 764 m 1xe8
 -28 896 l 1
 100 896 l 1
 100 764 l 1
 -28 764 l 1xe8
186 764 m 1
 186 896 l 1
 314 896 l 1
 314 764 l 1
 186 764 l 1
EndSplineSet
Position2: "'cpsp' Capital Spacing in Lateinisch lookup 0 subtable" dx=5 dy=0 dh=10 dv=0
EndChar

StartChar: Idotaccent
Encoding: 304 304 62
Width: 286
Flags: MW
HStem: 0 21G<74 74 74 212> 767 135<76 210 76 210>
VStem: 74 138<0 680 0 680>
LayerCount: 2
Fore
SplineSet
74 0 m 1
 74 680 l 1
 212 680 l 1
 212 0 l 1
 74 0 l 1
76 767 m 1
 76 902 l 1
 210 902 l 1
 210 767 l 1
 76 767 l 1
EndSplineSet
Position2: "'cpsp' Capital Spacing in Lateinisch lookup 0 subtable" dx=5 dy=0 dh=10 dv=0
EndChar

StartChar: Igrave
Encoding: 204 204 63
Width: 286
Flags: MW
HStem: 0 21G<74 74 74 212>
VStem: 74 138<0 680 0 680>
LayerCount: 2
Fore
SplineSet
74 0 m 1
 74 680 l 1
 212 680 l 1
 212 0 l 1
 74 0 l 1
17 945 m 1
 269 839 l 1
 236 746 l 1
 -24 825 l 1
 17 945 l 1
EndSplineSet
Position2: "'cpsp' Capital Spacing in Lateinisch lookup 0 subtable" dx=5 dy=0 dh=10 dv=0
EndChar

StartChar: Imacron
Encoding: 298 298 64
Width: 286
Flags: MW
HStem: 0 21G<74 74 74 212> 782 98<-27 320 -27 320>
VStem: 74 138<0 680 0 680>
LayerCount: 2
Fore
SplineSet
74 0 m 1
 74 680 l 1
 212 680 l 1
 212 0 l 1
 74 0 l 1
-27 782 m 1
 -27 880 l 1
 320 880 l 1
 320 782 l 1
 -27 782 l 1
EndSplineSet
Position2: "'cpsp' Capital Spacing in Lateinisch lookup 0 subtable" dx=5 dy=0 dh=10 dv=0
EndChar

StartChar: Iogonek
Encoding: 302 302 65
Width: 286
Flags: MW
HStem: -216 102<98 180.5> 0 21G<74 74 74 88 212 212>
VStem: 74 138<0 680 0 680>
LayerCount: 2
Fore
SplineSet
74 0 m 1
 74 680 l 1
 212 680 l 1
 212 0 l 1
 212 0 145 -46 145 -81 c 0
 145 -103 159 -114 177 -114 c 0
 184 -114 219 -110 219 -110 c 1
 231 -205 l 1
 231 -205 172 -216 129 -216 c 0
 67 -216 20 -180 20 -120 c 0
 20 -61 64 -19 88 0 c 1
 74 0 l 1
EndSplineSet
Position2: "'cpsp' Capital Spacing in Lateinisch lookup 0 subtable" dx=5 dy=0 dh=10 dv=0
EndChar

StartChar: Itilde
Encoding: 296 296 66
Width: 286
Flags: MW
HStem: 0 21G<74 74 74 212> 758 118<209 236 209 254> 804 118<44 74.5>
VStem: 74 138<0 680 0 680>
LayerCount: 2
Fore
SplineSet
74 0 m 1xb0
 74 680 l 1
 212 680 l 1
 212 0 l 1
 74 0 l 1xb0
305 918 m 1xd0
 334 821 l 1
 334 821 281 758 227 758 c 0xd0
 175 758 91 804 58 804 c 0
 30 804 -22 762 -22 762 c 1
 -51 858 l 1
 -51 858 3 922 56 922 c 0xb0
 117 922 195 876 223 876 c 0
 249 876 305 918 305 918 c 1xd0
EndSplineSet
Position2: "'cpsp' Capital Spacing in Lateinisch lookup 0 subtable" dx=5 dy=0 dh=10 dv=0
EndChar

StartChar: J
Encoding: 74 74 67
Width: 302
Flags: MW
HStem: -70 120<19 44 19 94>
VStem: 95 138<40 680>
LayerCount: 2
Fore
SplineSet
232 680 m 1
 233 115 l 2
 233 -35 169 -70 19 -70 c 1
 19 50 l 1
 69 50 95 64 95 121 c 2
 95 680 l 1
 232 680 l 1
EndSplineSet
Position2: "'cpsp' Capital Spacing in Lateinisch lookup 0 subtable" dx=5 dy=0 dh=10 dv=0
EndChar

StartChar: Jcircumflex
Encoding: 308 308 68
Width: 302
Flags: MW
HStem: -70 120<19 44 19 94> 765 149<-29 222 105 113 214 214 214 222 105 356>
VStem: 95 138<40 680>
LayerCount: 2
Fore
SplineSet
232 680 m 1
 233 115 l 2
 233 -35 169 -70 19 -70 c 1
 19 50 l 1
 69 50 95 64 95 121 c 2
 95 680 l 1
 232 680 l 1
-29 765 m 1
 105 914 l 1
 222 914 l 1
 356 765 l 1
 214 765 l 1
 165 821 l 1
 113 765 l 1
 -29 765 l 1
EndSplineSet
Position2: "'cpsp' Capital Spacing in Lateinisch lookup 0 subtable" dx=5 dy=0 dh=10 dv=0
EndChar

StartChar: K
Encoding: 75 75 69
Width: 593
Flags: MW
HStem: 0 21G<74 212 74 74 418 577 418 418> 266 120
VStem: 74 138<0 261 0 381 381 680>
LayerCount: 2
Fore
SplineSet
418 0 m 1
 304 271 l 1
 212 261 l 1
 212 0 l 1
 74 0 l 1
 74 680 l 1
 212 680 l 1
 212 381 l 1
 304 391 l 1
 416 680 l 1
 573 680 l 1
 425 339 l 1
 577 0 l 1
 418 0 l 1
EndSplineSet
Position2: "'cpsp' Capital Spacing in Lateinisch lookup 0 subtable" dx=5 dy=0 dh=10 dv=0
EndChar

StartChar: Kcommaaccent
Encoding: 310 310 70
Width: 591
Flags: MW
HStem: 0 21G<74 212 74 74 418 577 418 418> 266 133
VStem: 74 138<0 261 0 394 394 690>
LayerCount: 2
Fore
SplineSet
418 0 m 1
 304 271 l 1
 212 261 l 1
 212 0 l 1
 74 0 l 1
 74 690 l 1
 212 690 l 1
 212 394 l 1
 302 404 l 1
 414 690 l 1
 573 690 l 1
 425 347 l 1
 577 0 l 1
 418 0 l 1
245 -77 m 1
 199 -311 l 1
 320 -311 l 1
 375 -77 l 1
 245 -77 l 1
EndSplineSet
Position2: "'cpsp' Capital Spacing in Lateinisch lookup 0 subtable" dx=5 dy=0 dh=10 dv=0
EndChar

StartChar: L
Encoding: 76 76 71
Width: 472
Flags: MW
HStem: 0 122<212 461 212 461>
VStem: 74 138<122 680 122 680 122 680>
LayerCount: 2
Fore
SplineSet
461 0 m 1
 74 0 l 1
 74 680 l 1
 212 680 l 1
 212 122 l 1
 461 122 l 1
 461 0 l 1
EndSplineSet
Position2: "'cpsp' Capital Spacing in Lateinisch lookup 0 subtable" dx=5 dy=0 dh=10 dv=0
EndChar

StartChar: Lacute
Encoding: 313 313 72
Width: 473
Flags: MW
HStem: 0 133<212 461 212 461>
VStem: 74 138<133 690 133 690 133 690>
LayerCount: 2
Fore
SplineSet
461 0 m 1
 74 0 l 1
 74 690 l 1
 212 690 l 1
 212 133 l 1
 461 133 l 1
 461 0 l 1
110 839 m 1
 362 945 l 1
 403 825 l 1
 143 746 l 1
 110 839 l 1
EndSplineSet
Position2: "'cpsp' Capital Spacing in Lateinisch lookup 0 subtable" dx=5 dy=0 dh=10 dv=0
EndChar

StartChar: Lcaron
Encoding: 317 317 73
Width: 498
Flags: MW
HStem: 0 122<212 461 212 461> 430 260<331 461 331 461>
VStem: 74 138<122 680 122 680 122 680> 331 130<430 690>
LayerCount: 2
Fore
SplineSet
461 690 m 1
 461 430 l 1
 331 430 l 1
 331 690 l 1
 461 690 l 1
461 0 m 1
 74 0 l 1
 74 680 l 1
 212 680 l 1
 212 122 l 1
 461 122 l 1
 461 0 l 1
EndSplineSet
Position2: "'cpsp' Capital Spacing in Lateinisch lookup 0 subtable" dx=5 dy=0 dh=10 dv=0
EndChar

StartChar: Lcommaaccent
Encoding: 315 315 74
Width: 472
Flags: MW
HStem: -77 199<204 461 212 334> 0 122<212 461 212 461>
VStem: 74 138<122 680 122 680 122 680>
LayerCount: 2
Fore
SplineSet
204 -77 m 1xa0
 158 -311 l 1
 279 -311 l 1
 334 -77 l 1
 204 -77 l 1xa0
461 0 m 1x60
 74 0 l 1
 74 680 l 1
 212 680 l 1
 212 122 l 1
 461 122 l 1
 461 0 l 1x60
EndSplineSet
Position2: "'cpsp' Capital Spacing in Lateinisch lookup 0 subtable" dx=5 dy=0 dh=10 dv=0
EndChar

StartChar: Lslash
Encoding: 321 321 75
Width: 481
Flags: MW
HStem: 0 122<221 470 221 470>
VStem: 83 138<122 217 217 217 449 680>
LayerCount: 2
Fore
SplineSet
470 0 m 1
 83 0 l 1
 83 217 l 1
 41 188 l 1
 -24 278 l 1
 83 353 l 1
 83 680 l 1
 221 680 l 1
 221 449 l 1
 320 519 l 1
 385 429 l 1
 221 314 l 1
 221 122 l 1
 470 122 l 1
 470 0 l 1
EndSplineSet
Position2: "'cpsp' Capital Spacing in Lateinisch lookup 0 subtable" dx=5 dy=0 dh=10 dv=0
EndChar

StartChar: M
Encoding: 77 77 76
Width: 858
Flags: MW
HStem: 0 21G<74 74 74 212 646 646 646 784> 526 154<212 227 212 212 631 646 631 631>
VStem: 74 138<0 526 0 680> 646 138<0 526 526 526>
LayerCount: 2
Fore
SplineSet
74 0 m 1
 74 680 l 1
 309 680 l 1
 429 184 l 1
 549 680 l 1
 784 680 l 1
 784 0 l 1
 646 0 l 1
 646 526 l 1
 631 526 l 1
 498 30 l 1
 360 30 l 1
 227 526 l 1
 212 526 l 1
 212 0 l 1
 74 0 l 1
EndSplineSet
Position2: "'cpsp' Capital Spacing in Lateinisch lookup 0 subtable" dx=5 dy=0 dh=10 dv=0
EndChar

StartChar: N
Encoding: 78 78 77
Width: 693
Flags: MW
HStem: 0 120<392 481 471 481 471 619> 560 120<212 222 212 212>
VStem: 74 138<0 560 0 680 0 680> 481 138<120 680 0 680>
LayerCount: 2
Fore
SplineSet
74 0 m 1
 74 680 l 1
 307 680 l 1
 471 120 l 1
 481 120 l 1
 481 680 l 1
 619 680 l 1
 619 0 l 1
 392 0 l 1
 222 560 l 1
 212 560 l 1
 212 0 l 1
 74 0 l 1
EndSplineSet
Position2: "'cpsp' Capital Spacing in Lateinisch lookup 0 subtable" dx=5 dy=0 dh=10 dv=0
EndChar

StartChar: Nacute
Encoding: 323 323 78
Width: 693
Flags: MW
HStem: 0 120<392 481 471 481 471 619> 560 120<212 222 212 212>
VStem: 74 138<0 560 0 680 0 680> 481 138<120 680 0 680>
LayerCount: 2
Fore
SplineSet
74 0 m 1
 74 680 l 1
 307 680 l 1
 471 120 l 1
 481 120 l 1
 481 680 l 1
 619 680 l 1
 619 0 l 1
 392 0 l 1
 222 560 l 1
 212 560 l 1
 212 0 l 1
 74 0 l 1
202 839 m 1
 454 945 l 1
 495 825 l 1
 235 746 l 1
 202 839 l 1
EndSplineSet
Position2: "'cpsp' Capital Spacing in Lateinisch lookup 0 subtable" dx=5 dy=0 dh=10 dv=0
EndChar

StartChar: Ncaron
Encoding: 327 327 79
Width: 693
Flags: MW
HStem: 0 120<392 481 471 481 471 619> 560 120<212 222 212 212> 765 149<289 289 289 297 398 406>
VStem: 74 138<0 560 0 680 0 680> 481 138<120 680 0 680>
LayerCount: 2
Fore
SplineSet
74 0 m 1
 74 680 l 1
 307 680 l 1
 471 120 l 1
 481 120 l 1
 481 680 l 1
 619 680 l 1
 619 0 l 1
 392 0 l 1
 222 560 l 1
 212 560 l 1
 212 0 l 1
 74 0 l 1
289 765 m 1
 155 914 l 1
 297 914 l 1
 349 858 l 1
 398 914 l 1
 540 914 l 1
 406 765 l 1
 289 765 l 1
EndSplineSet
Position2: "'cpsp' Capital Spacing in Lateinisch lookup 0 subtable" dx=5 dy=0 dh=10 dv=0
EndChar

StartChar: Ncommaaccent
Encoding: 325 325 80
Width: 693
Flags: MW
HStem: 0 120<392 481 471 481 471 619> 560 120<212 222 212 212>
VStem: 74 138<0 560 0 680 0 680> 481 138<120 680 0 680>
LayerCount: 2
Fore
SplineSet
299 -77 m 1
 253 -311 l 1
 374 -311 l 1
 429 -77 l 1
 299 -77 l 1
74 0 m 1
 74 680 l 1
 307 680 l 1
 471 120 l 1
 481 120 l 1
 481 680 l 1
 619 680 l 1
 619 0 l 1
 392 0 l 1
 222 560 l 1
 212 560 l 1
 212 0 l 1
 74 0 l 1
EndSplineSet
Position2: "'cpsp' Capital Spacing in Lateinisch lookup 0 subtable" dx=5 dy=0 dh=10 dv=0
EndChar

StartChar: Ntilde
Encoding: 209 209 81
Width: 693
Flags: MW
HStem: 0 120<392 481 471 481 471 619> 560 120<212 222 212 212> 758 118<409 436 409 454> 804 118<244 274.5>
VStem: 74 138<0 560 0 680 0 680> 481 138<120 680 0 680>
LayerCount: 2
Fore
SplineSet
74 0 m 1xdc
 74 680 l 1
 307 680 l 1
 471 120 l 1
 481 120 l 1
 481 680 l 1
 619 680 l 1
 619 0 l 1
 392 0 l 1
 222 560 l 1
 212 560 l 1
 212 0 l 1
 74 0 l 1xdc
505 918 m 1xec
 534 821 l 1
 534 821 481 758 427 758 c 0xec
 375 758 291 804 258 804 c 0
 230 804 178 762 178 762 c 1
 149 858 l 1
 149 858 203 922 256 922 c 0xdc
 317 922 395 876 423 876 c 0
 449 876 505 918 505 918 c 1xec
EndSplineSet
Position2: "'cpsp' Capital Spacing in Lateinisch lookup 0 subtable" dx=5 dy=0 dh=10 dv=0
EndChar

StartChar: O
Encoding: 79 79 82
Width: 652
Flags: MW
HStem: -12 120<270 382 270 433> 572 120<270 382>
VStem: 44 142<257.5 414.5 257.5 451> 466 142<257.5 414.5>
LayerCount: 2
Fore
SplineSet
326 108 m 0
 438 108 466 179 466 336 c 0
 466 493 438 572 326 572 c 0
 214 572 186 493 186 336 c 0
 186 179 214 108 326 108 c 0
326 -12 m 0
 112 -12 44 106 44 336 c 0
 44 566 112 692 326 692 c 0
 540 692 608 566 608 336 c 0
 608 106 540 -12 326 -12 c 0
EndSplineSet
Position2: "'cpsp' Capital Spacing in Lateinisch lookup 0 subtable" dx=5 dy=0 dh=10 dv=0
EndChar

StartChar: Oacute
Encoding: 211 211 83
Width: 652
Flags: MW
HStem: -12 120<270 382 270 433> 572 120<270 382>
VStem: 44 142<257.5 414.5 257.5 451> 466 142<257.5 414.5>
LayerCount: 2
Fore
SplineSet
326 108 m 0
 438 108 466 179 466 336 c 0
 466 493 438 572 326 572 c 0
 214 572 186 493 186 336 c 0
 186 179 214 108 326 108 c 0
326 -12 m 0
 112 -12 44 106 44 336 c 0
 44 566 112 692 326 692 c 0
 540 692 608 566 608 336 c 0
 608 106 540 -12 326 -12 c 0
167 839 m 1
 419 945 l 1
 460 825 l 1
 200 746 l 1
 167 839 l 1
EndSplineSet
Position2: "'cpsp' Capital Spacing in Lateinisch lookup 0 subtable" dx=5 dy=0 dh=10 dv=0
EndChar

StartChar: Obreve
Encoding: 334 334 84
Width: 652
Flags: MW
HStem: -12 120<270 382 270 433> 572 120<270 382> 759 151<141 387.5>
VStem: 44 142<257.5 414.5 257.5 451> 466 142<257.5 414.5>
LayerCount: 2
Fore
SplineSet
326 108 m 0
 438 108 466 179 466 336 c 0
 466 493 438 572 326 572 c 0
 214 572 186 493 186 336 c 0
 186 179 214 108 326 108 c 0
326 -12 m 0
 112 -12 44 106 44 336 c 0
 44 566 112 692 326 692 c 0
 540 692 608 566 608 336 c 0
 608 106 540 -12 326 -12 c 0
141 910 m 1
 262 910 l 1
 267 878 290 853 327 853 c 0
 366 853 389 878 393 910 c 1
 514 910 l 1
 504 825 448 759 327 759 c 0
 206 759 151 825 141 910 c 1
EndSplineSet
Position2: "'cpsp' Capital Spacing in Lateinisch lookup 0 subtable" dx=5 dy=0 dh=10 dv=0
EndChar

StartChar: Ocircumflex
Encoding: 212 212 85
Width: 652
Flags: MW
HStem: -12 120<270 382 270 433> 572 120<270 382> 765 149<135 386 269 277 378 378 378 386 269 520>
VStem: 44 142<257.5 414.5 257.5 451> 466 142<257.5 414.5>
LayerCount: 2
Fore
SplineSet
326 108 m 0
 438 108 466 179 466 336 c 0
 466 493 438 572 326 572 c 0
 214 572 186 493 186 336 c 0
 186 179 214 108 326 108 c 0
326 -12 m 0
 112 -12 44 106 44 336 c 0
 44 566 112 692 326 692 c 0
 540 692 608 566 608 336 c 0
 608 106 540 -12 326 -12 c 0
135 765 m 1
 269 914 l 1
 386 914 l 1
 520 765 l 1
 378 765 l 1
 329 821 l 1
 277 765 l 1
 135 765 l 1
EndSplineSet
Position2: "'cpsp' Capital Spacing in Lateinisch lookup 0 subtable" dx=5 dy=0 dh=10 dv=0
EndChar

StartChar: Odieresis
Encoding: 214 214 86
Width: 652
Flags: MW
HStem: -12 120<270 382 270 433> 572 120<270 382> 764 132<155 283 155 283 369 497 155 369>
VStem: 44 142<257.5 414.5 257.5 451> 155 128<764 896 764 896> 369 128<764 896 764 896> 466 142<257.5 414.5>
LayerCount: 2
Fore
SplineSet
326 108 m 0xf2
 438 108 466 179 466 336 c 0
 466 493 438 572 326 572 c 0
 214 572 186 493 186 336 c 0
 186 179 214 108 326 108 c 0xf2
326 -12 m 0
 112 -12 44 106 44 336 c 0
 44 566 112 692 326 692 c 0
 540 692 608 566 608 336 c 0
 608 106 540 -12 326 -12 c 0
155 764 m 1xec
 155 896 l 1
 283 896 l 1
 283 764 l 1
 155 764 l 1xec
369 764 m 1
 369 896 l 1
 497 896 l 1
 497 764 l 1
 369 764 l 1
EndSplineSet
Position2: "'cpsp' Capital Spacing in Lateinisch lookup 0 subtable" dx=5 dy=0 dh=10 dv=0
EndChar

StartChar: Ograve
Encoding: 210 210 87
Width: 652
Flags: MW
HStem: -12 120<270 382 270 433> 572 120<270 382>
VStem: 44 142<257.5 414.5 257.5 451> 466 142<257.5 414.5>
LayerCount: 2
Fore
SplineSet
326 108 m 0
 438 108 466 179 466 336 c 0
 466 493 438 572 326 572 c 0
 214 572 186 493 186 336 c 0
 186 179 214 108 326 108 c 0
326 -12 m 0
 112 -12 44 106 44 336 c 0
 44 566 112 692 326 692 c 0
 540 692 608 566 608 336 c 0
 608 106 540 -12 326 -12 c 0
204 945 m 1
 456 839 l 1
 423 746 l 1
 163 825 l 1
 204 945 l 1
EndSplineSet
Position2: "'cpsp' Capital Spacing in Lateinisch lookup 0 subtable" dx=5 dy=0 dh=10 dv=0
EndChar

StartChar: Ohungarumlaut
Encoding: 336 336 88
Width: 652
Flags: MW
HStem: -12 120<270 382 270 433> 572 120<270 382>
VStem: 44 142<257.5 414.5 257.5 451> 466 142<257.5 414.5>
LayerCount: 2
Fore
SplineSet
326 108 m 0
 438 108 466 179 466 336 c 0
 466 493 438 572 326 572 c 0
 214 572 186 493 186 336 c 0
 186 179 214 108 326 108 c 0
326 -12 m 0
 112 -12 44 106 44 336 c 0
 44 566 112 692 326 692 c 0
 540 692 608 566 608 336 c 0
 608 106 540 -12 326 -12 c 0
366 775 m 1
 433 972 l 1
 549 930 l 1
 471 739 l 1
 366 775 l 1
158 776 m 1
 225 973 l 1
 341 931 l 1
 263 740 l 1
 158 776 l 1
EndSplineSet
Position2: "'cpsp' Capital Spacing in Lateinisch lookup 0 subtable" dx=5 dy=0 dh=10 dv=0
EndChar

StartChar: Omacron
Encoding: 332 332 89
Width: 652
Flags: MW
HStem: -12 120<270 382 270 433> 572 120<270 382> 782 98<149 496 149 496>
VStem: 44 142<257.5 414.5 257.5 451> 466 142<257.5 414.5>
LayerCount: 2
Fore
SplineSet
326 108 m 0
 438 108 466 179 466 336 c 0
 466 493 438 572 326 572 c 0
 214 572 186 493 186 336 c 0
 186 179 214 108 326 108 c 0
326 -12 m 0
 112 -12 44 106 44 336 c 0
 44 566 112 692 326 692 c 0
 540 692 608 566 608 336 c 0
 608 106 540 -12 326 -12 c 0
149 782 m 1
 149 880 l 1
 496 880 l 1
 496 782 l 1
 149 782 l 1
EndSplineSet
Position2: "'cpsp' Capital Spacing in Lateinisch lookup 0 subtable" dx=5 dy=0 dh=10 dv=0
EndChar

StartChar: Oslash
Encoding: 216 216 90
Width: 652
Flags: MW
HStem: -12 120<318 382 318 433> -2 21G<230 230> 572 120<270 335>
VStem: 44 142<306.5 414.5 306.5 451> 466 142<257.5 364.5>
LayerCount: 2
Fore
SplineSet
326 -12 m 0xb8
 290 -12 258 -8 230 -2 c 1x78
 172 -127 l 1
 74 -78 l 1
 132 46 l 1
 68 103 44 199 44 336 c 0
 44 566 112 692 326 692 c 0
 364 692 398 688 427 680 c 1
 488 810 l 1
 588 767 l 1
 523 627 l 1
 584 568 608 470 608 336 c 0
 608 106 540 -12 326 -12 c 0xb8
186 336 m 0
 186 277 190 230 201 194 c 1
 374 565 l 1
 360 569 344 572 326 572 c 0
 214 572 186 493 186 336 c 0
326 108 m 0
 438 108 466 179 466 336 c 0
 466 393 462 439 452 475 c 1
 283 112 l 1
 296 109 310 108 326 108 c 0
EndSplineSet
Position2: "'cpsp' Capital Spacing in Lateinisch lookup 0 subtable" dx=5 dy=0 dh=10 dv=0
EndChar

StartChar: Oslashacute
Encoding: 510 510 91
Width: 654
Flags: MW
HStem: -12 120<319 383 319 434> -2 21G<231 231> 572 120<271 336>
VStem: 45 142<306.5 414.5 306.5 451> 467 142<257.5 364.5>
LayerCount: 2
Fore
SplineSet
327 -12 m 0xb8
 291 -12 259 -8 231 -2 c 1x78
 173 -127 l 1
 75 -78 l 1
 133 46 l 1
 69 103 45 199 45 336 c 0
 45 566 113 692 327 692 c 0
 365 692 399 688 428 680 c 1
 489 810 l 1
 589 767 l 1
 524 627 l 1
 585 568 609 470 609 336 c 0
 609 106 541 -12 327 -12 c 0xb8
187 336 m 0
 187 277 191 230 202 194 c 1
 375 565 l 1
 361 569 345 572 327 572 c 0
 215 572 187 493 187 336 c 0
327 108 m 0
 439 108 467 179 467 336 c 0
 467 393 463 439 453 475 c 1
 284 112 l 1
 297 109 311 108 327 108 c 0
170 839 m 1
 422 945 l 1
 463 825 l 1
 203 746 l 1
 170 839 l 1
EndSplineSet
Position2: "'cpsp' Capital Spacing in Lateinisch lookup 0 subtable" dx=5 dy=0 dh=10 dv=0
EndChar

StartChar: Otilde
Encoding: 213 213 92
Width: 652
Flags: MW
HStem: -12 120<270 382 270 433> 572 120<270 382> 758 118<393 420 393 438> 804 118<228 258.5>
VStem: 44 142<257.5 414.5 257.5 451> 466 142<257.5 414.5>
LayerCount: 2
Fore
SplineSet
326 108 m 0xec
 438 108 466 179 466 336 c 0
 466 493 438 572 326 572 c 0
 214 572 186 493 186 336 c 0
 186 179 214 108 326 108 c 0xec
326 -12 m 0
 112 -12 44 106 44 336 c 0
 44 566 112 692 326 692 c 0
 540 692 608 566 608 336 c 0
 608 106 540 -12 326 -12 c 0
489 918 m 1
 518 821 l 1
 518 821 465 758 411 758 c 0xec
 359 758 275 804 242 804 c 0
 214 804 162 762 162 762 c 1
 133 858 l 1
 133 858 187 922 240 922 c 0xdc
 301 922 379 876 407 876 c 0
 433 876 489 918 489 918 c 1
EndSplineSet
Position2: "'cpsp' Capital Spacing in Lateinisch lookup 0 subtable" dx=5 dy=0 dh=10 dv=0
EndChar

StartChar: OE
Encoding: 338 338 93
Width: 902
Flags: MW
HStem: -12 136<271 324.5> 0 124<271 861 271 425> 0 132<559 861 559 861> 284 131<559 801 559 801> 558 132<559 861 559 559> 566 136<273.5 324.5 210 338.5>
VStem: 46 142<259.5 435.5 259.5 475> 423 136<132 284 415 558>
LayerCount: 2
Fore
SplineSet
861 0 m 1x37
 425 0 l 1x37
 387 -6 343 -12 306 -12 c 0
 96 -12 46 105 46 345 c 0
 46 605 114 702 306 702 c 0x97
 343 702 386 696 423 690 c 1
 861 690 l 1
 861 558 l 1
 559 558 l 1x3b
 559 415 l 1
 801 415 l 1
 801 284 l 1
 559 284 l 1
 559 132 l 1
 861 132 l 1
 861 0 l 1x37
330 124 m 0x57
 352 124 389 127 423 130 c 1
 423 560 l 1
 388 563 351 566 326 566 c 0
 221 566 188 526 188 345 c 0
 188 174 212 124 330 124 c 0x57
EndSplineSet
Position2: "'cpsp' Capital Spacing in Lateinisch lookup 0 subtable" dx=5 dy=0 dh=10 dv=0
EndChar

StartChar: P
Encoding: 80 80 94
Width: 589
Flags: MW
HStem: 0 21G<74 212 74 74> 198 118<212 323 323 324 212 323> 562 118<212 323 212 212>
VStem: 74 138<0 198 316 562> 426 140<401 486.5>
LayerCount: 2
Fore
SplineSet
324 198 m 2
 212 198 l 1
 212 0 l 1
 74 0 l 1
 74 680 l 1
 324 680 l 2
 484 680 566 602 566 444 c 0
 566 286 484 198 324 198 c 2
212 316 m 1
 323 316 l 2
 392 316 426 358 426 444 c 0
 426 529 392 562 323 562 c 2
 212 562 l 1
 212 316 l 1
EndSplineSet
Position2: "'cpsp' Capital Spacing in Lateinisch lookup 0 subtable" dx=5 dy=0 dh=10 dv=0
EndChar

StartChar: Q
Encoding: 81 81 95
Width: 652
Flags: MW
HStem: -12 120<270 333.5> 572 120<270 382>
VStem: 44 142<256.5 414.5 256.5 451> 466 142<262 414.5>
LayerCount: 2
Fore
SplineSet
460 -156 m 1
 370 -9 l 1
 363 -11 341 -12 326 -12 c 0
 112 -12 44 104 44 336 c 0
 44 566 112 692 326 692 c 0
 540 692 608 566 608 336 c 0
 608 188 578 92 503 37 c 1
 586 -97 l 1
 460 -156 l 1
326 108 m 0
 438 108 466 177 466 336 c 0
 466 493 438 572 326 572 c 0
 214 572 186 493 186 336 c 0
 186 177 214 108 326 108 c 0
EndSplineSet
Position2: "'cpsp' Capital Spacing in Lateinisch lookup 0 subtable" dx=5 dy=0 dh=10 dv=0
EndChar

StartChar: R
Encoding: 82 82 96
Width: 620
Flags: MW
HStem: 0 21G<74 212 74 74 424 424 424 575> 228 118<212 340 340 345 212 340> 562 118<212 338 212 212>
VStem: 74 138<0 228 0 346 346 562> 437 141<424 486.5>
LayerCount: 2
Fore
SplineSet
345 228 m 1
 212 228 l 1
 212 0 l 1
 74 0 l 1
 74 680 l 1
 338 680 l 2
 493 680 578 611 578 456 c 0
 578 362 540 299 478 260 c 1
 575 0 l 1
 424 0 l 1
 345 228 l 1
437 454 m 0
 437 519 404 562 338 562 c 2
 212 562 l 1
 212 346 l 1
 340 346 l 2
 409 346 437 394 437 454 c 0
EndSplineSet
Position2: "'cpsp' Capital Spacing in Lateinisch lookup 0 subtable" dx=5 dy=0 dh=10 dv=0
EndChar

StartChar: Racute
Encoding: 340 340 97
Width: 620
Flags: MW
HStem: 346 216<212 338 338 340 212 338> 680 21G<74 338 74 74>
VStem: 212 225<0 486.5 228 486.5 424 486.5 424 562 424 562>
LayerCount: 2
Fore
SplineSet
212 228 m 1
 345 228 l 1
 424 0 l 1
 575 0 l 1
 478 260 l 1
 540 299 578 362 578 456 c 0
 578 611 493 680 338 680 c 2
 74 680 l 1
 74 0 l 1
 212 0 l 1
 212 228 l 1
437 454 m 0
 437 394 409 346 340 346 c 2
 212 346 l 1
 212 562 l 1
 338 562 l 2
 404 562 437 519 437 454 c 0
170 839 m 1
 422 945 l 1
 463 825 l 1
 203 746 l 1
 170 839 l 1
EndSplineSet
Position2: "'cpsp' Capital Spacing in Lateinisch lookup 0 subtable" dx=5 dy=0 dh=10 dv=0
EndChar

StartChar: Rcaron
Encoding: 344 344 98
Width: 620
Flags: MW
HStem: 0 21G<74 212 74 74 424 424 424 575> 228 118<212 340 340 345 212 340> 562 118<212 338 212 212> 765 149<241 241 241 249 350 358>
VStem: 74 138<0 228 0 346 346 562> 437 141<424 486.5>
LayerCount: 2
Fore
SplineSet
345 228 m 1
 212 228 l 1
 212 0 l 1
 74 0 l 1
 74 680 l 1
 338 680 l 2
 493 680 578 611 578 456 c 0
 578 362 540 299 478 260 c 1
 575 0 l 1
 424 0 l 1
 345 228 l 1
437 454 m 0
 437 519 404 562 338 562 c 2
 212 562 l 1
 212 346 l 1
 340 346 l 2
 409 346 437 394 437 454 c 0
241 765 m 1
 107 914 l 1
 249 914 l 1
 301 858 l 1
 350 914 l 1
 492 914 l 1
 358 765 l 1
 241 765 l 1
EndSplineSet
Position2: "'cpsp' Capital Spacing in Lateinisch lookup 0 subtable" dx=5 dy=0 dh=10 dv=0
EndChar

StartChar: Rcommaaccent
Encoding: 342 342 99
Width: 620
Flags: MW
HStem: -311 234<211 387 257 332> 0 21G<74 212 74 74 424 424 424 575> 228 118<212 340 340 345 212 340> 562 118<212 338 212 212>
VStem: 74 138<0 228 0 346 346 562> 437 141<424 486.5>
LayerCount: 2
Fore
SplineSet
211 -311 m 1
 257 -77 l 1
 387 -77 l 1
 332 -311 l 1
 211 -311 l 1
345 228 m 1
 212 228 l 1
 212 0 l 1
 74 0 l 1
 74 680 l 1
 338 680 l 2
 493 680 578 611 578 456 c 0
 578 362 540 299 478 260 c 1
 575 0 l 1
 424 0 l 1
 345 228 l 1
437 454 m 0
 437 519 404 562 338 562 c 2
 212 562 l 1
 212 346 l 1
 340 346 l 2
 409 346 437 394 437 454 c 0
EndSplineSet
Position2: "'cpsp' Capital Spacing in Lateinisch lookup 0 subtable" dx=5 dy=0 dh=10 dv=0
EndChar

StartChar: S
Encoding: 83 83 100
Width: 544
Flags: MW
HStem: -12 120<228.5 301 228.5 339> 572 120<246 312> 665 21G<493 493>
VStem: 37 137<478.5 522.5 478.5 560.5> 370 137<169.5 217>
LayerCount: 2
Fore
SplineSet
493 665 m 1xb8
 482 556 l 1
 482 556 341 572 283 572 c 0
 209 572 174 545 174 500 c 0
 174 457 201 442 315 406 c 0
 462 359 507 318 507 205 c 0
 507 57 406 -12 272 -12 c 0
 179 -12 45 19 45 19 c 1
 59 126 l 1
 59 126 193 108 264 108 c 0
 338 108 370 143 370 196 c 0
 370 238 346 257 248 285 c 0
 95 329 37 381 37 490 c 0
 37 631 131 692 269 692 c 0xd8
 360 692 493 665 493 665 c 1xb8
EndSplineSet
Position2: "'cpsp' Capital Spacing in Lateinisch lookup 0 subtable" dx=5 dy=0 dh=10 dv=0
EndChar

StartChar: Sacute
Encoding: 346 346 101
Width: 544
Flags: MW
HStem: -12 120<228.5 301 228.5 339> 572 120<246 312> 665 21G<493 493>
VStem: 37 137<478.5 522.5 478.5 560.5> 370 137<169.5 217>
LayerCount: 2
Fore
SplineSet
493 665 m 1xb8
 482 556 l 1
 482 556 341 572 283 572 c 0
 209 572 174 545 174 500 c 0
 174 457 201 442 315 406 c 0
 462 359 507 318 507 205 c 0
 507 57 406 -12 272 -12 c 0
 179 -12 45 19 45 19 c 1
 59 126 l 1
 59 126 193 108 264 108 c 0
 338 108 370 143 370 196 c 0
 370 238 346 257 248 285 c 0
 95 329 37 381 37 490 c 0
 37 631 131 692 269 692 c 0xd8
 360 692 493 665 493 665 c 1xb8
144 839 m 1
 396 945 l 1
 437 825 l 1
 177 746 l 1
 144 839 l 1
EndSplineSet
Position2: "'cpsp' Capital Spacing in Lateinisch lookup 0 subtable" dx=5 dy=0 dh=10 dv=0
EndChar

StartChar: Scaron
Encoding: 352 352 102
Width: 544
Flags: MW
HStem: -12 120<228.5 301 228.5 339> 572 120<246 312> 665 21G<493 493> 765 149<235 235 235 243 344 352>
VStem: 37 137<478.5 522.5 478.5 560.5> 370 137<169.5 217>
LayerCount: 2
Fore
SplineSet
493 665 m 1xbc
 482 556 l 1
 482 556 341 572 283 572 c 0
 209 572 174 545 174 500 c 0
 174 457 201 442 315 406 c 0
 462 359 507 318 507 205 c 0
 507 57 406 -12 272 -12 c 0
 179 -12 45 19 45 19 c 1
 59 126 l 1
 59 126 193 108 264 108 c 0
 338 108 370 143 370 196 c 0
 370 238 346 257 248 285 c 0
 95 329 37 381 37 490 c 0
 37 631 131 692 269 692 c 0xdc
 360 692 493 665 493 665 c 1xbc
235 765 m 1
 101 914 l 1
 243 914 l 1
 295 858 l 1
 344 914 l 1
 486 914 l 1
 352 765 l 1
 235 765 l 1
EndSplineSet
Position2: "'cpsp' Capital Spacing in Lateinisch lookup 0 subtable" dx=5 dy=0 dh=10 dv=0
EndChar

StartChar: Scedilla
Encoding: 350 350 103
Width: 544
Flags: MW
HStem: -241 88<273.5 357> -230 21G<230 230> -105 68<258 311 258 311> -12 21G<258 258> -10 21G<311 311> 572 120<246 312> 665 21G<493 493>
VStem: 37 137<478.5 522.5 478.5 560.5> 258 53<-37 -12 -12 -12> 320 114<-135.5 -118.5> 370 137<169.5 217>
LayerCount: 2
Fore
SplineSet
434 -127 m 0xabc0
 434 -205 391 -241 323 -241 c 0x8ba0
 280 -241 230 -230 230 -230 c 1x4ba0
 234 -152 l 1
 234 -152 265 -153 282 -153 c 0
 309 -153 320 -144 320 -127 c 0
 320 -110 309 -105 282 -105 c 2xabc0
 258 -105 l 1x6ba0
 258 -12 l 1
 166 -9 45 19 45 19 c 1x53a0
 59 126 l 1
 59 126 193 108 264 108 c 0
 338 108 370 143 370 196 c 0
 370 238 346 257 248 285 c 0
 95 329 37 381 37 490 c 0
 37 631 131 692 269 692 c 0x6da0
 360 692 493 665 493 665 c 1x4ba0
 482 556 l 1
 482 556 341 572 283 572 c 0
 209 572 174 545 174 500 c 0
 174 457 201 442 315 406 c 0
 462 359 507 318 507 205 c 0
 507 72 425 2 311 -10 c 1x4da0
 311 -37 l 1x6ba0
 389 -38 434 -52 434 -127 c 0xabc0
EndSplineSet
Substitution2: "'locl' Localized Forms in Lateinisch lookup 0 subtable" Scommaaccent
Position2: "'cpsp' Capital Spacing in Lateinisch lookup 0 subtable" dx=5 dy=0 dh=10 dv=0
EndChar

StartChar: Scircumflex
Encoding: 348 348 104
Width: 544
Flags: MW
HStem: -12 120<228.5 301 228.5 339> 572 120<246 312> 665 21G<493 493> 765 149<84 335 218 226 327 327 327 335 218 469>
VStem: 37 137<478.5 522.5 478.5 560.5> 370 137<169.5 217>
LayerCount: 2
Fore
SplineSet
493 665 m 1xbc
 482 556 l 1
 482 556 341 572 283 572 c 0
 209 572 174 545 174 500 c 0
 174 457 201 442 315 406 c 0
 462 359 507 318 507 205 c 0
 507 57 406 -12 272 -12 c 0
 179 -12 45 19 45 19 c 1
 59 126 l 1
 59 126 193 108 264 108 c 0
 338 108 370 143 370 196 c 0
 370 238 346 257 248 285 c 0
 95 329 37 381 37 490 c 0
 37 631 131 692 269 692 c 0xdc
 360 692 493 665 493 665 c 1xbc
84 765 m 1
 218 914 l 1
 335 914 l 1
 469 765 l 1
 327 765 l 1
 278 821 l 1
 226 765 l 1
 84 765 l 1
EndSplineSet
Position2: "'cpsp' Capital Spacing in Lateinisch lookup 0 subtable" dx=5 dy=0 dh=10 dv=0
EndChar

StartChar: Scommaaccent
Encoding: 536 536 105
Width: 544
Flags: MW
HStem: -77 185<215 301 228.5 301 228.5 345> -12 120<228.5 301 228.5 339> 572 120<246 312> 665 21G<493 493>
VStem: 37 137<478.5 522.5 478.5 560.5> 370 137<169.5 217>
LayerCount: 2
Fore
SplineSet
215 -77 m 1x9c
 169 -311 l 1
 290 -311 l 1
 345 -77 l 1
 215 -77 l 1x9c
493 665 m 1
 482 556 l 1
 482 556 341 572 283 572 c 0
 209 572 174 545 174 500 c 0
 174 457 201 442 315 406 c 0
 462 359 507 318 507 205 c 0
 507 57 406 -12 272 -12 c 0
 179 -12 45 19 45 19 c 1
 59 126 l 1
 59 126 193 108 264 108 c 0
 338 108 370 143 370 196 c 0
 370 238 346 257 248 285 c 0
 95 329 37 381 37 490 c 0
 37 631 131 692 269 692 c 0x6c
 360 692 493 665 493 665 c 1
EndSplineSet
Position2: "'cpsp' Capital Spacing in Lateinisch lookup 0 subtable" dx=5 dy=0 dh=10 dv=0
EndChar

StartChar: T
Encoding: 84 84 106
Width: 526
Flags: MW
HStem: 0 21G<195 333 195 195> 558 122<13 513 13 195 333 333 333 513>
VStem: 195 138<0 558 0 558>
LayerCount: 2
Fore
SplineSet
13 558 m 1
 13 680 l 1
 513 680 l 1
 513 558 l 1
 333 558 l 1
 333 0 l 1
 195 0 l 1
 195 558 l 1
 13 558 l 1
EndSplineSet
Position2: "'cpsp' Capital Spacing in Lateinisch lookup 0 subtable" dx=5 dy=0 dh=10 dv=0
EndChar

StartChar: Tbar
Encoding: 358 358 107
Width: 528
Flags: MW
HStem: 0 21G<196 334 196 196> 253 116<64 196 64 196 334 473> 558 122<14 514 14 196 334 334 334 514>
VStem: 196 138<0 253 0 253 369 558>
LayerCount: 2
Fore
SplineSet
14 558 m 1
 14 680 l 1
 514 680 l 1
 514 558 l 1
 334 558 l 1
 334 369 l 1
 473 369 l 1
 473 253 l 1
 334 253 l 1
 334 0 l 1
 196 0 l 1
 196 253 l 1
 64 253 l 1
 64 369 l 1
 196 369 l 1
 196 558 l 1
 14 558 l 1
EndSplineSet
Position2: "'cpsp' Capital Spacing in Lateinisch lookup 0 subtable" dx=5 dy=0 dh=10 dv=0
EndChar

StartChar: Tcaron
Encoding: 356 356 108
Width: 526
Flags: MW
HStem: 0 21G<195 333 195 195> 558 122<13 513 13 195 333 333 333 513> 765 149<206 206 206 214 315 323>
VStem: 195 138<0 558 0 558>
LayerCount: 2
Fore
SplineSet
13 558 m 1
 13 680 l 1
 513 680 l 1
 513 558 l 1
 333 558 l 1
 333 0 l 1
 195 0 l 1
 195 558 l 1
 13 558 l 1
206 765 m 1
 72 914 l 1
 214 914 l 1
 266 858 l 1
 315 914 l 1
 457 914 l 1
 323 765 l 1
 206 765 l 1
EndSplineSet
Position2: "'cpsp' Capital Spacing in Lateinisch lookup 0 subtable" dx=5 dy=0 dh=10 dv=0
EndChar

StartChar: Tcommaaccent
Encoding: 538 538 109
Width: 526
Flags: MW
HStem: 0 21G<195 333 195 195> 558 122<13 513 13 195 333 333 333 513>
VStem: 195 138<0 558 0 558>
LayerCount: 2
Fore
SplineSet
223 -77 m 1
 177 -311 l 1
 298 -311 l 1
 353 -77 l 1
 223 -77 l 1
13 558 m 1
 13 680 l 1
 513 680 l 1
 513 558 l 1
 333 558 l 1
 333 0 l 1
 195 0 l 1
 195 558 l 1
 13 558 l 1
EndSplineSet
Position2: "'cpsp' Capital Spacing in Lateinisch lookup 0 subtable" dx=5 dy=0 dh=10 dv=0
EndChar

StartChar: U
Encoding: 85 85 110
Width: 654
Flags: MW
HStem: -12 120<286.5 367.5 286.5 412>
VStem: 68 138<230 680> 448 138<227 230 230 680>
LayerCount: 2
Fore
SplineSet
206 227 m 2
 206 146 246 108 327 108 c 0
 408 108 448 147 448 227 c 2
 448 680 l 1
 586 680 l 1
 586 230 l 2
 586 60 497 -12 327 -12 c 0
 157 -12 68 60 68 230 c 2
 68 680 l 1
 206 680 l 1
 206 227 l 2
EndSplineSet
Position2: "'cpsp' Capital Spacing in Lateinisch lookup 0 subtable" dx=5 dy=0 dh=10 dv=0
EndChar

StartChar: Uacute
Encoding: 218 218 111
Width: 654
Flags: MW
HStem: -12 120<286.5 367.5 286.5 412>
VStem: 68 138<230 680> 448 138<227 230 230 680>
LayerCount: 2
Fore
SplineSet
206 227 m 2
 206 146 246 108 327 108 c 0
 408 108 448 147 448 227 c 2
 448 680 l 1
 586 680 l 1
 586 230 l 2
 586 60 497 -12 327 -12 c 0
 157 -12 68 60 68 230 c 2
 68 680 l 1
 206 680 l 1
 206 227 l 2
175 839 m 1
 427 945 l 1
 468 825 l 1
 208 746 l 1
 175 839 l 1
EndSplineSet
Position2: "'cpsp' Capital Spacing in Lateinisch lookup 0 subtable" dx=5 dy=0 dh=10 dv=0
EndChar

StartChar: Ubreve
Encoding: 364 364 112
Width: 654
Flags: MW
HStem: -12 120<286.5 367.5 286.5 412> 759 151<145 391.5>
VStem: 68 138<230 680> 448 138<227 230 230 680>
LayerCount: 2
Fore
SplineSet
206 227 m 2
 206 146 246 108 327 108 c 0
 408 108 448 147 448 227 c 2
 448 680 l 1
 586 680 l 1
 586 230 l 2
 586 60 497 -12 327 -12 c 0
 157 -12 68 60 68 230 c 2
 68 680 l 1
 206 680 l 1
 206 227 l 2
145 910 m 1
 266 910 l 1
 271 878 294 853 331 853 c 0
 370 853 393 878 397 910 c 1
 518 910 l 1
 508 825 452 759 331 759 c 0
 210 759 155 825 145 910 c 1
EndSplineSet
Position2: "'cpsp' Capital Spacing in Lateinisch lookup 0 subtable" dx=5 dy=0 dh=10 dv=0
EndChar

StartChar: Ucircumflex
Encoding: 219 219 113
Width: 654
Flags: MW
HStem: -12 120<286.5 367.5 286.5 412> 765 149<135 386 269 277 378 378 378 386 269 520>
VStem: 68 138<230 680> 448 138<227 230 230 680>
LayerCount: 2
Fore
SplineSet
206 227 m 2
 206 146 246 108 327 108 c 0
 408 108 448 147 448 227 c 2
 448 680 l 1
 586 680 l 1
 586 230 l 2
 586 60 497 -12 327 -12 c 0
 157 -12 68 60 68 230 c 2
 68 680 l 1
 206 680 l 1
 206 227 l 2
135 765 m 1
 269 914 l 1
 386 914 l 1
 520 765 l 1
 378 765 l 1
 329 821 l 1
 277 765 l 1
 135 765 l 1
EndSplineSet
Position2: "'cpsp' Capital Spacing in Lateinisch lookup 0 subtable" dx=5 dy=0 dh=10 dv=0
EndChar

StartChar: Udieresis
Encoding: 220 220 114
Width: 654
Flags: MW
HStem: -12 120<286.5 367.5 286.5 412> 764 132<156 284 156 284 370 498 156 370>
VStem: 68 138<230 680> 156 128<764 896 764 896> 370 128<764 896 764 896> 448 138<227 230 230 680>
LayerCount: 2
Fore
SplineSet
206 227 m 2xe4
 206 146 246 108 327 108 c 0
 408 108 448 147 448 227 c 2
 448 680 l 1
 586 680 l 1
 586 230 l 2
 586 60 497 -12 327 -12 c 0
 157 -12 68 60 68 230 c 2
 68 680 l 1
 206 680 l 1
 206 227 l 2xe4
156 764 m 1
 156 896 l 1xe8
 284 896 l 1
 284 764 l 1xd4
 156 764 l 1
370 764 m 1
 370 896 l 1xe8
 498 896 l 1
 498 764 l 1xe4
 370 764 l 1
EndSplineSet
Position2: "'cpsp' Capital Spacing in Lateinisch lookup 0 subtable" dx=5 dy=0 dh=10 dv=0
EndChar

StartChar: Ugrave
Encoding: 217 217 115
Width: 654
Flags: MW
HStem: -12 120<286.5 367.5 286.5 412>
VStem: 68 138<230 680> 448 138<227 230 230 680>
LayerCount: 2
Fore
SplineSet
206 227 m 2
 206 146 246 108 327 108 c 0
 408 108 448 147 448 227 c 2
 448 680 l 1
 586 680 l 1
 586 230 l 2
 586 60 497 -12 327 -12 c 0
 157 -12 68 60 68 230 c 2
 68 680 l 1
 206 680 l 1
 206 227 l 2
216 945 m 1
 468 839 l 1
 435 746 l 1
 175 825 l 1
 216 945 l 1
EndSplineSet
Position2: "'cpsp' Capital Spacing in Lateinisch lookup 0 subtable" dx=5 dy=0 dh=10 dv=0
EndChar

StartChar: Uhungarumlaut
Encoding: 368 368 116
Width: 654
Flags: MW
HStem: -12 120<286.5 367.5 286.5 412>
VStem: 68 138<230 680> 448 138<227 230 230 680>
LayerCount: 2
Fore
SplineSet
206 227 m 2
 206 146 246 108 327 108 c 0
 408 108 448 147 448 227 c 2
 448 680 l 1
 586 680 l 1
 586 230 l 2
 586 60 497 -12 327 -12 c 0
 157 -12 68 60 68 230 c 2
 68 680 l 1
 206 680 l 1
 206 227 l 2
361 775 m 1
 428 972 l 1
 544 930 l 1
 466 739 l 1
 361 775 l 1
153 776 m 1
 220 973 l 1
 336 931 l 1
 258 740 l 1
 153 776 l 1
EndSplineSet
Position2: "'cpsp' Capital Spacing in Lateinisch lookup 0 subtable" dx=5 dy=0 dh=10 dv=0
EndChar

StartChar: Umacron
Encoding: 362 362 117
Width: 654
Flags: MW
HStem: -12 120<286.5 367.5 286.5 412> 782 98<157 504 157 504>
VStem: 68 138<230 680> 448 138<227 230 230 680>
LayerCount: 2
Fore
SplineSet
206 227 m 2
 206 146 246 108 327 108 c 0
 408 108 448 147 448 227 c 2
 448 680 l 1
 586 680 l 1
 586 230 l 2
 586 60 497 -12 327 -12 c 0
 157 -12 68 60 68 230 c 2
 68 680 l 1
 206 680 l 1
 206 227 l 2
157 782 m 1
 157 880 l 1
 504 880 l 1
 504 782 l 1
 157 782 l 1
EndSplineSet
Position2: "'cpsp' Capital Spacing in Lateinisch lookup 0 subtable" dx=5 dy=0 dh=10 dv=0
EndChar

StartChar: Uogonek
Encoding: 370 370 118
Width: 656
Flags: MW
HStem: -216 102<320 402.5> -11 119
VStem: 69 138<230 680> 242 125<-150 -66> 449 138<227 230 230 680>
LayerCount: 2
Fore
SplineSet
207 227 m 2
 207 146 247 108 328 108 c 0
 409 108 449 147 449 227 c 2
 449 680 l 1
 587 680 l 1
 587 230 l 2
 587 94 530 21 420 -3 c 1
 407 -14 367 -51 367 -81 c 0
 367 -103 381 -114 399 -114 c 0
 406 -114 441 -110 441 -110 c 1
 453 -205 l 1
 453 -205 394 -216 351 -216 c 0
 289 -216 242 -180 242 -120 c 0
 242 -71 271 -33 295 -11 c 1
 146 -2 69 71 69 230 c 2
 69 680 l 1
 207 680 l 1
 207 227 l 2
EndSplineSet
Position2: "'cpsp' Capital Spacing in Lateinisch lookup 0 subtable" dx=5 dy=0 dh=10 dv=0
EndChar

StartChar: Uring
Encoding: 366 366 119
Width: 654
Flags: MW
HStem: -12 120<286.5 367.5 286.5 412> 713 85<313 349 313 371.5> 880 85<313 349>
VStem: 68 138<230 680> 181 91<826.5 851.5 826.5 879.5> 390 91<826.5 851.5> 448 138<227 230 230 680>
LayerCount: 2
Fore
SplineSet
206 227 m 2xf2
 206 146 246 108 327 108 c 0
 408 108 448 147 448 227 c 2
 448 680 l 1
 586 680 l 1
 586 230 l 2
 586 60 497 -12 327 -12 c 0
 157 -12 68 60 68 230 c 2
 68 680 l 1
 206 680 l 1
 206 227 l 2xf2
481 839 m 0xec
 481 758 412 713 331 713 c 0
 249 713 181 758 181 839 c 0
 181 920 249 965 331 965 c 0
 412 965 481 920 481 839 c 0xec
272 839 m 0
 272 814 295 798 331 798 c 0
 367 798 390 814 390 839 c 0
 390 864 367 880 331 880 c 0
 295 880 272 864 272 839 c 0
EndSplineSet
Position2: "'cpsp' Capital Spacing in Lateinisch lookup 0 subtable" dx=5 dy=0 dh=10 dv=0
EndChar

StartChar: Utilde
Encoding: 360 360 120
Width: 654
Flags: MW
HStem: -12 120<286.5 367.5 286.5 412> 758 118<388 415 388 433> 804 118<223 253.5>
VStem: 68 138<230 680> 448 138<227 230 230 680>
LayerCount: 2
Fore
SplineSet
206 227 m 2xb8
 206 146 246 108 327 108 c 0
 408 108 448 147 448 227 c 2
 448 680 l 1
 586 680 l 1
 586 230 l 2
 586 60 497 -12 327 -12 c 0
 157 -12 68 60 68 230 c 2
 68 680 l 1
 206 680 l 1
 206 227 l 2xb8
484 918 m 1xd8
 513 821 l 1
 513 821 460 758 406 758 c 0xd8
 354 758 270 804 237 804 c 0
 209 804 157 762 157 762 c 1
 128 858 l 1
 128 858 182 922 235 922 c 0xb8
 296 922 374 876 402 876 c 0
 428 876 484 918 484 918 c 1xd8
EndSplineSet
Position2: "'cpsp' Capital Spacing in Lateinisch lookup 0 subtable" dx=5 dy=0 dh=10 dv=0
EndChar

StartChar: V
Encoding: 86 86 121
Width: 603
Flags: MW
HStem: 0 120<279 324 279 429 174 324>
VStem: 16 571<680 680>
LayerCount: 2
Fore
SplineSet
442 680 m 1
 587 680 l 1
 429 0 l 1
 174 0 l 1
 16 680 l 1
 161 680 l 1
 279 120 l 1
 324 120 l 1
 442 680 l 1
EndSplineSet
Position2: "'cpsp' Capital Spacing in Lateinisch lookup 0 subtable" dx=5 dy=0 dh=10 dv=0
EndChar

StartChar: W
Encoding: 87 87 122
Width: 930
Flags: MW
HStem: 0 118<248 263 248 358 149 263 667 682>
VStem: 19 892<680 680>
LayerCount: 2
Fore
SplineSet
19 680 m 1
 164 680 l 1
 248 118 l 1
 263 118 l 1
 385 680 l 1
 545 680 l 1
 667 118 l 1
 682 118 l 1
 766 680 l 1
 911 680 l 1
 781 0 l 1
 572 0 l 1
 465 517 l 1
 358 0 l 1
 149 0 l 1
 19 680 l 1
EndSplineSet
Position2: "'cpsp' Capital Spacing in Lateinisch lookup 0 subtable" dx=5 dy=0 dh=10 dv=0
EndChar

StartChar: Wacute
Encoding: 7810 7810 123
Width: 930
Flags: MW
HStem: 0 118<248 263 248 358 149 263 667 682>
VStem: 19 892<680 680>
LayerCount: 2
Fore
SplineSet
19 680 m 1
 164 680 l 1
 248 118 l 1
 263 118 l 1
 385 680 l 1
 545 680 l 1
 667 118 l 1
 682 118 l 1
 766 680 l 1
 911 680 l 1
 781 0 l 1
 572 0 l 1
 465 517 l 1
 358 0 l 1
 149 0 l 1
 19 680 l 1
329 839 m 1
 581 945 l 1
 622 825 l 1
 362 746 l 1
 329 839 l 1
EndSplineSet
Position2: "'cpsp' Capital Spacing in Lateinisch lookup 0 subtable" dx=5 dy=0 dh=10 dv=0
EndChar

StartChar: Wcircumflex
Encoding: 372 372 124
Width: 930
Flags: MW
HStem: 0 118<248 263 248 358 149 263 667 682> 765 149<273 524 407 415 516 516 516 524 407 658>
VStem: 19 892<680 680>
LayerCount: 2
Fore
SplineSet
19 680 m 1
 164 680 l 1
 248 118 l 1
 263 118 l 1
 385 680 l 1
 545 680 l 1
 667 118 l 1
 682 118 l 1
 766 680 l 1
 911 680 l 1
 781 0 l 1
 572 0 l 1
 465 517 l 1
 358 0 l 1
 149 0 l 1
 19 680 l 1
273 765 m 1
 407 914 l 1
 524 914 l 1
 658 765 l 1
 516 765 l 1
 467 821 l 1
 415 765 l 1
 273 765 l 1
EndSplineSet
Position2: "'cpsp' Capital Spacing in Lateinisch lookup 0 subtable" dx=5 dy=0 dh=10 dv=0
EndChar

StartChar: Wdieresis
Encoding: 7812 7812 125
Width: 930
Flags: MW
HStem: 0 118<248 263 248 358 149 263 667 682> 764 132<292 420 292 420 506 634 292 506>
VStem: 292 128<764 896 764 896> 506 128<764 896 764 896>
LayerCount: 2
Fore
SplineSet
19 680 m 1
 164 680 l 1
 248 118 l 1
 263 118 l 1
 385 680 l 1
 545 680 l 1
 667 118 l 1
 682 118 l 1
 766 680 l 1
 911 680 l 1
 781 0 l 1
 572 0 l 1
 465 517 l 1
 358 0 l 1
 149 0 l 1
 19 680 l 1
292 764 m 1
 292 896 l 1
 420 896 l 1
 420 764 l 1
 292 764 l 1
506 764 m 1
 506 896 l 1
 634 896 l 1
 634 764 l 1
 506 764 l 1
EndSplineSet
Position2: "'cpsp' Capital Spacing in Lateinisch lookup 0 subtable" dx=5 dy=0 dh=10 dv=0
EndChar

StartChar: Wgrave
Encoding: 7808 7808 126
Width: 930
Flags: MW
HStem: 0 118<248 263 248 358 149 263 667 682>
VStem: 19 892<680 680>
LayerCount: 2
Fore
SplineSet
19 680 m 1
 164 680 l 1
 248 118 l 1
 263 118 l 1
 385 680 l 1
 545 680 l 1
 667 118 l 1
 682 118 l 1
 766 680 l 1
 911 680 l 1
 781 0 l 1
 572 0 l 1
 465 517 l 1
 358 0 l 1
 149 0 l 1
 19 680 l 1
368 945 m 1
 620 839 l 1
 587 746 l 1
 327 825 l 1
 368 945 l 1
EndSplineSet
Position2: "'cpsp' Capital Spacing in Lateinisch lookup 0 subtable" dx=5 dy=0 dh=10 dv=0
EndChar

StartChar: X
Encoding: 88 88 127
Width: 569
Flags: MW
HStem: 0 21G<9 152 9 9 407 560 407 407>
VStem: 9 551<0 0>
LayerCount: 2
Fore
SplineSet
162 680 m 1
 288 430 l 1
 417 680 l 1
 560 680 l 1
 364 333 l 1
 560 0 l 1
 407 0 l 1
 281 235 l 1
 152 0 l 1
 9 0 l 1
 205 326 l 1
 9 680 l 1
 162 680 l 1
EndSplineSet
Position2: "'cpsp' Capital Spacing in Lateinisch lookup 0 subtable" dx=5 dy=0 dh=10 dv=0
EndChar

StartChar: Y
Encoding: 89 89 128
Width: 557
Flags: MW
HStem: 0 21G<210 348 210 210>
VStem: 210 138<0 275 0 275>
LayerCount: 2
Fore
SplineSet
348 275 m 1
 348 0 l 1
 210 0 l 1
 210 275 l 1
 0 680 l 1
 153 680 l 1
 278 409 l 1
 403 680 l 1
 556 680 l 1
 348 275 l 1
EndSplineSet
Position2: "'cpsp' Capital Spacing in Lateinisch lookup 0 subtable" dx=5 dy=0 dh=10 dv=0
EndChar

StartChar: Yacute
Encoding: 221 221 129
Width: 557
Flags: MW
HStem: 0 21G<210 348 210 210>
VStem: 210 138<0 275 0 275>
LayerCount: 2
Fore
SplineSet
348 275 m 1
 348 0 l 1
 210 0 l 1
 210 275 l 1
 0 680 l 1
 153 680 l 1
 278 409 l 1
 403 680 l 1
 556 680 l 1
 348 275 l 1
133 839 m 1
 385 945 l 1
 426 825 l 1
 166 746 l 1
 133 839 l 1
EndSplineSet
Position2: "'cpsp' Capital Spacing in Lateinisch lookup 0 subtable" dx=5 dy=0 dh=10 dv=0
EndChar

StartChar: Ycircumflex
Encoding: 374 374 130
Width: 557
Flags: MW
HStem: 0 21G<210 348 210 210> 765 149<88 339 222 230 331 331 331 339 222 473>
VStem: 210 138<0 275 0 275>
LayerCount: 2
Fore
SplineSet
348 275 m 1
 348 0 l 1
 210 0 l 1
 210 275 l 1
 0 680 l 1
 153 680 l 1
 278 409 l 1
 403 680 l 1
 556 680 l 1
 348 275 l 1
88 765 m 1
 222 914 l 1
 339 914 l 1
 473 765 l 1
 331 765 l 1
 282 821 l 1
 230 765 l 1
 88 765 l 1
EndSplineSet
Position2: "'cpsp' Capital Spacing in Lateinisch lookup 0 subtable" dx=5 dy=0 dh=10 dv=0
EndChar

StartChar: Ydieresis
Encoding: 376 376 131
Width: 557
Flags: MW
HStem: 0 21G<210 348 210 210> 764 132<105 233 105 233 319 447 105 319>
VStem: 105 128<764 896 764 896> 210 138<0 275 0 275> 319 128<764 896 764 896>
LayerCount: 2
Fore
SplineSet
348 275 m 1xd0
 348 0 l 1
 210 0 l 1
 210 275 l 1
 0 680 l 1
 153 680 l 1
 278 409 l 1
 403 680 l 1
 556 680 l 1
 348 275 l 1xd0
105 764 m 1xe8
 105 896 l 1
 233 896 l 1
 233 764 l 1
 105 764 l 1xe8
319 764 m 1
 319 896 l 1
 447 896 l 1
 447 764 l 1
 319 764 l 1
EndSplineSet
Position2: "'cpsp' Capital Spacing in Lateinisch lookup 0 subtable" dx=5 dy=0 dh=10 dv=0
EndChar

StartChar: Ygrave
Encoding: 7922 7922 132
Width: 557
Flags: MW
HStem: 0 21G<210 348 210 210>
VStem: 210 138<0 275 0 275>
LayerCount: 2
Fore
SplineSet
348 275 m 1
 348 0 l 1
 210 0 l 1
 210 275 l 1
 0 680 l 1
 153 680 l 1
 278 409 l 1
 403 680 l 1
 556 680 l 1
 348 275 l 1
182 945 m 1
 434 839 l 1
 401 746 l 1
 141 825 l 1
 182 945 l 1
EndSplineSet
Position2: "'cpsp' Capital Spacing in Lateinisch lookup 0 subtable" dx=5 dy=0 dh=10 dv=0
EndChar

StartChar: Z
Encoding: 90 90 133
Width: 532
Flags: MW
HStem: 0 120<207 491 207 491> 560 120<41 491 41 325 41 491>
VStem: 41 166<0 138 119 138> 325 166<560 560>
LayerCount: 2
Fore
SplineSet
41 560 m 1
 41 680 l 1
 491 680 l 1
 491 560 l 1
 207 138 l 1
 207 120 l 1
 491 120 l 1
 491 0 l 1
 41 0 l 1
 41 119 l 1
 325 542 l 1
 325 560 l 1
 41 560 l 1
EndSplineSet
Position2: "'cpsp' Capital Spacing in Lateinisch lookup 0 subtable" dx=5 dy=0 dh=10 dv=0
EndChar

StartChar: Zacute
Encoding: 377 377 134
Width: 532
Flags: MW
HStem: 0 120<207 491 207 491> 560 120<41 491 41 325 41 491>
VStem: 41 166<0 138 119 138> 325 166<560 560>
LayerCount: 2
Fore
SplineSet
41 560 m 1
 41 680 l 1
 491 680 l 1
 491 560 l 1
 207 138 l 1
 207 120 l 1
 491 120 l 1
 491 0 l 1
 41 0 l 1
 41 119 l 1
 325 542 l 1
 325 560 l 1
 41 560 l 1
121 839 m 1
 373 945 l 1
 414 825 l 1
 154 746 l 1
 121 839 l 1
EndSplineSet
Position2: "'cpsp' Capital Spacing in Lateinisch lookup 0 subtable" dx=5 dy=0 dh=10 dv=0
EndChar

StartChar: Zcaron
Encoding: 381 381 135
Width: 532
Flags: MW
HStem: 0 120<207 491 207 491> 560 120<41 491 41 325 41 491> 765 149<210 210 210 218 319 327>
VStem: 41 166<0 138 119 138> 325 166<560 560>
LayerCount: 2
Fore
SplineSet
41 560 m 1
 41 680 l 1
 491 680 l 1
 491 560 l 1
 207 138 l 1
 207 120 l 1
 491 120 l 1
 491 0 l 1
 41 0 l 1
 41 119 l 1
 325 542 l 1
 325 560 l 1
 41 560 l 1
210 765 m 1
 76 914 l 1
 218 914 l 1
 270 858 l 1
 319 914 l 1
 461 914 l 1
 327 765 l 1
 210 765 l 1
EndSplineSet
Position2: "'cpsp' Capital Spacing in Lateinisch lookup 0 subtable" dx=5 dy=0 dh=10 dv=0
EndChar

StartChar: Zdotaccent
Encoding: 379 379 136
Width: 532
Flags: MW
HStem: 0 120<207 491 207 491> 560 120<41 491 41 325 41 491> 767 135<199 333 199 333>
VStem: 41 166<0 138 119 138> 199 134<767 902 767 902> 325 166<560 560>
LayerCount: 2
Fore
SplineSet
41 560 m 1xe8
 41 680 l 1
 491 680 l 1
 491 560 l 1
 207 138 l 1
 207 120 l 1
 491 120 l 1
 491 0 l 1
 41 0 l 1
 41 119 l 1
 325 542 l 1
 325 560 l 1xf4
 41 560 l 1xe8
199 767 m 1xe8
 199 902 l 1
 333 902 l 1
 333 767 l 1
 199 767 l 1xe8
EndSplineSet
Position2: "'cpsp' Capital Spacing in Lateinisch lookup 0 subtable" dx=5 dy=0 dh=10 dv=0
EndChar

StartChar: g
Encoding: 103 103 139
Width: 534
Flags: MW
HStem: -230 110<241.5 311.5 241.5 342.5> -27 116 157 102<245.5 281 227 319.5> 398 104 406 104<227 275 194.5 281>
VStem: 37 132<-91.5 -68> 43 134<309.5 356.5 309.5 397.5> 72 128<109 116.5> 330 132<309.5 347.5 263 356.5> 380 135<-88 -51> 440 75<401 401>
LayerCount: 2
Fore
SplineSet
278 -230 m 0xf440
 132 -230 37 -203 37 -91 c 0xf440
 37 -45 59 -11 109 28 c 1
 87 43 72 73 72 104 c 0xf140
 72 129 111 184 111 184 c 1
 76 209 43 246 43 333 c 0
 43 462 136 510 253 510 c 0xea20
 297 510 354 497 354 497 c 1
 515 502 l 1
 515 395 l 1
 440 401 l 1xf220
 449 387 462 362 462 333 c 0
 462 193 388 157 251 157 c 0
 240 157 219 159 210 161 c 1
 210 161 200 135 200 122 c 0xf180
 200 96 212 90 297 89 c 0
 467 88 515 50 515 -62 c 0
 515 -184 407 -230 278 -230 c 0xf440
286 -27 m 0
 258 -27 196 -20 196 -20 c 1
 179 -37 169 -52 169 -77 c 0
 169 -106 204 -120 279 -120 c 0
 344 -120 380 -106 380 -70 c 0
 380 -32 360 -28 286 -27 c 0
254 259 m 0xea80
 308 259 330 286 330 333 c 0
 330 380 308 406 254 406 c 0
 200 406 177 380 177 333 c 0
 177 286 200 259 254 259 c 0xea80
EndSplineSet
EndChar

StartChar: h
Encoding: 104 104 140
Width: 553
Flags: MW
HStem: 0 21G<62 196 62 62 362 362 362 496> 392 120<292.5 319.5> 680 20G<62 196 196 196>
VStem: 62 134<0 376 476 700> 362 134<0 268 268 271 0 305.5>
LayerCount: 2
Fore
SplineSet
196 0 m 1
 62 0 l 1
 62 700 l 1
 196 700 l 1
 196 476 l 1
 196 476 265 512 320 512 c 0
 460 512 496 424 496 271 c 2
 496 0 l 1
 362 0 l 1
 362 268 l 2
 362 343 352 392 287 392 c 0
 243 392 196 376 196 376 c 1
 196 0 l 1
EndSplineSet
EndChar

StartChar: s
Encoding: 115 115 141
Width: 472
Flags: MW
HStem: -12 120<199 255 197.5 298.5> 391 120<210 265 176.5 268>
VStem: 36 133<339.5 364.5 339.5 406> 304 133<134 158>
LayerCount: 2
Fore
SplineSet
423 486 m 1
 421 375 l 1
 421 375 297 391 239 391 c 0
 181 391 169 378 169 351 c 0
 169 328 188 323 280 306 c 0
 396 285 437 251 437 150 c 0
 437 33 361 -12 236 -12 c 0
 162 -12 44 12 44 12 c 1
 48 124 l 1
 48 124 172 108 223 108 c 0
 287 108 304 121 304 147 c 0
 304 169 293 179 201 194 c 0
 93 212 36 238 36 348 c 0
 36 464 124 511 229 511 c 0
 301 511 423 486 423 486 c 1
EndSplineSet
EndChar

StartChar: endash
Encoding: 8211 8211 143
Width: 614
Flags: MW
HStem: 209 114<57 557 57 557>
VStem: 57 500<209 323 209 323>
LayerCount: 2
Fore
SplineSet
57 323 m 1
 557 323 l 1
 557 209 l 1
 57 209 l 1
 57 323 l 1
EndSplineSet
Substitution2: "'case' Case-Sensitive Forms in Lateinisch lookup 4 subtable" endash.cap
EndChar

StartChar: dollar
Encoding: 36 36 144
Width: 560
Flags: MW
HStem: -12 21G<279 280 279 279> -12 118<279 294 279 294> -7 21G<204 204> 554 118<275 290> 666 21G<364 364>
VStem: 52 133<469 505 469 544.5> 375 133<167 205.5>
LayerCount: 2
Fore
SplineSet
495 646 m 1x2e
 484 540 l 1
 484 540 411 548 349 552 c 1
 329 391 l 1
 466 347 508 307 508 199 c 0
 508 55 410 -12 280 -12 c 2
 279 -12 l 1x96
 264 -130 l 1
 264 -130 190 -127 190 -123 c 2
 204 -7 l 1
 131 1 60 18 60 18 c 1
 73 122 l 1
 73 122 152 111 219 107 c 1
 241 281 l 1
 104 322 52 374 52 476 c 0
 52 613 143 672 277 672 c 2
 290 672 l 1x36
 308 810 l 1
 382 810 l 1
 364 666 l 1
 432 659 495 646 495 646 c 1x2e
185 485 m 0
 185 453 200 437 258 415 c 1
 275 554 l 1
 214 551 185 525 185 485 c 0
375 190 m 0x4e
 375 221 361 240 313 259 c 1
 294 106 l 1
 350 112 375 144 375 190 c 0x4e
EndSplineSet
EndChar

StartChar: exclam
Encoding: 33 33 145
Width: 280
Flags: MW
HStem: 0 161<68 212 68 212>
VStem: 68 144<0 161 0 161> 74.5 131.5
LayerCount: 2
Fore
SplineSet
68 0 m 1xc0
 68 161 l 1
 212 161 l 1
 212 0 l 1
 68 0 l 1xc0
81 250 m 1xa0
 68 680 l 1
 213 680 l 1
 199 250 l 1
 81 250 l 1xa0
EndSplineSet
EndChar

StartChar: summation
Encoding: 8721 8721 146
Width: 560
Flags: MW
HStem: -180 120<176 530 176 530> 640 120<176 530 176 176>
VStem: 30 146<-60 -45 -60 -41 -60 -41 625 640>
LayerCount: 2
Fore
SplineSet
268 298 m 1
 30 620 l 1
 30 760 l 1
 530 760 l 1
 530 640 l 1
 176 640 l 1
 176 625 l 1
 391 344 l 1
 391 251 l 1
 176 -45 l 1
 176 -60 l 1
 530 -60 l 1
 530 -180 l 1
 30 -180 l 1
 30 -41 l 1
 268 298 l 1
EndSplineSet
EndChar

StartChar: a
Encoding: 97 97 147
Width: 511
Flags: MW
HStem: -12 109<195 221.5> 216 93 398 114<219 272>
VStem: 29 135<138.5 174 138.5 208.5> 311 134<136 220 220 220 313 344 136 365.5>
LayerCount: 2
Fore
SplineSet
445 344 m 2
 445 136 l 2
 447 106 451 94 478 89 c 1
 474 -12 l 1
 407 -12 373 -5 331 23 c 1
 331 23 259 -12 184 -12 c 0
 79 -12 29 46 29 152 c 0
 29 265 94 297 204 305 c 2
 311 313 l 1
 311 344 l 2
 311 387 292 398 252 398 c 0
 186 398 64 390 64 390 c 1
 60 483 l 1
 60 483 167 512 263 512 c 0
 393 512 445 461 445 344 c 2
311 220 m 1
 220 212 l 2
 185 209 164 192 164 156 c 0
 164 121 177 97 213 97 c 0
 256 97 311 113 311 113 c 1
 311 220 l 1
EndSplineSet
EndChar

StartChar: o
Encoding: 111 111 148
Width: 532
Flags: MW
HStem: -12 114<229 303 229 353> 398 114<229 303>
VStem: 36 136<202.5 299.5 202.5 328> 360 136<202.5 299.5>
LayerCount: 2
Fore
SplineSet
266 512 m 0
 440 512 496 405 496 251 c 0
 496 97 440 -12 266 -12 c 0
 92 -12 36 97 36 251 c 0
 36 405 92 512 266 512 c 0
266 102 m 0
 340 102 360 154 360 251 c 0
 360 348 340 398 266 398 c 0
 192 398 172 348 172 251 c 0
 172 154 192 102 266 102 c 0
EndSplineSet
EndChar

StartChar: n
Encoding: 110 110 149
Width: 553
Flags: MW
HStem: 0 21G<62 196 62 62 362 362 362 496> 392 120<291.5 319.5> 472 28<62 195>
VStem: 62 134<0 374> 362 134<0 267 267 271 0 305>
LayerCount: 2
Fore
SplineSet
196 0 m 1xb8
 62 0 l 1
 62 500 l 1
 195 500 l 1
 195 472 l 1xb8
 195 472 263 512 320 512 c 0
 460 512 496 424 496 271 c 2
 496 0 l 1
 362 0 l 1
 362 267 l 2
 362 343 352 392 287 392 c 0
 240 392 196 374 196 374 c 1xd8
 196 0 l 1xb8
EndSplineSet
EndChar

StartChar: numbersign
Encoding: 35 35 150
Width: 560
Flags: MW
HStem: 0 21G<112 228 112 112 332 448 332 332> 149 112<16 112 16 112 228 332 448 544> 387 112<16 112 16 112 228 332 448 544>
VStem: 112 116<0 149 0 149 261 387 499 660> 332 116<0 149 0 149 261 387 499 660>
LayerCount: 2
Fore
SplineSet
544 149 m 1
 448 149 l 1
 448 0 l 1
 332 0 l 1
 332 149 l 1
 228 149 l 1
 228 0 l 1
 112 0 l 1
 112 149 l 1
 16 149 l 1
 16 261 l 1
 112 261 l 1
 112 387 l 1
 16 387 l 1
 16 499 l 1
 112 499 l 1
 112 660 l 1
 228 660 l 1
 228 499 l 1
 332 499 l 1
 332 660 l 1
 448 660 l 1
 448 499 l 1
 544 499 l 1
 544 387 l 1
 448 387 l 1
 448 261 l 1
 544 261 l 1
 544 149 l 1
332 261 m 1
 332 387 l 1
 228 387 l 1
 228 261 l 1
 332 261 l 1
EndSplineSet
EndChar

StartChar: at
Encoding: 64 64 151
Width: 973
Flags: MW
HStem: -209 118<382 528 382 532> 0 112<726.5 769 726.5 813.5> 0 118<459.5 496 459.5 504> 475 13<565 699> 611 118<394.5 609>
VStem: 38 134<140 370.5 140 420> 283 136<206.5 297 206.5 332> 565 134<249 309 309 372 372 372 475 488> 810 134<297 305 192.5 306 192.5 413>
LayerCount: 2
Fore
SplineSet
944 305 m 2xdf80
 944 297 l 2
 944 88 876 0 751 0 c 0xdf80
 647 0 618 56 618 56 c 1
 618 56 538 0 470 0 c 0xbf80
 348 0 283 68 283 251 c 0
 283 413 330 500 474 500 c 0
 511 500 565 475 565 475 c 1
 565 488 l 1
 699 488 l 1
 699 309 l 2
 699 127 704 112 749 112 c 0
 789 112 810 148 810 297 c 2
 810 306 l 2
 810 520 715 611 503 611 c 0
 286 611 172 480 172 261 c 0
 172 19 261 -91 503 -91 c 0
 553 -91 646 -82 646 -82 c 1
 651 -199 l 1
 651 -199 561 -209 503 -209 c 0
 207 -209 38 -100 38 261 c 0
 38 579 227 729 503 729 c 0
 798 729 944 579 944 305 c 2xdf80
481 118 m 0xbf80
 511 118 548 132 571 143 c 1
 566 173 565 211 565 249 c 2
 565 372 l 1
 565 372 523 382 504 382 c 0
 432 382 419 343 419 251 c 0
 419 162 438 118 481 118 c 0xbf80
EndSplineSet
EndChar

StartChar: ydieresis
Encoding: 255 255 152
Width: 500
Flags: MW
HStem: -210 21G<178 309 178 178> 0 114<139 262 139 262> 480 20G<16 148 148 148 353 485 485 485> 596 132<79 207 79 207 295 423 79 295>
VStem: 79 128<596 728 596 728> 295 128<596 728 596 728>
LayerCount: 2
Fore
SplineSet
16 500 m 1
 148 500 l 1
 239 114 l 1
 262 114 l 1
 353 500 l 1
 485 500 l 1
 309 -210 l 1
 178 -210 l 1
 233 0 l 1
 139 0 l 1
 16 500 l 1
79 596 m 1
 79 728 l 1
 207 728 l 1
 207 596 l 1
 79 596 l 1
295 596 m 1
 295 728 l 1
 423 728 l 1
 423 596 l 1
 295 596 l 1
EndSplineSet
EndChar

StartChar: scaron
Encoding: 353 353 153
Width: 472
Flags: MW
HStem: -12 120<199 255 197.5 298.5> 391 120<210 265 176.5 268> 580 151<77 203 77 287>
VStem: 36 133<339.5 364.5 339.5 406> 304 133<134 158>
LayerCount: 2
Fore
SplineSet
423 486 m 1
 421 375 l 1
 421 375 297 391 239 391 c 0
 181 391 169 378 169 351 c 0
 169 328 188 323 280 306 c 0
 396 285 437 251 437 150 c 0
 437 33 361 -12 236 -12 c 0
 162 -12 44 12 44 12 c 1
 48 124 l 1
 48 124 172 108 223 108 c 0
 287 108 304 121 304 147 c 0
 304 169 293 179 201 194 c 0
 93 212 36 238 36 348 c 0
 36 464 124 511 229 511 c 0
 301 511 423 486 423 486 c 1
203 580 m 1
 77 731 l 1
 200 731 l 1
 246 664 l 1
 292 731 l 1
 415 731 l 1
 287 580 l 1
 203 580 l 1
EndSplineSet
EndChar

StartChar: yacute
Encoding: 253 253 154
Width: 500
Flags: MW
HStem: -210 21G<178 309 178 178> 0 114<139 262 139 262> 480 20G<16 148 148 148 353 485 485 485>
VStem: 16 469<500 500>
LayerCount: 2
Fore
SplineSet
16 500 m 1
 148 500 l 1
 239 114 l 1
 262 114 l 1
 353 500 l 1
 485 500 l 1
 309 -210 l 1
 178 -210 l 1
 233 0 l 1
 139 0 l 1
 16 500 l 1
122 651 m 1
 374 753 l 1
 414 638 l 1
 152 564 l 1
 122 651 l 1
EndSplineSet
EndChar

StartChar: zcaron
Encoding: 382 382 155
Width: 454
Flags: MW
HStem: 0 120<202 412 41 41> 380 120<41 412 41 251 41 412> 580 151<68 194 68 278>
VStem: 41 371<0 120 0 120 380 500>
LayerCount: 2
Fore
SplineSet
41 380 m 1
 41 500 l 1
 412 500 l 1
 412 380 l 1
 202 120 l 1
 412 120 l 1
 412 0 l 1
 41 0 l 1
 41 120 l 1
 251 380 l 1
 41 380 l 1
194 580 m 1
 68 731 l 1
 191 731 l 1
 237 664 l 1
 283 731 l 1
 406 731 l 1
 278 580 l 1
 194 580 l 1
EndSplineSet
EndChar

StartChar: degree
Encoding: 176 176 156
Width: 560
Flags: MW
HStem: 393 73<257.5 302.5 257.5 324.5> 619 73<257.5 302.5>
VStem: 130 75<519.5 564.5 519.5 586.5> 357 73<519.5 564.5>
LayerCount: 2
Fore
SplineSet
130 542 m 0
 130 631 191 692 280 692 c 0
 369 692 430 631 430 542 c 0
 430 453 369 393 280 393 c 0
 191 393 130 453 130 542 c 0
205 542 m 0
 205 497 235 466 280 466 c 0
 325 466 357 497 357 542 c 0
 357 587 325 619 280 619 c 0
 235 619 205 587 205 542 c 0
EndSplineSet
EndChar

StartChar: section
Encoding: 167 167 157
Width: 517
Flags: MW
HStem: -190 116<211 270 208.5 321.5> 522 116<243.5 307>
VStem: 37 135<218 237> 57 130<441.5 481 441.5 518> 335 128<-37.5 2.5> 339 136<218.5 238.5>
LayerCount: 2
Fore
SplineSet
450 614 m 1xd8
 444 506 l 1
 444 506 331 522 283 522 c 0
 204 522 187 505 187 457 c 0
 187 426 225 416 323 392 c 0
 438 364 475 339 475 241 c 0xd4
 475 196 453 142 425 102 c 1
 449 80 463 59 463 -7 c 0
 463 -137 397 -190 246 -190 c 0
 176 -190 60 -167 60 -167 c 1
 73 -59 l 1
 73 -59 181 -74 236 -74 c 0
 304 -74 335 -58 335 -17 c 0
 335 22 303 29 193 57 c 0
 82 85 37 115 37 213 c 0xe8
 37 261 70 322 101 347 c 1
 72 368 57 396 57 455 c 0
 57 581 134 638 274 638 c 0
 345 638 450 614 450 614 c 1xd8
258 285 m 0
 235 291 208 296 189 302 c 1
 181 290 172 259 172 238 c 0
 172 198 184 190 232 177 c 0xe8
 268 167 298 157 321 149 c 1
 331 162 339 198 339 222 c 0
 339 255 324 268 258 285 c 0
EndSplineSet
EndChar

StartChar: copyright
Encoding: 169 169 158
Width: 643
Flags: MW
HStem: 150 60<259 382.5 259 405> 269 95<327.5 356 327.5 358> 503 95<327 356> 658 60<260 382>
VStem: 46 62<373 495 373 516> 202 103<412.5 463.5 412.5 500> 535 62<372.5 495>
LayerCount: 2
Fore
SplineSet
46 434 m 0
 46 598 162 718 322 718 c 0
 490 718 597 588 597 434 c 0
 597 273 490 150 320 150 c 0
 163 150 46 274 46 434 c 0
108 434 m 0
 108 312 198 210 320 210 c 0
 445 210 535 311 535 434 c 0
 535 556 443 658 321 658 c 0
 199 658 108 556 108 434 c 0
407 369 m 1
 414 287 l 1
 414 287 386 269 330 269 c 0
 242 269 202 303 202 439 c 0
 202 561 242 598 334 598 c 0
 382 598 414 583 414 583 c 1
 407 497 l 1
 407 497 372 503 340 503 c 0
 314 503 305 488 305 439 c 0
 305 386 315 364 340 364 c 0
 372 364 407 369 407 369 c 1
EndSplineSet
EndChar

StartChar: trademark
Encoding: 8482 8482 159
Width: 660
Flags: MW
HStem: 331 313<80 305 305 387 514 514 514 596> 565 79<80 280 80 151 239 239 239 280>
VStem: 151 88<332 565 332 565> 305 82<331 505 331 644> 514 82<331 505 505 505>
LayerCount: 2
Fore
SplineSet
80 565 m 1x78
 80 644 l 1
 280 644 l 1
 280 565 l 1
 239 565 l 1
 239 332 l 1
 151 332 l 1
 151 565 l 1
 80 565 l 1x78
305 331 m 1
 305 644 l 1
 408 644 l 1x78
 449 486 l 1
 494 644 l 1
 596 644 l 1
 596 331 l 1
 514 331 l 1
 514 505 l 1
 480 352 l 1
 425 352 l 1xb8
 387 505 l 1
 387 331 l 1
 305 331 l 1
EndSplineSet
EndChar

StartChar: registered
Encoding: 174 174 160
Width: 643
Flags: MW
HStem: 150 60<261.5 383 261.5 405.5> 369 71<297 324 324 326 297 297> 519 72<296 296 296 323> 658 60<260.5 382>
VStem: 46 62<373 495 373 516> 201 96<276 369 276 591> 358 93<467.5 491> 535 62<372.5 495>
LayerCount: 2
Fore
SplineSet
46 434 m 0
 46 598 162 718 321 718 c 0
 490 718 597 588 597 434 c 0
 597 273 490 150 321 150 c 0
 163 150 46 274 46 434 c 0
108 434 m 0
 108 312 202 210 321 210 c 0
 445 210 535 311 535 434 c 0
 535 556 443 658 321 658 c 0
 200 658 108 556 108 434 c 0
354 276 m 1
 326 369 l 1
 297 369 l 1
 297 276 l 1
 201 276 l 1
 201 591 l 1
 337 591 l 2
 402 591 451 562 451 486 c 0
 451 434 442 410 413 386 c 1
 454 276 l 1
 354 276 l 1
296 519 m 1
 296 440 l 1
 324 440 l 2
 346 440 358 456 358 479 c 0
 358 503 347 519 323 519 c 2
 296 519 l 1
EndSplineSet
EndChar

StartChar: aacute
Encoding: 225 225 161
Width: 511
Flags: MW
HStem: -12 109<195 221.5> 216 93 398 114<219 272>
VStem: 29 135<138.5 174 138.5 208.5> 311 134<136 220 220 220 313 344 136 365.5>
LayerCount: 2
Fore
SplineSet
445 344 m 2
 445 136 l 2
 447 106 451 94 478 89 c 1
 474 -12 l 1
 407 -12 373 -5 331 23 c 1
 331 23 259 -12 184 -12 c 0
 79 -12 29 46 29 152 c 0
 29 265 94 297 204 305 c 2
 311 313 l 1
 311 344 l 2
 311 387 292 398 252 398 c 0
 186 398 64 390 64 390 c 1
 60 483 l 1
 60 483 167 512 263 512 c 0
 393 512 445 461 445 344 c 2
311 220 m 1
 220 212 l 2
 185 209 164 192 164 156 c 0
 164 121 177 97 213 97 c 0
 256 97 311 113 311 113 c 1
 311 220 l 1
96 651 m 1
 348 753 l 1
 388 638 l 1
 126 564 l 1
 96 651 l 1
EndSplineSet
EndChar

StartChar: agrave
Encoding: 224 224 162
Width: 511
Flags: MW
HStem: -12 109<195 221.5> 216 93 398 114<219 272>
VStem: 29 135<138.5 174 138.5 208.5> 311 134<136 220 220 220 313 344 136 365.5>
LayerCount: 2
Fore
SplineSet
445 344 m 2
 445 136 l 2
 447 106 451 94 478 89 c 1
 474 -12 l 1
 407 -12 373 -5 331 23 c 1
 331 23 259 -12 184 -12 c 0
 79 -12 29 46 29 152 c 0
 29 265 94 297 204 305 c 2
 311 313 l 1
 311 344 l 2
 311 387 292 398 252 398 c 0
 186 398 64 390 64 390 c 1
 60 483 l 1
 60 483 167 512 263 512 c 0
 393 512 445 461 445 344 c 2
311 220 m 1
 220 212 l 2
 185 209 164 192 164 156 c 0
 164 121 177 97 213 97 c 0
 256 97 311 113 311 113 c 1
 311 220 l 1
143 753 m 1
 395 651 l 1
 365 564 l 1
 103 638 l 1
 143 753 l 1
EndSplineSet
EndChar

StartChar: acircumflex
Encoding: 226 226 163
Width: 511
Flags: MW
HStem: -12 109<195 221.5> 216 93 398 114<219 272> 580 151<83 293 83 293 209 298 209 421>
VStem: 29 135<138.5 174 138.5 208.5> 311 134<136 220 220 220 313 344 136 365.5>
LayerCount: 2
Fore
SplineSet
445 344 m 2
 445 136 l 2
 447 106 451 94 478 89 c 1
 474 -12 l 1
 407 -12 373 -5 331 23 c 1
 331 23 259 -12 184 -12 c 0
 79 -12 29 46 29 152 c 0
 29 265 94 297 204 305 c 2
 311 313 l 1
 311 344 l 2
 311 387 292 398 252 398 c 0
 186 398 64 390 64 390 c 1
 60 483 l 1
 60 483 167 512 263 512 c 0
 393 512 445 461 445 344 c 2
311 220 m 1
 220 212 l 2
 185 209 164 192 164 156 c 0
 164 121 177 97 213 97 c 0
 256 97 311 113 311 113 c 1
 311 220 l 1
83 580 m 1
 209 731 l 1
 293 731 l 1
 421 580 l 1
 298 580 l 1
 252 647 l 1
 206 580 l 1
 83 580 l 1
EndSplineSet
EndChar

StartChar: adieresis
Encoding: 228 228 164
Width: 511
Flags: MW
HStem: -12 109<195 221.5> 216 93 398 114<219 272> 596 132<65 193 65 193 281 409 65 281>
VStem: 29 135<138.5 174 138.5 208.5> 65 128<596 728 596 728> 281 128<596 728 596 728> 311 134<136 220 220 220 313 344 136 365.5>
LayerCount: 2
Fore
SplineSet
445 344 m 2xf5
 445 136 l 2
 447 106 451 94 478 89 c 1
 474 -12 l 1
 407 -12 373 -5 331 23 c 1
 331 23 259 -12 184 -12 c 0
 79 -12 29 46 29 152 c 0xf9
 29 265 94 297 204 305 c 2
 311 313 l 1
 311 344 l 2
 311 387 292 398 252 398 c 0
 186 398 64 390 64 390 c 1
 60 483 l 1
 60 483 167 512 263 512 c 0
 393 512 445 461 445 344 c 2xf5
311 220 m 1
 220 212 l 2
 185 209 164 192 164 156 c 0
 164 121 177 97 213 97 c 0
 256 97 311 113 311 113 c 1
 311 220 l 1
65 596 m 1xf6
 65 728 l 1
 193 728 l 1
 193 596 l 1
 65 596 l 1xf6
281 596 m 1
 281 728 l 1
 409 728 l 1
 409 596 l 1
 281 596 l 1
EndSplineSet
EndChar

StartChar: atilde
Encoding: 227 227 165
Width: 511
Flags: MW
HStem: -12 109<195 221.5> 216 93 398 114<219 272> 585 104<271 298 271 315> 621 104<146 176.5> 665 21G<54 54>
VStem: 29 135<138.5 174 138.5 208.5> 311 134<136 220 220 220 313 344 136 365.5>
LayerCount: 2
Fore
SplineSet
445 344 m 2xe7
 445 136 l 2
 447 106 451 94 478 89 c 1
 474 -12 l 1
 407 -12 373 -5 331 23 c 1
 331 23 259 -12 184 -12 c 0
 79 -12 29 46 29 152 c 0
 29 265 94 297 204 305 c 2
 311 313 l 1
 311 344 l 2
 311 387 292 398 252 398 c 0
 186 398 64 390 64 390 c 1
 60 483 l 1
 60 483 167 512 263 512 c 0
 393 512 445 461 445 344 c 2xe7
311 220 m 1
 220 212 l 2
 185 209 164 192 164 156 c 0
 164 121 177 97 213 97 c 0
 256 97 311 113 311 113 c 1
 311 220 l 1
365 723 m 1xf3
 394 647 l 1
 394 647 341 585 289 585 c 0xf3
 247 585 193 621 160 621 c 0
 132 621 83 590 83 590 c 1xeb
 54 665 l 1xe7
 54 665 106 725 158 725 c 0xeb
 199 725 257 689 285 689 c 0
 311 689 365 723 365 723 c 1xf3
EndSplineSet
EndChar

StartChar: aring
Encoding: 229 229 166
Width: 511
Flags: MW
HStem: -12 109<195 221.5> 216 93 398 114<219 272> 521 71<252.5 279 252.5 297.5> 683 72<252.5 279>
VStem: 29 135<138.5 174 138.5 208.5> 148 72<624.5 651> 311 71<624.5 651> 311 134<136 220 220 220 313 344 136 365.5>
LayerCount: 2
Fore
SplineSet
445 344 m 2xec80
 445 136 l 2
 447 106 451 94 478 89 c 1
 474 -12 l 1
 407 -12 373 -5 331 23 c 1
 331 23 259 -12 184 -12 c 0
 79 -12 29 46 29 152 c 0
 29 265 94 297 204 305 c 2
 311 313 l 1
 311 344 l 2
 311 387 292 398 252 398 c 0
 186 398 64 390 64 390 c 1
 60 483 l 1
 60 483 167 512 263 512 c 0
 393 512 445 461 445 344 c 2xec80
311 220 m 1
 220 212 l 2
 185 209 164 192 164 156 c 0
 164 121 177 97 213 97 c 0
 256 97 311 113 311 113 c 1
 311 220 l 1
148 638 m 0xfb
 148 703 198 755 265 755 c 0
 330 755 382 703 382 638 c 0
 382 571 330 521 265 521 c 0
 198 521 148 571 148 638 c 0xfb
220 638 m 0
 220 611 239 592 266 592 c 0
 292 592 311 611 311 638 c 0
 311 664 292 683 266 683 c 0
 239 683 220 664 220 638 c 0
EndSplineSet
EndChar

StartChar: eacute
Encoding: 233 233 167
Width: 510
Flags: MW
HStem: -12 118<237 298.5> 193 102<172 344 171 466 172 172> 402 110<226 289.5>
VStem: 37 134<295 295 295 332> 344 132<295 335.5>
LayerCount: 2
Fore
SplineSet
273 106 m 0
 355 106 458 115 458 115 c 1
 460 16 l 1
 460 16 345 -12 252 -12 c 0
 101 -12 37 63 37 243 c 0
 37 421 112 512 258 512 c 0
 405 512 476 437 476 286 c 1
 466 193 l 1
 172 193 l 1
 173 133 201 106 273 106 c 0
171 295 m 1
 344 295 l 1
 344 376 321 402 258 402 c 0
 194 402 172 371 171 295 c 1
105 651 m 1
 357 753 l 1
 397 638 l 1
 135 564 l 1
 105 651 l 1
EndSplineSet
EndChar

StartChar: egrave
Encoding: 232 232 168
Width: 510
Flags: MW
HStem: -12 118<237 298.5> 193 102<172 344 171 466 172 172> 402 110<226 289.5>
VStem: 37 134<295 295 295 332> 344 132<295 335.5>
LayerCount: 2
Fore
SplineSet
273 106 m 0
 355 106 458 115 458 115 c 1
 460 16 l 1
 460 16 345 -12 252 -12 c 0
 101 -12 37 63 37 243 c 0
 37 421 112 512 258 512 c 0
 405 512 476 437 476 286 c 1
 466 193 l 1
 172 193 l 1
 173 133 201 106 273 106 c 0
171 295 m 1
 344 295 l 1
 344 376 321 402 258 402 c 0
 194 402 172 371 171 295 c 1
150 753 m 1
 402 651 l 1
 372 564 l 1
 110 638 l 1
 150 753 l 1
EndSplineSet
EndChar

StartChar: ecircumflex
Encoding: 234 234 169
Width: 510
Flags: MW
HStem: -12 118<237 298.5> 193 102<172 344 171 466 172 172> 402 110<226 289.5> 580 151<89 299 89 299 215 304 215 427>
VStem: 37 134<295 295 295 332> 344 132<295 335.5>
LayerCount: 2
Fore
SplineSet
273 106 m 0
 355 106 458 115 458 115 c 1
 460 16 l 1
 460 16 345 -12 252 -12 c 0
 101 -12 37 63 37 243 c 0
 37 421 112 512 258 512 c 0
 405 512 476 437 476 286 c 1
 466 193 l 1
 172 193 l 1
 173 133 201 106 273 106 c 0
171 295 m 1
 344 295 l 1
 344 376 321 402 258 402 c 0
 194 402 172 371 171 295 c 1
89 580 m 1
 215 731 l 1
 299 731 l 1
 427 580 l 1
 304 580 l 1
 258 647 l 1
 212 580 l 1
 89 580 l 1
EndSplineSet
EndChar

StartChar: edieresis
Encoding: 235 235 170
Width: 510
Flags: MW
HStem: -12 118<237 298.5> 193 102<172 344 171 466 172 172> 402 110<226 289.5> 596 132<84 212 84 212 300 428 84 300>
VStem: 37 134<295 295 295 332> 84 128<596 728 596 728> 300 128<596 728 596 728> 344 132<295 335.5>
LayerCount: 2
Fore
SplineSet
273 106 m 0xf6
 355 106 458 115 458 115 c 1
 460 16 l 1
 460 16 345 -12 252 -12 c 0
 101 -12 37 63 37 243 c 0
 37 421 112 512 258 512 c 0
 405 512 476 437 476 286 c 1
 466 193 l 1
 172 193 l 1xf9
 173 133 201 106 273 106 c 0xf6
171 295 m 1xf9
 344 295 l 1
 344 376 321 402 258 402 c 0
 194 402 172 371 171 295 c 1xf9
84 596 m 1xf6
 84 728 l 1
 212 728 l 1
 212 596 l 1
 84 596 l 1xf6
300 596 m 1
 300 728 l 1
 428 728 l 1
 428 596 l 1
 300 596 l 1
EndSplineSet
EndChar

StartChar: idieresis
Encoding: 239 239 171
Width: 258
Flags: MW
HStem: 596 132<-48 80 -48 80 168 296 -48 168>
VStem: -48 128<596 728 596 728> 168 128<596 728 596 728>
LayerCount: 2
Fore
SplineSet
62 500 m 1
 62 0 l 1
 196 0 l 1
 196 500 l 1
 62 500 l 1
-48 596 m 1
 -48 728 l 1
 80 728 l 1
 80 596 l 1
 -48 596 l 1
168 596 m 1
 168 728 l 1
 296 728 l 1
 296 596 l 1
 168 596 l 1
EndSplineSet
EndChar

StartChar: ntilde
Encoding: 241 241 172
Width: 553
Flags: MW
HStem: 585 104<328 355 328 372> 621 104<203 233.5> 665 21G<111 111>
VStem: 196 166<0 267 0 374 0 374>
LayerCount: 2
Fore
SplineSet
62 0 m 1x30
 196 0 l 1
 196 374 l 1
 196 374 240 392 287 392 c 0
 352 392 362 343 362 267 c 2
 362 0 l 1
 496 0 l 1
 496 271 l 2
 496 424 460 512 320 512 c 0
 263 512 195 472 195 472 c 1
 195 500 l 1
 62 500 l 1x90
 62 0 l 1x30
422 723 m 1
 451 647 l 1
 451 647 398 585 346 585 c 0x90
 304 585 250 621 217 621 c 0
 189 621 140 590 140 590 c 1x50
 111 665 l 1x30
 111 665 163 725 215 725 c 0x50
 256 725 314 689 342 689 c 0
 368 689 422 723 422 723 c 1
EndSplineSet
EndChar

StartChar: oacute
Encoding: 243 243 173
Width: 532
Flags: MW
HStem: -12 765<179 368>
VStem: 172 188<202.5 299.5>
LayerCount: 2
Fore
SplineSet
266 512 m 0
 92 512 36 405 36 251 c 0
 36 97 92 -12 266 -12 c 0
 440 -12 496 97 496 251 c 0
 496 405 440 512 266 512 c 0
266 102 m 0
 192 102 172 154 172 251 c 0
 172 348 192 398 266 398 c 0
 340 398 360 348 360 251 c 0
 360 154 340 102 266 102 c 0
116 651 m 1
 368 753 l 1
 408 638 l 1
 146 564 l 1
 116 651 l 1
EndSplineSet
EndChar

StartChar: ograve
Encoding: 242 242 174
Width: 532
Flags: MW
HStem: -12 114<229 303 229 353> 398 114<229 303>
VStem: 36 136<202.5 299.5 202.5 328> 360 136<202.5 299.5>
LayerCount: 2
Fore
SplineSet
266 512 m 0
 440 512 496 405 496 251 c 0
 496 97 440 -12 266 -12 c 0
 92 -12 36 97 36 251 c 0
 36 405 92 512 266 512 c 0
266 102 m 0
 340 102 360 154 360 251 c 0
 360 348 340 398 266 398 c 0
 192 398 172 348 172 251 c 0
 172 154 192 102 266 102 c 0
163 753 m 1
 415 651 l 1
 385 564 l 1
 123 638 l 1
 163 753 l 1
EndSplineSet
EndChar

StartChar: ocircumflex
Encoding: 244 244 175
Width: 532
Flags: MW
HStem: 580 151<91 301 91 301 217 306 217 429>
VStem: 172 188<202.5 299.5>
LayerCount: 2
Fore
SplineSet
266 512 m 0
 92 512 36 405 36 251 c 0
 36 97 92 -12 266 -12 c 0
 440 -12 496 97 496 251 c 0
 496 405 440 512 266 512 c 0
266 102 m 0
 192 102 172 154 172 251 c 0
 172 348 192 398 266 398 c 0
 340 398 360 348 360 251 c 0
 360 154 340 102 266 102 c 0
91 580 m 1
 217 731 l 1
 301 731 l 1
 429 580 l 1
 306 580 l 1
 260 647 l 1
 214 580 l 1
 91 580 l 1
EndSplineSet
EndChar

StartChar: odieresis
Encoding: 246 246 176
Width: 532
Flags: MW
HStem: 596 132<93 221 93 221 309 437 93 309>
VStem: 93 128<596 728 596 728> 172 188<202.5 299.5> 309 128<596 728 596 728>
LayerCount: 2
Fore
SplineSet
266 512 m 0xd0
 92 512 36 405 36 251 c 0
 36 97 92 -12 266 -12 c 0
 440 -12 496 97 496 251 c 0
 496 405 440 512 266 512 c 0xd0
266 102 m 0xa0
 192 102 172 154 172 251 c 0
 172 348 192 398 266 398 c 0
 340 398 360 348 360 251 c 0
 360 154 340 102 266 102 c 0xa0
93 596 m 1xd0
 93 728 l 1
 221 728 l 1
 221 596 l 1
 93 596 l 1xd0
309 596 m 1
 309 728 l 1
 437 728 l 1
 437 596 l 1
 309 596 l 1
EndSplineSet
EndChar

StartChar: otilde
Encoding: 245 245 177
Width: 532
Flags: MW
HStem: 512 177<308 335 308 353> 621 104<183 213.5> 665 21G<91 91>
VStem: 172 188<202.5 299.5>
LayerCount: 2
Fore
SplineSet
266 512 m 0x90
 92 512 36 405 36 251 c 0
 36 97 92 -12 266 -12 c 0
 440 -12 496 97 496 251 c 0
 496 405 440 512 266 512 c 0x90
266 102 m 0
 192 102 172 154 172 251 c 0
 172 348 192 398 266 398 c 0
 340 398 360 348 360 251 c 0
 360 154 340 102 266 102 c 0
402 723 m 1
 431 647 l 1
 431 647 378 585 326 585 c 0x90
 284 585 230 621 197 621 c 0
 169 621 120 590 120 590 c 1x50
 91 665 l 1x30
 91 665 143 725 195 725 c 0x50
 236 725 294 689 322 689 c 0
 348 689 402 723 402 723 c 1
EndSplineSet
EndChar

StartChar: uacute
Encoding: 250 250 178
Width: 553
Flags: MW
HStem: -12 765<160 382>
VStem: 191 166<236 500 126 500>
LayerCount: 2
Fore
SplineSet
491 500 m 1
 357 500 l 1
 357 126 l 1
 357 126 311 108 261 108 c 0
 195 108 191 147 191 236 c 2
 191 500 l 1
 57 500 l 1
 57 238 l 2
 57 69 87 -12 233 -12 c 0
 286 -12 358 28 358 28 c 1
 358 0 l 1
 491 0 l 1
 491 500 l 1
130 651 m 1
 382 753 l 1
 422 638 l 1
 160 564 l 1
 130 651 l 1
EndSplineSet
EndChar

StartChar: ugrave
Encoding: 249 249 179
Width: 553
Flags: MW
HStem: -12 120<228 259.5> 0 108<228 491 228 358> 480 20G<57 191 191 191 357 491 491 491>
VStem: 57 134<238 500> 357 134<126 500 0 500>
LayerCount: 2
Fore
SplineSet
357 500 m 1xb8
 491 500 l 1
 491 0 l 1
 358 0 l 1x78
 358 28 l 1
 358 28 286 -12 233 -12 c 0
 87 -12 57 69 57 238 c 2
 57 500 l 1
 191 500 l 1
 191 236 l 2
 191 147 195 108 261 108 c 0
 311 108 357 126 357 126 c 1
 357 500 l 1xb8
138 753 m 1
 390 651 l 1
 360 564 l 1
 98 638 l 1
 138 753 l 1
EndSplineSet
EndChar

StartChar: ucircumflex
Encoding: 251 251 180
Width: 553
Flags: MW
HStem: 580 151<82 292 82 292 208 297 208 420>
VStem: 191 166<236 500 126 500>
LayerCount: 2
Fore
SplineSet
491 500 m 1
 357 500 l 1
 357 126 l 1
 357 126 311 108 261 108 c 0
 195 108 191 147 191 236 c 2
 191 500 l 1
 57 500 l 1
 57 238 l 2
 57 69 87 -12 233 -12 c 0
 286 -12 358 28 358 28 c 1
 358 0 l 1
 491 0 l 1
 491 500 l 1
82 580 m 1
 208 731 l 1
 292 731 l 1
 420 580 l 1
 297 580 l 1
 251 647 l 1
 205 580 l 1
 82 580 l 1
EndSplineSet
EndChar

StartChar: udieresis
Encoding: 252 252 181
Width: 553
Flags: MW
HStem: 596 132<106 234 106 234 322 450 106 322>
VStem: 106 128<596 728 596 728> 191 166<236 500 126 500> 322 128<596 728 596 728>
LayerCount: 2
Fore
SplineSet
491 500 m 1xa0
 357 500 l 1
 357 126 l 1
 357 126 311 108 261 108 c 0
 195 108 191 147 191 236 c 2
 191 500 l 1
 57 500 l 1
 57 238 l 2
 57 69 87 -12 233 -12 c 0
 286 -12 358 28 358 28 c 1
 358 0 l 1
 491 0 l 1
 491 500 l 1xa0
106 596 m 1xd0
 106 728 l 1
 234 728 l 1
 234 596 l 1
 106 596 l 1xd0
322 596 m 1
 322 728 l 1
 450 728 l 1
 450 596 l 1
 322 596 l 1
EndSplineSet
EndChar

StartChar: minus
Encoding: 8722 8722 182
Width: 560
Flags: MW
HStem: 191 120<62 498 62 498>
VStem: 62 436<191 311 191 311>
LayerCount: 2
Fore
SplineSet
62 191 m 1
 62 311 l 1
 498 311 l 1
 498 191 l 1
 62 191 l 1
EndSplineSet
EndChar

StartChar: multiply
Encoding: 215 215 183
Width: 560
Flags: MW
HStem: 26 449<419 420>
VStem: 56 448<111 111>
LayerCount: 2
Fore
SplineSet
142 473 m 1
 280 332 l 1
 420 475 l 1
 504 390 l 1
 361 250 l 1
 504 111 l 1
 419 26 l 1
 280 168 l 1
 141 27 l 1
 56 111 l 1
 198 250 l 1
 57 388 l 1
 142 473 l 1
EndSplineSet
EndChar

StartChar: dotlessi
Encoding: 305 305 184
Width: 258
Flags: MW
HStem: 0 21G<62 62 62 196> 480 20G<62 196 196 196>
VStem: 62 134<0 500 0 500>
LayerCount: 2
Fore
SplineSet
62 0 m 1
 62 500 l 1
 196 500 l 1
 196 0 l 1
 62 0 l 1
EndSplineSet
EndChar

StartChar: iacute
Encoding: 237 237 185
Width: 258
Flags: MW
HStem: 0 753<62 283 196 283>
VStem: 31 292<638 651>
LayerCount: 2
Fore
SplineSet
31 651 m 1
 283 753 l 1
 323 638 l 1
 61 564 l 1
 31 651 l 1
62 500 m 1
 62 0 l 1
 196 0 l 1
 196 500 l 1
 62 500 l 1
EndSplineSet
EndChar

StartChar: igrave
Encoding: 236 236 186
Width: 258
Flags: MW
HStem: 0 21G<62 62 62 196> 480 20G<62 196 196 196>
VStem: 62 134<0 500 0 500>
LayerCount: 2
Fore
SplineSet
62 0 m 1
 62 500 l 1
 196 500 l 1
 196 0 l 1
 62 0 l 1
-19 753 m 1
 233 651 l 1
 203 564 l 1
 -59 638 l 1
 -19 753 l 1
EndSplineSet
EndChar

StartChar: icircumflex
Encoding: 238 238 187
Width: 258
Flags: MW
HStem: 580 151<-45 165 -45 165 81 170 81 293>
VStem: -45 338<580 580>
LayerCount: 2
Fore
SplineSet
62 500 m 1
 62 0 l 1
 196 0 l 1
 196 500 l 1
 62 500 l 1
-45 580 m 1
 81 731 l 1
 165 731 l 1
 293 580 l 1
 170 580 l 1
 124 647 l 1
 78 580 l 1
 -45 580 l 1
EndSplineSet
EndChar

StartChar: germandbls
Encoding: 223 223 188
Width: 611
Flags: MW
HStem: -12 118<353 402.5 351.5 458.5> 0 21G<62 196 62 62> 594 118<255 328>
VStem: 62 134<0 519> 232 138<371.5 389.5 371.5 400.5> 385 138<535 562.5> 450 138<133.5 159>
LayerCount: 2
Fore
SplineSet
196 0 m 1x74
 62 0 l 1
 62 522 l 2
 62 659 129 712 293 712 c 0
 443 712 523 669 523 555 c 0x74
 523 478 490 455 429 428 c 0
 379 406 370 398 370 381 c 0
 370 362 379 353 464 314 c 0
 552 273 588 245 588 164 c 0
 588 27 531 -12 386 -12 c 0
 320 -12 232 11 232 11 c 1
 236 118 l 1
 236 118 333 106 370 106 c 0
 435 106 450 123 450 144 c 0
 450 174 441 182 359 217 c 0
 265 257 232 296 232 368 c 0xba
 232 433 255 467 309 489 c 0
 373 515 385 525 385 545 c 0
 385 580 363 594 293 594 c 0
 217 594 196 571 196 519 c 2
 196 0 l 1x74
EndSplineSet
EndChar

StartChar: ccedilla
Encoding: 231 231 189
Width: 446
Flags: MW
HStem: -241 88<217.5 301> -230 21G<174 174> -105 68<202 255 202 255> -12 21G -9 21G<202 202> 392 120<240 278 174.5 307> 492 20G<174.5 278>
VStem: 38 136<199 305> 202 53<-37 -12 -37 -9 -37 -9> 264 114<-135.5 -118.5>
LayerCount: 2
Fore
SplineSet
378 -127 m 0xacc0
 378 -205 335 -241 267 -241 c 0x8c80
 224 -241 174 -230 174 -230 c 1x4c80
 178 -152 l 1
 178 -152 209 -153 226 -153 c 0
 253 -153 264 -144 264 -127 c 0
 264 -110 253 -105 226 -105 c 2xacc0
 202 -105 l 1x6c80
 202 -9 l 1x4c80
 85 6 38 87 38 255 c 0
 38 432 100 512 249 512 c 0x4d80
 307 512 409 490 409 490 c 1x4a80
 405 384 l 1
 405 384 326 392 288 392 c 0
 192 392 174 355 174 255 c 0x4d80
 174 143 193 108 289 108 c 0
 327 108 405 116 405 116 c 1
 409 9 l 1
 409 9 312 -10 255 -12 c 1x5480
 255 -37 l 1x6c80
 333 -38 378 -52 378 -127 c 0xacc0
EndSplineSet
EndChar

StartChar: lslash
Encoding: 322 322 190
Width: 381
Flags: MW
HStem: 0 21G<119 119 119 253> 680 20G<119 253 253 253>
VStem: 119 134<0 218 218 218 448 700>
LayerCount: 2
Fore
SplineSet
119 0 m 1
 119 218 l 1
 68 183 l 1
 3 273 l 1
 119 354 l 1
 119 700 l 1
 253 700 l 1
 253 448 l 1
 316 492 l 1
 381 402 l 1
 253 312 l 1
 253 0 l 1
 119 0 l 1
EndSplineSet
EndChar

StartChar: eth
Encoding: 240 240 191
Width: 567
Flags: MW
HStem: -9 120<239.5 309 239.5 364> 320 118<234.5 290.5 181.5 300> 661 21G<459 459> 692 20G<100 100>
VStem: 38 142<184 242 184 283> 386 142<230 298 226.5 414>
LayerCount: 2
Fore
SplineSet
168 467 m 1
 114 543 l 1
 190 594 l 1
 159 602 123 610 82 618 c 1
 100 712 l 1
 180 706 250 693 309 673 c 1
 405 737 l 1
 459 661 l 1
 405 625 l 1
 485 568 528 479 528 347 c 0
 528 106 455 -9 273 -9 c 0
 120 -9 38 64 38 216 c 0
 38 350 107 438 256 438 c 0
 325 438 386 414 386 414 c 1
 380 473 359 518 297 553 c 1
 168 467 l 1
264 320 m 0
 205 320 180 268 180 216 c 0
 180 152 206 111 273 111 c 0
 345 111 386 162 386 298 c 1
 386 298 336 320 264 320 c 0
EndSplineSet
EndChar

StartChar: Thorn
Encoding: 222 222 192
Width: 596
Flags: MW
HStem: 0 21G<74 212 74 74> 99 134<212 323 323 324 212 323> 460 132<212 323 212 324>
VStem: 74 138<0 99 233 460 592 690> 428 140<315.5 390>
LayerCount: 2
Fore
SplineSet
323 233 m 2
 392 233 428 278 428 353 c 0
 428 427 392 460 323 460 c 2
 212 460 l 1
 212 233 l 1
 323 233 l 2
324 99 m 2
 212 99 l 1
 212 0 l 1
 74 0 l 1
 74 690 l 1
 212 690 l 1
 212 592 l 1
 324 592 l 2
 484 592 568 513 568 353 c 0
 568 193 484 99 324 99 c 2
EndSplineSet
Position2: "'cpsp' Capital Spacing in Lateinisch lookup 0 subtable" dx=5 dy=0 dh=10 dv=0
EndChar

StartChar: oslash
Encoding: 248 248 193
Width: 532
Flags: MW
HStem: -12 114<262.5 303 262.5 353> -6 21G<203 203> 398 114<229 268> 487 20G<322 322>
VStem: 36 136<231.5 299.5 231.5 328> 360 136<202.5 272>
LayerCount: 2
Fore
SplineSet
266 512 m 0xac
 286 512 305 510 322 507 c 1
 362 607 l 1
 443 577 l 1
 402 479 l 1
 471 436 496 354 496 251 c 0
 496 97 440 -12 266 -12 c 0x9c
 243 -12 222 -10 203 -6 c 1x6c
 162 -108 l 1
 82 -78 l 1
 125 25 l 1
 60 69 36 150 36 251 c 0
 36 405 92 512 266 512 c 0xac
266 102 m 0
 340 102 360 154 360 251 c 0
 360 293 356 326 346 350 c 1
 246 103 l 1
 252 102 259 102 266 102 c 0
266 398 m 0
 192 398 172 348 172 251 c 0
 172 212 175 180 184 156 c 1
 279 397 l 2
 275 397 270 398 266 398 c 0
EndSplineSet
EndChar

StartChar: zero.pnum
Encoding: 65540 -1 194
Width: 536
Flags: MW
HStem: -9 114<235 301 235 336.5> 395 114<235 301>
VStem: 41 125<187.5 305 187.5 343> 370 125<187.5 305>
LayerCount: 2
Fore
SplineSet
268 509 m 0
 404 509 495 443 495 243 c 0
 495 43 405 -9 268 -9 c 0
 131 -9 41 43 41 243 c 0
 41 443 132 509 268 509 c 0
268 395 m 0
 202 395 166 367 166 243 c 0
 166 132 202 105 268 105 c 0
 334 105 370 132 370 243 c 0
 370 367 334 395 268 395 c 0
EndSplineSet
Substitution2: "'frac' Diagonal Fractions in Lateinisch lookup 1 subtable" zerosuperior
EndChar

StartChar: one.pnum
Encoding: 65541 -1 195
Width: 396
Flags: MW
HStem: 0 21G<206 331 206 206> 480 20G<226 331 331 331>
VStem: 206 125<0 355 355 355>
LayerCount: 2
Fore
SplineSet
13 379 m 1
 226 500 l 1
 331 500 l 1
 331 0 l 1
 206 0 l 1
 206 355 l 1
 59 278 l 1
 13 379 l 1
EndSplineSet
Substitution2: "'frac' Diagonal Fractions in Lateinisch lookup 1 subtable" onesuperior
EndChar

StartChar: two.pnum
Encoding: 65542 -1 196
Width: 487
Flags: MW
HStem: 0 115<225 445 225 445> 389 120<203.5 235>
VStem: 304 135<321 361>
LayerCount: 2
Fore
SplineSet
445 0 m 1
 44 0 l 1
 44 109 l 1
 171 200 l 2
 271 271 304 301 304 341 c 0
 304 381 273 389 197 389 c 0
 165 389 52 376 52 375 c 2
 44 489 l 1
 44 489 164 509 243 509 c 0
 351 509 439 475 439 360 c 0
 439 273 395 234 308 173 c 2
 225 115 l 1
 445 115 l 1
 445 0 l 1
EndSplineSet
Substitution2: "'frac' Diagonal Fractions in Lateinisch lookup 1 subtable" twosuperior
EndChar

StartChar: three.pnum
Encoding: 65543 -1 197
Width: 481
Flags: MW
HStem: -9 21G<200.5 298> -9 125<201.5 272 201.5 298> 197 110<106 237 237 238 106 237> 390 120<197 253.5>
VStem: 301 125<350.5 365> 316 125<145.5 175>
LayerCount: 2
Fore
SplineSet
44 491 m 1x74
 44 491 159 510 235 510 c 0
 353 510 426 479 426 386 c 0x78
 426 315 393 285 362 267 c 1
 394 253 441 218 441 147 c 0
 441 38 354 -9 242 -9 c 0x74
 159 -9 36 13 36 13 c 1xb4
 51 127 l 1
 51 127 161 116 242 116 c 0
 302 116 316 131 316 160 c 0
 316 190 281 197 238 197 c 2x74
 106 197 l 1
 106 307 l 1
 237 307 l 2
 270 307 301 317 301 350 c 0
 301 380 271 390 236 390 c 0x78
 149 390 56 379 56 379 c 1
 44 491 l 1x74
EndSplineSet
Substitution2: "'frac' Diagonal Fractions in Lateinisch lookup 1 subtable" threesuperior
EndChar

StartChar: four.pnum
Encoding: 65544 -1 198
Width: 484
Flags: MW
HStem: 0 202<166 288 166 413> 82 120<166 288 166 288 413 454> 480 20G<155 288 288 288>
VStem: 288 125<0 82 0 82 202 316>
LayerCount: 2
Fore
SplineSet
288 0 m 1xb0
 288 82 l 1
 29 82 l 1
 29 172 l 1x70
 155 500 l 1
 288 500 l 1
 166 202 l 1
 288 202 l 1
 288 316 l 1
 413 316 l 1
 413 202 l 1
 454 202 l 1xb0
 454 82 l 1
 413 82 l 1x70
 413 0 l 1
 288 0 l 1xb0
EndSplineSet
Substitution2: "'frac' Diagonal Fractions in Lateinisch lookup 1 subtable" foursuperior
EndChar

StartChar: five.pnum
Encoding: 65545 -1 199
Width: 506
Flags: MW
HStem: -9 122<215 276 215 327.5> 205 118<243.5 275.5> 372 132<188 449 188 188>
VStem: 331 138<138.5 173.5>
LayerCount: 2
Fore
SplineSet
74 504 m 1
 449 504 l 1
 449 372 l 1
 188 372 l 1
 176 305 l 1
 176 305 220 323 267 323 c 0
 398 323 469 267 469 163 c 0
 469 59 398 -9 257 -9 c 0
 168 -9 37 23 37 23 c 1
 52 137 l 1
 52 137 178 113 252 113 c 0
 300 113 331 122 331 155 c 0
 331 192 302 205 249 205 c 0
 208 205 151 184 151 184 c 1
 52 203 l 1
 74 504 l 1
EndSplineSet
Substitution2: "'frac' Diagonal Fractions in Lateinisch lookup 1 subtable" fivesuperior
EndChar

StartChar: six.pnum
Encoding: 65546 -1 200
Width: 511
Flags: MW
HStem: -10 110<233 284 233 317.5> 207 117<265.5 290.5> 399 110<239.5 301>
VStem: 41 125<195 195 297 336.5> 353 125<134.5 176.5>
LayerCount: 2
Fore
SplineSet
450 494 m 1
 441 390 l 1
 441 390 333 399 269 399 c 0
 210 399 166 376 166 297 c 1
 196 309 245 324 286 324 c 0
 401 324 478 279 478 157 c 0
 478 49 382 -10 253 -10 c 0
 116 -10 41 63 41 254 c 0
 41 444 147 509 269 509 c 0
 363 509 450 494 450 494 c 1
265 207 m 0
 225 207 166 195 166 195 c 1
 168 132 203 100 263 100 c 0
 305 100 353 112 353 157 c 0
 353 196 316 207 265 207 c 0
EndSplineSet
Substitution2: "'frac' Diagonal Fractions in Lateinisch lookup 1 subtable" sixsuperior
EndChar

StartChar: seven.pnum
Encoding: 65547 -1 201
Width: 421
Flags: MW
HStem: -9 21G<197 197> 390 110<27 394 27 275>
VStem: 275 119<367 390 390 390>
LayerCount: 2
Fore
SplineSet
27 390 m 1
 27 500 l 1
 394 500 l 1
 394 367 l 1
 197 -9 l 1
 90 20 l 1
 275 367 l 1
 275 390 l 1
 27 390 l 1
EndSplineSet
Substitution2: "'frac' Diagonal Fractions in Lateinisch lookup 1 subtable" sevensuperior
EndChar

StartChar: eight.pnum
Encoding: 65548 -1 202
Width: 502
Flags: MW
HStem: -10 108<225 277 225 309> 207 95<221 281 221 281> 401 108<223.5 278.5>
VStem: 40 125<130.5 163.5 130.5 171> 52 125<341 367.5 341 418> 325 125<342 368.5> 337 125<130.5 164>
LayerCount: 2
Fore
SplineSet
251 509 m 0xec
 369 509 450 468 450 368 c 0xf4
 450 310 418 281 386 261 c 1
 426 236 462 214 462 136 c 0
 462 33 367 -10 251 -10 c 0
 135 -10 40 33 40 136 c 0xf2
 40 206 76 238 116 261 c 1
 84 281 52 309 52 368 c 0
 52 468 133 509 251 509 c 0xec
251 98 m 0xf2
 303 98 337 113 337 148 c 0
 337 180 317 195 281 207 c 1
 221 207 l 1
 185 194 165 179 165 148 c 0
 165 113 199 98 251 98 c 0xf2
251 401 m 0xec
 196 401 177 378 177 357 c 0
 177 325 195 312 221 302 c 1
 281 302 l 1
 307 311 325 326 325 358 c 0
 325 379 306 401 251 401 c 0xec
EndSplineSet
Substitution2: "'frac' Diagonal Fractions in Lateinisch lookup 1 subtable" eightsuperior
EndChar

StartChar: nine.pnum
Encoding: 65549 -1 203
Width: 486
Flags: MW
HStem: -9 21G<173.5 286> -9 112<184 254 184 286> 186 108<207 251.5> 400 110<206.5 257.5>
VStem: 35 125<329 363.5 329 395.5> 319 127<173 204.5>
LayerCount: 2
Fore
SplineSet
55 13 m 1xbc
 67 116 l 1
 67 116 144 103 224 103 c 0
 284 103 319 142 319 204 c 0
 319 205 284 186 219 186 c 0
 91 186 35 243 35 341 c 0
 35 450 118 510 236 510 c 0
 364 510 446 434 446 251 c 0
 446 58 348 -9 224 -9 c 0x7c
 123 -9 55 13 55 13 c 1xbc
230 294 m 0
 285 294 313 311 313 311 c 1
 312 367 284 400 231 400 c 0
 182 400 160 384 160 343 c 0
 160 315 184 294 230 294 c 0
EndSplineSet
Substitution2: "'frac' Diagonal Fractions in Lateinisch lookup 1 subtable" ninesuperior
EndChar

StartChar: brokenbar
Encoding: 166 166 204
Width: 272
Flags: MW
HStem: -210 21G<69 203 69 69> 680 20G<69 203 203 203>
VStem: 69 134<-210 170 -210 170 328 700>
LayerCount: 2
Fore
SplineSet
69 700 m 1
 203 700 l 1
 203 328 l 1
 69 328 l 1
 69 700 l 1
69 170 m 1
 203 170 l 1
 203 -210 l 1
 69 -210 l 1
 69 170 l 1
EndSplineSet
EndChar

StartChar: plusminus
Encoding: 177 177 205
Width: 560
Flags: MW
HStem: 19 120<50 510 50 510> 270 120<50 219 50 219 339 510>
VStem: 219 120<170 270 170 270 390 498>
LayerCount: 2
Fore
SplineSet
50 270 m 1
 50 390 l 1
 219 390 l 1
 219 498 l 1
 339 498 l 1
 339 390 l 1
 510 390 l 1
 510 270 l 1
 339 270 l 1
 339 170 l 1
 219 170 l 1
 219 270 l 1
 50 270 l 1
50 139 m 1
 510 139 l 1
 510 19 l 1
 50 19 l 1
 50 139 l 1
EndSplineSet
EndChar

StartChar: pi
Encoding: 960 960 206
Width: 560
Flags: MW
HStem: -10 114<494 523 494 523> 0 21G<74 209 74 74> 386 114<90.5 419 235 320 235 235> 492 20G<528 528>
VStem: 320 134<154 386 386 386>
LayerCount: 2
Fore
SplineSet
320 154 m 2x68
 320 386 l 1
 235 386 l 1
 209 0 l 1
 74 0 l 1
 106 386 l 1
 75 386 18 373 18 373 c 1
 18 482 l 1
 18 482 82 500 168 500 c 2
 419 500 l 2x68
 476 500 528 512 528 512 c 1
 528 402 l 1
 528 402 504 391 454 388 c 1
 454 154 l 2
 454 121 465 104 523 104 c 1
 523 -10 l 1x98
 342 -10 320 20 320 154 c 2x68
EndSplineSet
EndChar

StartChar: bullet
Encoding: 8226 8226 207
Width: 450
Flags: MW
HStem: 100 280<100 350 100 350>
VStem: 100 250<100 380 100 380>
LayerCount: 2
Fore
SplineSet
100 100 m 1
 100 380 l 1
 350 380 l 1
 350 100 l 1
 100 100 l 1
EndSplineSet
EndChar

StartChar: ordfeminine
Encoding: 170 170 208
Width: 416
Flags: MW
HStem: 314 88<115 198> 456.5 70 565 94<170 206.5>
VStem: 42 115<418.5 437 418.5 457> 236 115<418 458 458 458 528 544 403 550 403 555>
LayerCount: 2
Fore
SplineSet
351 544 m 2
 351 403 l 1
 355 400 364 396 369 395 c 1
 367 313 l 1
 268 313 254 325 240 346 c 1
 240 346 198 314 151 314 c 0
 79 314 42 357 42 424 c 0
 42 490 84 521 169 525 c 2
 236 528 l 1
 236 550 l 2
 236 560 221 565 192 565 c 0
 148 565 61 558 61 558 c 1
 58 633 l 1
 58 633 128 659 199 659 c 0
 293 659 351 638 351 544 c 2
236 458 m 1
 189 455 l 2
 168 453 157 446 157 428 c 0
 157 409 167 402 188 402 c 0
 208 402 236 418 236 418 c 1
 236 458 l 1
EndSplineSet
EndChar

StartChar: ordmasculine
Encoding: 186 186 209
Width: 420
Flags: MW
HStem: 314 105<191 231 191 266.5> 555 104<191 231>
VStem: 40 120<465 511 465 548> 259 121<465 511>
LayerCount: 2
Fore
SplineSet
211 659 m 0
 322 659 380 607 380 489 c 0
 380 370 322 314 211 314 c 0
 99 314 40 370 40 489 c 0
 40 607 99 659 211 659 c 0
211 419 m 0
 251 419 259 442 259 488 c 0
 259 534 251 555 211 555 c 0
 171 555 160 534 160 488 c 0
 160 442 171 419 211 419 c 0
EndSplineSet
EndChar

StartChar: quotedblleft
Encoding: 8220 8220 210
Width: 443
Flags: MW
HStem: 432 247<120 175 35 223 219 223 304 359 219 219>
VStem: 35 372<432 679>
LayerCount: 2
Fore
SplineSet
407 679 m 1
 359 432 l 1
 219 432 l 1
 304 679 l 1
 407 679 l 1
223 679 m 1
 175 432 l 1
 35 432 l 1
 120 679 l 1
 223 679 l 1
EndSplineSet
EndChar

StartChar: asciitilde
Encoding: 126 126 211
Width: 560
Flags: MW
HStem: 170 120<363 406.5 363 414> 214 120<156 199>
VStem: 61 436<221 282>
LayerCount: 2
Fore
SplineSet
489 328 m 1xa0
 497 221 l 1
 497 221 444 170 384 170 c 0xa0
 330 170 218 214 180 214 c 0
 132 214 71 175 71 175 c 1
 61 282 l 1
 61 282 124 334 184 334 c 0x60
 238 334 339 290 387 290 c 0
 426 290 489 328 489 328 c 1xa0
EndSplineSet
EndChar

StartChar: emdash
Encoding: 8212 8212 212
Width: 1114
Flags: MW
HStem: 209 114<57 1057 57 1057>
VStem: 57 1000<209 323 209 323>
LayerCount: 2
Fore
SplineSet
57 323 m 1
 1057 323 l 1
 1057 209 l 1
 57 209 l 1
 57 323 l 1
EndSplineSet
Substitution2: "'case' Case-Sensitive Forms in Lateinisch lookup 4 subtable" emdash.cap
EndChar

StartChar: six
Encoding: 54 54 213
Width: 560
Flags: MW
HStem: -12 120<246 320 246 362.5> 303 120<279 322> 552 120<264.5 352>
VStem: 35 141<233 281 233 453> 388 142<177 240>
LayerCount: 2
Fore
SplineSet
508 643 m 1
 496 537 l 1
 496 537 394 552 310 552 c 0
 219 552 177 489 177 398 c 0
 177 397 255 423 303 423 c 0
 452 423 530 358 530 209 c 0
 530 60 437 -12 288 -12 c 0
 112 -12 35 117 35 327 c 0
 35 579 141 672 310 672 c 0
 394 672 508 643 508 643 c 1
291 303 m 0
 237 303 176 281 176 281 c 1
 176 185 204 108 288 108 c 0
 352 108 388 145 388 209 c 0
 388 271 353 303 291 303 c 0
EndSplineSet
Substitution2: "'frac' Diagonal Fractions in Lateinisch lookup 1 subtable" sixsuperior
EndChar

StartChar: nine
Encoding: 57 57 214
Width: 560
Flags: MW
HStem: -12 120<206 293.5 206 332.5> 240 120<236.5 279> 552 120<238 312>
VStem: 28 142<420.5 483 420.5 520.5> 381 142<219.5 270.5>
LayerCount: 2
Fore
SplineSet
50 17 m 1
 62 123 l 1
 62 123 164 108 248 108 c 0
 339 108 381 169 381 270 c 0
 381 271 303 240 255 240 c 0
 112 240 28 308 28 451 c 0
 28 590 121 672 270 672 c 0
 444 672 523 543 523 334 c 0
 523 72 417 -12 248 -12 c 0
 164 -12 50 17 50 17 c 1
267 360 m 0
 321 360 382 383 382 383 c 1
 382 476 354 552 270 552 c 0
 206 552 170 515 170 451 c 0
 170 390 206 360 267 360 c 0
EndSplineSet
Substitution2: "'frac' Diagonal Fractions in Lateinisch lookup 1 subtable" ninesuperior
EndChar

StartChar: yen
Encoding: 165 165 215
Width: 560
Flags: MW
HStem: 0 21G<213 351 213 213> 134 112<58 213 58 213 351 502> 291 112<58 150 58 150 58 213 413 502>
VStem: 213 138<0 134 0 134 246 291>
LayerCount: 2
Fore
SplineSet
58 291 m 1
 58 403 l 1
 150 403 l 1
 5 660 l 1
 158 660 l 1
 281 449 l 1
 403 660 l 1
 556 660 l 1
 413 403 l 1
 502 403 l 1
 502 291 l 1
 351 291 l 1
 351 246 l 1
 502 246 l 1
 502 134 l 1
 351 134 l 1
 351 0 l 1
 213 0 l 1
 213 134 l 1
 58 134 l 1
 58 246 l 1
 213 246 l 1
 213 291 l 1
 58 291 l 1
EndSplineSet
EndChar

StartChar: less
Encoding: 60 60 216
Width: 560
Flags: MW
HStem: 10 479<472 472>
VStem: 66 406<10 306 10 306>
LayerCount: 2
Fore
SplineSet
472 353 m 1
 211 254 l 1
 472 146 l 1
 472 10 l 1
 66 196 l 1
 66 306 l 1
 472 489 l 1
 472 353 l 1
EndSplineSet
EndChar

StartChar: greater
Encoding: 62 62 217
Width: 560
Flags: MW
HStem: 10 479<88 88>
VStem: 88 406<10 306 146 306 196 489 196 489>
LayerCount: 2
Fore
SplineSet
349 254 m 1
 88 353 l 1
 88 489 l 1
 494 306 l 1
 494 196 l 1
 88 10 l 1
 88 146 l 1
 349 254 l 1
EndSplineSet
EndChar

StartChar: bracketleft
Encoding: 91 91 218
Width: 355
Flags: MW
HStem: -123 120<205 320 205 320> 629 120<205 320 205 205>
VStem: 68 137<-3 629 -3 749 -3 749>
LayerCount: 2
Fore
SplineSet
320 749 m 1
 320 629 l 1
 205 629 l 1
 205 -3 l 1
 320 -3 l 1
 320 -123 l 1
 68 -123 l 1
 68 749 l 1
 320 749 l 1
EndSplineSet
Substitution2: "'case' Case-Sensitive Forms in Lateinisch lookup 4 subtable" bracketleft.cap
EndChar

StartChar: backslash
Encoding: 92 92 219
Width: 498
Flags: MW
HStem: 664 21G<32 32>
VStem: 32 434
LayerCount: 2
Fore
SplineSet
466 13 m 1
 350 -36 l 1
 32 664 l 1
 146 716 l 1
 466 13 l 1
EndSplineSet
EndChar

StartChar: bracketright
Encoding: 93 93 220
Width: 355
Flags: MW
HStem: -123 120<35 150 35 287 35 150> 629 120<35 287 35 150>
VStem: 150 137<-3 629 629 629>
LayerCount: 2
Fore
SplineSet
35 629 m 1
 35 749 l 1
 287 749 l 1
 287 -123 l 1
 35 -123 l 1
 35 -3 l 1
 150 -3 l 1
 150 629 l 1
 35 629 l 1
EndSplineSet
Substitution2: "'case' Case-Sensitive Forms in Lateinisch lookup 4 subtable" bracketright.cap
EndChar

StartChar: bar
Encoding: 124 124 221
Width: 268
Flags: MW
HStem: -210 21G<67 67 67 201> 680 20G<67 201 201 201>
VStem: 67 134<-210 700 -210 700>
LayerCount: 2
Fore
SplineSet
67 -210 m 1
 67 700 l 1
 201 700 l 1
 201 -210 l 1
 67 -210 l 1
EndSplineSet
EndChar

StartChar: notequal
Encoding: 8800 8800 222
Width: 560
Flags: MW
HStem: 87 121<57 141 57 194 316 501 57 263> 295 121<57 285 57 232 57 354 407 501>
VStem: 57 444<87 208 87 208 295 416 87 416>
LayerCount: 2
Fore
SplineSet
57 295 m 1
 57 416 l 1
 285 416 l 1
 353 570 l 1
 457 529 l 1
 407 416 l 1
 501 416 l 1
 501 295 l 1
 354 295 l 1
 316 208 l 1
 501 208 l 1
 501 87 l 1
 263 87 l 1
 200 -56 l 1
 96 -15 l 1
 141 87 l 1
 57 87 l 1
 57 208 l 1
 194 208 l 1
 232 295 l 1
 57 295 l 1
EndSplineSet
EndChar

StartChar: mu
Encoding: 181 181 223
Width: 560
Flags: MW
HStem: -210 21G<63 197 63 63> -12 120<237 265.5> -9 21G<197 197> 0 108<237 497 237 364> 480 20G<63 197 197 197 363 497 497 497>
VStem: 63 134<-210 -9 211 500> 363 134<126 500 0 500>
LayerCount: 2
Fore
SplineSet
363 500 m 1xae
 497 500 l 1
 497 0 l 1
 364 0 l 1x9e
 364 28 l 1
 364 28 292 -12 239 -12 c 0xce
 224 -12 210 -11 197 -9 c 1xae
 197 -210 l 1
 63 -210 l 1
 63 500 l 1
 197 500 l 1
 197 211 l 2
 198 140 207 108 267 108 c 0
 317 108 363 126 363 126 c 1xce
 363 500 l 1xae
EndSplineSet
EndChar

StartChar: ae
Encoding: 230 230 224
Width: 784
Flags: MW
HStem: -12 115<191 214.5> -12 123<510 571.5> 192 103<445 617 445 739 445 617> 209 100.5 383 128<232.5 275.5> 392 119<504 562.5>
VStem: 29 135<138.5 174 138.5 208> 310.5 134.5 617 132<295 330.5>
LayerCount: 2
Fore
SplineSet
546 111 m 0x6780
 628 111 731 120 731 120 c 1
 733 16 l 1
 733 16 618 -12 525 -12 c 0
 457 -12 407 3 372 36 c 1
 349 25 l 2
 315 10 251 -12 178 -12 c 0
 79 -12 29 52 29 152 c 0
 29 264 95 300 203 306 c 2
 311 313 l 1
 311 338 l 2
 311 365 290 383 261 383 c 0
 187 383 67 372 67 372 c 1x5b80
 63 489 l 1
 63 489 196 511 269 511 c 0
 324 511 368 500 398 474 c 1
 432 498 477 511 531 511 c 0
 678 511 749 437 749 286 c 1
 739 192 l 1
 445 192 l 1
 446 135 474 111 546 111 c 0x6780
205 103 m 0x9780
 246 103 311 118 311 118 c 1
 311 149 310 180 310 211 c 1
 220 207 l 2
 185 205 164 192 164 156 c 0
 164 121 177 103 205 103 c 0x9780
445 295 m 1x6780
 617 295 l 1
 617 366 594 392 531 392 c 0
 466 392 445 361 445 295 c 1x6780
EndSplineSet
EndChar

StartChar: florin
Encoding: 402 402 225
Width: 560
Flags: MW
HStem: -230 120<126.5 150 122 210> -217 21G<44 44> 386 114<133 187 133 187 321 442> 592 120<278 385> 679 20G<445 445>
VStem: 187 134<-44 386 500 523>
LayerCount: 2
Fore
SplineSet
321 -47 m 2xb4
 321 -189 267 -230 153 -230 c 0xb4
 100 -230 44 -217 44 -217 c 1x74
 44 -107 l 1
 44 -107 108 -110 136 -110 c 0
 164 -110 187 -94 187 -44 c 2
 187 386 l 1
 133 386 l 1
 133 500 l 1
 187 500 l 1
 187 524 l 2
 187 667 223 712 333 712 c 0xb4
 367 712 445 699 445 699 c 1xac
 445 590 l 1
 445 590 401 592 369 592 c 0
 331 592 321 573 321 523 c 2
 321 500 l 1
 442 500 l 1
 442 386 l 1
 321 386 l 1
 321 -47 l 2xb4
EndSplineSet
EndChar

StartChar: oe
Encoding: 339 339 226
Width: 834
Flags: MW
HStem: -12 121<229 301> 192 103<495 667 494 789 495 495> 390 121<229 303>
VStem: 36 136<204 296 204 327> 360 134<295 296> 667 132<295 330.5>
LayerCount: 2
Fore
SplineSet
596 111 m 0
 678 111 781 120 781 120 c 1
 783 16 l 1
 783 16 668 -12 575 -12 c 0
 507 -12 457 3 422 56 c 1
 386 5 336 -12 266 -12 c 0
 92 -12 36 96 36 250 c 0
 36 404 92 511 266 511 c 0
 340 511 392 491 428 430 c 1
 465 493 516 511 581 511 c 0
 728 511 799 437 799 286 c 1
 789 192 l 1
 495 192 l 1
 496 135 524 111 596 111 c 0
266 109 m 0
 340 109 360 158 360 250 c 0
 360 342 340 390 266 390 c 0
 192 390 172 342 172 250 c 0
 172 158 192 109 266 109 c 0
494 295 m 1
 667 295 l 1
 667 366 644 392 581 392 c 0
 517 392 494 360 494 295 c 1
EndSplineSet
EndChar

StartChar: daggerdbl
Encoding: 8225 8225 227
Width: 512
Flags: MW
HStem: 109 114<44 189 44 189 323 468> 386 114<44 189 44 189 323 467>
VStem: 189 134<-71 109 -71 109 223 386 500 680>
LayerCount: 2
Fore
SplineSet
189 -71 m 1
 189 109 l 1
 44 109 l 1
 44 223 l 1
 189 223 l 1
 189 386 l 1
 44 386 l 1
 44 500 l 1
 189 500 l 1
 189 680 l 1
 323 680 l 1
 323 500 l 1
 467 500 l 1
 467 386 l 1
 323 386 l 1
 323 223 l 1
 468 223 l 1
 468 109 l 1
 323 109 l 1
 323 -71 l 1
 189 -71 l 1
EndSplineSet
EndChar

StartChar: quotedbl
Encoding: 34 34 228
Width: 411
Flags: MW
HStem: 440 240<60 178 60 60 232 350 232 232>
VStem: 57.5 123.5 230 123.5
LayerCount: 2
Fore
SplineSet
350 440 m 1
 232 440 l 1
 228 680 l 1
 357 680 l 1
 350 440 l 1
178 440 m 1
 60 440 l 1
 55 680 l 1
 184 680 l 1
 178 440 l 1
EndSplineSet
EndChar

StartChar: quotesingle
Encoding: 39 39 229
Width: 239
Flags: MW
HStem: 440 240<60 60 60 178>
VStem: 58 123.5
LayerCount: 2
Fore
SplineSet
60 440 m 1
 56 680 l 1
 185 680 l 1
 178 440 l 1
 60 440 l 1
EndSplineSet
EndChar

StartChar: parenleft
Encoding: 40 40 230
Width: 308
Flags: MW
HStem: -125 875<154 281 154 281>
VStem: 38 148<201.5 400.5 201.5 420.5>
LayerCount: 2
Fore
SplineSet
154 750 m 1
 281 750 l 1
 281 750 186 500 186 301 c 0
 186 102 281 -125 281 -125 c 1
 154 -125 l 1
 154 -125 38 62 38 301 c 0
 38 540 154 750 154 750 c 1
EndSplineSet
Substitution2: "'case' Case-Sensitive Forms in Lateinisch lookup 4 subtable" parenleft.cap
EndChar

StartChar: parenright
Encoding: 41 41 231
Width: 308
Flags: MW
HStem: -125 875<27 154 27 154>
VStem: 122 148<201.5 400.5>
LayerCount: 2
Fore
SplineSet
27 750 m 1
 154 750 l 1
 154 750 270 540 270 301 c 0
 270 62 154 -125 154 -125 c 1
 27 -125 l 1
 27 -125 122 102 122 301 c 0
 122 500 27 750 27 750 c 1
EndSplineSet
Substitution2: "'case' Case-Sensitive Forms in Lateinisch lookup 4 subtable" parenright.cap
EndChar

StartChar: comma
Encoding: 44 44 232
Width: 263
Flags: MW
HStem: -123 260<20 218 70 128>
VStem: 20 198
LayerCount: 2
Fore
SplineSet
20 -123 m 1
 70 137 l 1
 218 137 l 1
 128 -123 l 1
 20 -123 l 1
EndSplineSet
EndChar

StartChar: hyphen
Encoding: 45 45 233
Width: 408
Flags: MW
HStem: 205 122<56 352 56 352>
VStem: 56 296<205 327 205 327>
LayerCount: 2
Fore
SplineSet
56 205 m 1
 56 327 l 1
 352 327 l 1
 352 205 l 1
 56 205 l 1
EndSplineSet
EndChar

StartChar: period
Encoding: 46 46 234
Width: 256
Flags: MW
HStem: 0 166<56 200 56 200>
VStem: 56 144<0 166 0 166>
LayerCount: 2
Fore
SplineSet
56 0 m 1
 56 166 l 1
 200 166 l 1
 200 0 l 1
 56 0 l 1
EndSplineSet
EndChar

StartChar: colon
Encoding: 58 58 235
Width: 256
Flags: MW
HStem: 0 166<56 200 56 200> 289 166<56 200 56 200>
VStem: 56 144<0 166 0 166 289 455>
LayerCount: 2
Fore
SplineSet
56 289 m 1
 56 455 l 1
 200 455 l 1
 200 289 l 1
 56 289 l 1
56 0 m 1
 56 166 l 1
 200 166 l 1
 200 0 l 1
 56 0 l 1
EndSplineSet
EndChar

StartChar: semicolon
Encoding: 59 59 236
Width: 279
Flags: MW
HStem: 289 166<69 213 69 213>
VStem: 69 144<289 455 289 455>
LayerCount: 2
Fore
SplineSet
77 137 m 1
 27 -123 l 1
 135 -123 l 1
 225 137 l 1
 77 137 l 1
69 289 m 1
 69 455 l 1
 213 455 l 1
 213 289 l 1
 69 289 l 1
EndSplineSet
EndChar

StartChar: equal
Encoding: 61 61 237
Width: 560
Flags: MW
HStem: 87 121<58 502 58 502> 295 121<58 502 58 502>
VStem: 58 444<87 208 87 208 295 416 87 416>
LayerCount: 2
Fore
SplineSet
58 295 m 1
 58 416 l 1
 502 416 l 1
 502 295 l 1
 58 295 l 1
58 87 m 1
 58 208 l 1
 502 208 l 1
 502 87 l 1
 58 87 l 1
EndSplineSet
EndChar

StartChar: question
Encoding: 63 63 238
Width: 437
Flags: MW
HStem: 0 161<119 263 119 263> 572 120<158 214.5>
VStem: 110 138<217 321> 119 144<0 161 0 161> 266 139<494.5 530>
LayerCount: 2
Fore
SplineSet
405 528 m 0xc8
 405 437 392 401 323 349 c 0
 252 295 248 276 248 248 c 2
 248 217 l 1xd0
 141 217 l 1
 141 217 110 251 110 308 c 0xe0
 110 334 129 359 182 402 c 0
 256 461 266 476 266 513 c 0
 266 547 248 572 181 572 c 0
 114 572 37 556 37 556 c 1
 30 657 l 1
 30 657 116 692 200 692 c 0
 344 692 405 643 405 528 c 0xc8
119 0 m 1xd0
 119 161 l 1
 263 161 l 1
 263 0 l 1
 119 0 l 1xd0
EndSplineSet
EndChar

StartChar: underscore
Encoding: 95 95 239
Width: 620
Flags: MW
HStem: -187 114<96 524 96 524>
VStem: 96 428<-187 -73 -187 -73>
LayerCount: 2
Fore
SplineSet
96 -73 m 1
 524 -73 l 1
 524 -187 l 1
 96 -187 l 1
 96 -73 l 1
EndSplineSet
EndChar

StartChar: braceleft
Encoding: 123 123 240
Width: 361
Flags: MW
HStem: 647 114<325 325>
VStem: 121 130<567.5 596 559.5 650.5>
LayerCount: 2
Fore
SplineSet
259 172 m 0
 259 143 252 88 252 55 c 0
 252 15 262 -15 323 -20 c 1
 323 -134 l 1
 175 -129 121 -81 121 38 c 0
 121 77 128 134 128 159 c 0
 128 205 92 241 16 261 c 1
 16 365 l 1
 93 383 128 413 128 459 c 0
 128 487 121 549 121 586 c 0
 121 715 177 756 325 761 c 1
 325 647 l 1
 264 642 251 616 251 576 c 0
 251 543 258 477 258 448 c 0
 258 368 244 338 146 314 c 1
 244 290 259 252 259 172 c 0
EndSplineSet
Substitution2: "'case' Case-Sensitive Forms in Lateinisch lookup 4 subtable" braceleft.cap
EndChar

StartChar: braceright
Encoding: 125 125 241
Width: 361
Flags: MW
HStem: 647 114<36 36>
VStem: 110 130<567.5 596>
LayerCount: 2
Fore
SplineSet
102 172 m 0
 102 252 117 290 215 314 c 1
 117 338 103 368 103 448 c 0
 103 477 110 543 110 576 c 0
 110 616 97 642 36 647 c 1
 36 761 l 1
 184 756 240 715 240 586 c 0
 240 549 233 487 233 459 c 0
 233 413 268 383 345 365 c 1
 345 261 l 1
 269 241 233 205 233 159 c 0
 233 134 240 77 240 38 c 0
 240 -81 186 -129 38 -134 c 1
 38 -20 l 1
 99 -15 109 15 109 55 c 0
 109 88 102 143 102 172 c 0
EndSplineSet
Substitution2: "'case' Case-Sensitive Forms in Lateinisch lookup 4 subtable" braceright.cap
EndChar

StartChar: cent
Encoding: 162 162 242
Width: 560
Flags: MW
HStem: -75 218<270 358 296 358 296 380> 356 215<295.5 357>
VStem: 88 136<212.5 287.5 212.5 322.5> 270 110<-75 29 29 29 470 571>
LayerCount: 2
Fore
SplineSet
270 -75 m 1
 270 29 l 1
 156 37 88 103 88 250 c 0
 88 395 158 461 270 470 c 1
 270 571 l 1
 380 571 l 1
 380 466 l 1
 421 462 459 453 459 453 c 1
 455 353 l 1
 455 353 376 356 338 356 c 0
 253 356 224 325 224 250 c 0
 224 175 253 143 339 143 c 0
 377 143 455 147 455 147 c 1
 459 47 l 1
 459 47 420 37 380 34 c 1
 380 -75 l 1
 270 -75 l 1
EndSplineSet
EndChar

StartChar: quoteleft
Encoding: 8216 8216 243
Width: 259
Flags: MW
HStem: 432 247<120 175 35 223>
VStem: 35 188
LayerCount: 2
Fore
SplineSet
223 679 m 1
 175 432 l 1
 35 432 l 1
 120 679 l 1
 223 679 l 1
EndSplineSet
EndChar

StartChar: quoteright
Encoding: 8217 8217 244
Width: 254
Flags: MW
HStem: 433 247<41 229 88 144>
VStem: 41 188
LayerCount: 2
Fore
SplineSet
41 433 m 1
 88 680 l 1
 229 680 l 1
 144 433 l 1
 41 433 l 1
EndSplineSet
EndChar

StartChar: divide
Encoding: 247 247 245
Width: 560
Flags: MW
HStem: 17 132<213 345 213 345> 191 120<50 510 50 510> 352 132<213 345 213 345>
VStem: 213 132<17 149 17 149 352 484>
LayerCount: 2
Fore
SplineSet
213 352 m 1
 213 484 l 1
 345 484 l 1
 345 352 l 1
 213 352 l 1
50 191 m 1
 50 311 l 1
 510 311 l 1
 510 191 l 1
 50 191 l 1
213 17 m 1
 213 149 l 1
 345 149 l 1
 345 17 l 1
 213 17 l 1
EndSplineSet
EndChar

StartChar: Euro
Encoding: 8364 8364 246
Width: 560
Flags: MW
HStem: -12 119<319 363> 187 102<26 81 26 90 26 81 231 462 231 231> 355 102<26 88 26 81 227 462> 553 119<316.5 367.5 253.5 374.5>
VStem: 81 138<289 330 330 355 289 355>
LayerCount: 2
Fore
SplineSet
26 355 m 1
 26 457 l 1
 88 457 l 1
 108 612 174 672 333 672 c 0
 402 672 486 655 526 646 c 1
 522 539 l 1
 478 546 396 553 353 553 c 0
 280 553 243 535 227 457 c 1
 462 457 l 1
 462 355 l 1
 219 355 l 1
 219 330 l 1
 219 289 l 1
 462 289 l 1
 462 187 l 1
 231 187 l 1
 247 125 282 107 356 107 c 0
 401 107 484 115 522 120 c 1
 525 11 l 1
 481 1 393 -12 333 -12 c 0
 177 -12 112 53 90 187 c 1
 26 187 l 1
 26 289 l 1
 81 289 l 1
 81 330 l 1
 81 355 l 1
 26 355 l 1
EndSplineSet
EndChar

StartChar: ampersand
Encoding: 38 38 247
Width: 701
Flags: MW
HStem: -12 120<247.5 313 247.5 346.5> 598 114<295 338>
VStem: 35 136<174 234.5 174 251.5> 111 136<527.5 554.5 515 608> 384 136<512 558>
LayerCount: 2
Fore
SplineSet
316 712 m 0xe8
 447 712 520 655 520 550 c 0
 520 460 481 417 383 349 c 1
 481 251 l 1
 489 272 499 344 500 379 c 1
 630 376 l 1
 621 305 599 221 579 173 c 1
 691 75 l 1
 615 -12 l 1
 509 75 l 1
 465 26 389 -12 304 -12 c 0
 100 -12 35 66 35 196 c 0xe8
 35 307 81 361 177 399 c 1
 122 466 111 494 111 561 c 0xd8
 111 655 193 712 316 712 c 0xe8
287 108 m 0
 339 108 397 124 418 148 c 1
 245 321 l 1
 198 298 171 262 171 207 c 0
 171 141 208 108 287 108 c 0
247 531 m 0xd8
 247 499 262 475 292 443 c 2
 309 425 l 1
 361 463 384 489 384 535 c 0
 384 581 360 598 316 598 c 0
 274 598 247 578 247 531 c 0xd8
EndSplineSet
EndChar

StartChar: asterisk
Encoding: 42 42 248
Width: 425
Flags: MW
HStem: 499 74<266 389 266 389>
VStem: 40 349<458 499>
LayerCount: 2
Fore
SplineSet
389 499 m 1
 266 499 l 1
 304 379 l 1
 231 357 l 1
 190 478 l 1
 87 399 l 1
 40 458 l 1
 145 536 l 1
 43 609 l 1
 89 672 l 1
 190 599 l 1
 229 720 l 1
 304 695 l 1
 266 573 l 1
 389 573 l 1
 389 499 l 1
EndSplineSet
EndChar

StartChar: sterling
Encoding: 163 163 249
Width: 560
Flags: MW
HStem: 0 114<75 149 281 405 75 149> 319 114<85 149 85 149 281 434> 551 120<315 352.5 261.5 364.5>
VStem: 149 132<114 319 114 319 433 486>
LayerCount: 2
Fore
SplineSet
468 647 m 1
 464 543 l 1
 464 543 396 551 333 551 c 0
 297 551 281 531 281 486 c 2
 281 433 l 1
 434 433 l 1
 434 319 l 1
 281 319 l 1
 281 114 l 1
 405 114 l 1
 474 130 l 1
 495 18 l 1
 414 0 l 1
 75 0 l 1
 75 114 l 1
 149 114 l 1
 149 319 l 1
 85 319 l 1
 85 433 l 1
 149 433 l 1
 149 492 l 2
 149 638 208 671 315 671 c 0
 390 671 468 647 468 647 c 1
EndSplineSet
EndChar

StartChar: paragraph
Encoding: 182 182 250
Width: 599
Flags: MW
HStem: 0 21G<221 335 221 221 397 511 397 397> 566 114<335 397 335 335 511 511 511 547>
VStem: 221 114<0 286 286 286> 397 114<0 566 0 566>
LayerCount: 2
Fore
SplineSet
397 0 m 1
 397 566 l 1
 335 566 l 1
 335 0 l 1
 221 0 l 1
 221 286 l 1
 214 286 l 2
 101 286 28 367 28 482 c 0
 28 597 103 680 216 680 c 2
 547 680 l 1
 547 566 l 1
 511 566 l 1
 511 0 l 1
 397 0 l 1
EndSplineSet
EndChar

StartChar: dagger
Encoding: 8224 8224 251
Width: 480
Flags: MW
HStem: 386 114<28 173 28 173 307 452>
VStem: 173 134<386 386 500 680> 178 124
LayerCount: 2
Fore
SplineSet
28 386 m 1xa0
 28 500 l 1
 173 500 l 1
 173 680 l 1
 307 680 l 1
 307 500 l 1xc0
 452 500 l 1
 452 386 l 1
 307 386 l 1
 297 -71 l 1
 183 -71 l 1
 173 386 l 1
 28 386 l 1xa0
EndSplineSet
EndChar

StartChar: percent
Encoding: 37 37 252
Width: 560
Flags: MW
HStem: -12 80<417 435 417 464.5> -8 21G<125 125> 199 80<417 435> 381 80<125 143 125 172.5> 592 80<125 143> 673 21G<433 433> 679 20G<360 360>
VStem: 14 98<504 550 504 575.5> 156 98<504 550> 306 98<111 157 111 182.5> 448 98<111 157>
LayerCount: 2
Fore
SplineSet
125 -8 m 1x73e0
 360 699 l 1x73e0
 433 673 l 1x75e0
 198 -32 l 1
 125 -8 l 1x73e0
134 672 m 0xb9e0
 211 672 254 624 254 527 c 0
 254 430 211 381 134 381 c 0
 57 381 14 430 14 527 c 0
 14 624 57 672 134 672 c 0xb9e0
112 527 m 0
 112 481 116 461 134 461 c 0
 152 461 156 481 156 527 c 0
 156 573 152 592 134 592 c 0
 116 592 112 573 112 527 c 0
426 279 m 0
 503 279 546 231 546 134 c 0
 546 37 503 -12 426 -12 c 0
 349 -12 306 37 306 134 c 0
 306 231 349 279 426 279 c 0
404 134 m 0
 404 88 408 68 426 68 c 0
 444 68 448 88 448 134 c 0
 448 180 444 199 426 199 c 0
 408 199 404 180 404 134 c 0
EndSplineSet
EndChar

StartChar: plus
Encoding: 43 43 253
Width: 560
Flags: MW
HStem: 191 120<50 219 50 219 339 510>
VStem: 219 120<21 191 21 191 311 479>
LayerCount: 2
Fore
SplineSet
50 191 m 1
 50 311 l 1
 219 311 l 1
 219 479 l 1
 339 479 l 1
 339 311 l 1
 510 311 l 1
 510 191 l 1
 339 191 l 1
 339 21 l 1
 219 21 l 1
 219 191 l 1
 50 191 l 1
EndSplineSet
EndChar

StartChar: asciicircum
Encoding: 94 94 254
Width: 560
Flags: MW
HStem: 313 347<21 329 21 329 215 523 215 383>
VStem: 21 502<313 313>
LayerCount: 2
Fore
SplineSet
383 313 m 1
 274 530 l 1
 161 313 l 1
 21 313 l 1
 215 660 l 1
 329 660 l 1
 523 313 l 1
 383 313 l 1
EndSplineSet
EndChar

StartChar: quotedblright
Encoding: 8221 8221 255
Width: 439
Flags: MW
HStem: 434 247<41 229 88 143 225 229 272 328 225 225>
VStem: 41 372<434 681>
LayerCount: 2
Fore
SplineSet
41 434 m 1
 88 681 l 1
 229 681 l 1
 143 434 l 1
 41 434 l 1
225 434 m 1
 272 681 l 1
 413 681 l 1
 328 434 l 1
 225 434 l 1
EndSplineSet
EndChar

StartChar: zerosuperior
Encoding: 8304 8304 256
Width: 280
Flags: MW
HStem: 467 95<133.5 147 133.5 182.5> 706 95<133.5 147>
VStem: 11 129 140 129
LayerCount: 2
Fore
SplineSet
140 801 m 0xd0
 225 801 269 760 269 632 c 0xd0
 269 504 225 467 140 467 c 0
 55 467 11 504 11 632 c 0xe0
 11 760 55 801 140 801 c 0xd0
140 706 m 0xe0
 127 706 121 698 121 632 c 0
 121 567 127 562 140 562 c 0
 154 562 159 567 159 632 c 0
 159 698 154 706 140 706 c 0xe0
EndSplineSet
Substitution2: "Single Substitution lookup 5 subtable" zeroinferior
EndChar

StartChar: onesuperior
Encoding: 185 185 257
Width: 280
Flags: MW
HStem: 673 21G<106 106>
VStem: 106 106<478 673 673 673>
LayerCount: 2
Fore
SplineSet
10 715 m 1
 116 790 l 1
 212 790 l 1
 212 478 l 1
 106 478 l 1
 106 673 l 1
 59 641 l 1
 10 715 l 1
EndSplineSet
Substitution2: "Single Substitution lookup 5 subtable" oneinferior
EndChar

StartChar: twosuperior
Encoding: 178 178 258
Width: 280
Flags: MW
HStem: 478 95<158 252 158 252> 693 108<27 182.5>
VStem: 21 231<478 568 568 568> 140 112<678.5 690>
LayerCount: 2
Fore
SplineSet
252 478 m 1xe0
 21 478 l 1
 21 568 l 1xe0
 94 627 l 2
 128 654 140 669 140 684 c 0
 140 696 128 699 103 699 c 0
 81 699 27 693 27 693 c 1
 23 792 l 1
 23 792 96 801 141 801 c 0
 224 801 252 772 252 701 c 0
 252 656 236 630 196 601 c 2
 158 573 l 1xd0
 252 573 l 1
 252 478 l 1xe0
EndSplineSet
Substitution2: "Single Substitution lookup 5 subtable" twoinferior
EndChar

StartChar: threesuperior
Encoding: 179 179 259
Width: 280
Flags: MW
HStem: 467 95<116.5 130.5 103.5 177.5> 592 85<57 121 121 123 57 121> 706 95<112 122>
VStem: 57 196<592 742.5 677 742.5> 149 110<572 584>
LayerCount: 2
Fore
SplineSet
24 792 m 1x70
 24 792 92 801 132 801 c 0
 212 801 253 773 253 712 c 0x70
 253 678 243 653 224 642 c 1
 247 632 259 612 259 569 c 0
 259 500 214 467 141 467 c 0
 92 467 20 475 20 475 c 1
 26 568 l 1
 26 568 87 562 120 562 c 0xc8
 141 562 149 566 149 578 c 0
 149 590 141 592 123 592 c 2
 57 592 l 1
 57 677 l 1x48
 121 677 l 2x50
 134 677 141 681 141 691 c 0
 141 703 130 706 114 706 c 0
 77 706 30 701 30 701 c 1
 24 792 l 1x70
EndSplineSet
Substitution2: "Single Substitution lookup 5 subtable" threeinferior
EndChar

StartChar: foursuperior
Encoding: 8308 8308 260
Width: 280
Flags: MW
HStem: 513 95<119 146 119 146 251 262>
VStem: 146 105<478 513 478 513 478 608>
LayerCount: 2
Fore
SplineSet
146 478 m 1
 146 513 l 1
 14 513 l 1
 14 601 l 1
 53 790 l 1
 171 790 l 1
 119 608 l 1
 146 608 l 1
 160 698 l 1
 251 698 l 1
 251 608 l 1
 262 608 l 1
 262 513 l 1
 251 513 l 1
 251 478 l 1
 146 478 l 1
EndSplineSet
Substitution2: "Single Substitution lookup 5 subtable" fourinferior
EndChar

StartChar: fivesuperior
Encoding: 8309 8309 261
Width: 280
Flags: MW
HStem: 471 90<117 134.5 107.5 182> 592 89<132.5 197.5> 700 90<127 251 127 127>
VStem: 38.5 87 151 110<571 581.5>
LayerCount: 2
Fore
SplineSet
44 790 m 1
 251 790 l 1
 251 700 l 1
 127 700 l 1x30
 124 675 l 1x70
 124 675 152 681 168 681 c 0
 227 681 261 654 261 582 c 0
 261 508 221 471 143 471 c 0
 91 471 25 485 25 485 c 1
 33 570 l 1
 33 570 89 561 126 561 c 0
 143 561 151 566 151 576 c 0
 151 587 147 592 137 592 c 0
 128 592 111 588 111 588 c 1xf8
 33 599 l 1x70
 44 790 l 1
EndSplineSet
Substitution2: "Single Substitution lookup 5 subtable" fiveinferior
EndChar

StartChar: sixsuperior
Encoding: 8310 8310 262
Width: 280
Flags: MW
HStem: 467 92<136.5 147 136.5 180.5> 601 86<137 199> 708 93<144 171>
VStem: 16 108<583.5 593 583.5 678> 159 107<573.5 587>
LayerCount: 2
Fore
SplineSet
257 789 m 1
 251 702 l 1
 251 702 185 708 157 708 c 0xb8
 131 708 124 695 124 682 c 0
 124 681 147 687 162 687 c 0xf8
 236 687 266 651 266 582 c 0
 266 508 214 467 147 467 c 0
 55 467 16 525 16 622 c 0
 16 734 47 801 153 801 c 0
 189 801 257 789 257 789 c 1
143 601 m 0xf8
 131 601 124 593 124 593 c 1
 124 574 131 559 142 559 c 0
 152 559 159 567 159 580 c 0
 159 594 153 601 143 601 c 0xf8
EndSplineSet
Substitution2: "Single Substitution lookup 5 subtable" sixinferior
EndChar

StartChar: sevensuperior
Encoding: 8311 8311 263
Width: 280
Flags: MW
HStem: 685 105<26 253 26 128>
VStem: 26 227<689 790 689 790 689 790>
LayerCount: 2
Fore
SplineSet
26 685 m 1
 26 790 l 1
 253 790 l 1
 253 689 l 1
 158 468 l 1
 37 487 l 1
 128 672 l 1
 128 685 l 1
 26 685 l 1
EndSplineSet
Substitution2: "Single Substitution lookup 5 subtable" seveninferior
EndChar

StartChar: eightsuperior
Encoding: 8312 8312 264
Width: 280
Flags: MW
HStem: 467 85<133.5 146.5 133.5 181> 599 73<133 147 133 147> 716 85<134.5 146>
VStem: 12 109<567.5 578 567.5 594.5> 17 105<693 703.5 693 740.5> 158 106<693 703> 159 109<567.5 578>
LayerCount: 2
Fore
SplineSet
140 801 m 0xec
 224 801 264 769 264 711 c 0xf4
 264 666 237 640 237 640 c 1
 237 640 268 622 268 572 c 0
 268 493 222 467 140 467 c 0
 57 467 12 493 12 572 c 0xf2
 12 617 44 641 44 641 c 1
 44 641 17 661 17 712 c 0
 17 769 55 801 140 801 c 0xec
140 552 m 0xf2
 153 552 159 561 159 574 c 0
 159 582 153 593 147 599 c 1
 133 599 l 1
 127 593 121 582 121 574 c 0
 121 561 127 552 140 552 c 0xf2
140 716 m 0xec
 129 716 122 710 122 697 c 0
 122 689 128 678 133 672 c 1
 147 672 l 1
 152 678 158 689 158 697 c 0
 158 709 152 716 140 716 c 0xec
EndSplineSet
Substitution2: "Single Substitution lookup 5 subtable" eightinferior
EndChar

StartChar: ninesuperior
Encoding: 8313 8313 265
Width: 280
Flags: MW
HStem: 467 95<110 132.5 100 182.5> 581 82<83 142> 708 93<133 144>
VStem: 15 123 138 127
LayerCount: 2
Fore
SplineSet
26 481 m 1xb0
 32 568 l 1
 32 568 81 562 119 562 c 0xa8
 146 562 152 575 152 585 c 0xe8
 152 586 134 581 117 581 c 0
 49 581 15 616 15 685 c 0xf0
 15 759 62 801 134 801 c 0
 227 801 265 743 265 636 c 0xa8
 265 524 231 467 134 467 c 0
 86 467 26 481 26 481 c 1xb0
138 663 m 0xf0
 146 663 157 669 157 669 c 1
 157 696 150 708 138 708 c 0
 128 708 122 699 122 685 c 0
 122 671 130 663 138 663 c 0xf0
EndSplineSet
Substitution2: "Single Substitution lookup 5 subtable" nineinferior
EndChar

StartChar: questiondown
Encoding: 191 191 266
Width: 433
Flags: MW
HStem: -192 120<219.5 276> 339 161<171 315 171 315>
VStem: 29 139<-30 5.5 -30 17.5> 171 144<339 500 339 500> 186 138<179 283 179 283>
LayerCount: 2
Fore
SplineSet
29 -28 m 0xe0
 29 63 42 99 111 151 c 0
 182 205 186 224 186 252 c 2
 186 283 l 1xd0
 293 283 l 1
 293 283 324 249 324 192 c 0xc8
 324 166 305 141 252 98 c 0
 178 39 168 24 168 -13 c 0
 168 -47 186 -72 253 -72 c 0
 320 -72 397 -56 397 -56 c 1
 404 -157 l 1
 404 -157 318 -192 234 -192 c 0
 90 -192 29 -143 29 -28 c 0xe0
315 500 m 1xd0
 315 339 l 1
 171 339 l 1
 171 500 l 1
 315 500 l 1xd0
EndSplineSet
Substitution2: "'case' Case-Sensitive Forms in Lateinisch lookup 4 subtable" questiondown.cap
EndChar

StartChar: questiondown.cap
Encoding: 65550 -1 267
Width: 425
Flags: MW
HStem: -12 120<216.5 273> 519 161<168 312 168 312>
VStem: 26 139<150 185.5 150 197.5> 168 144<519 680 519 680> 183 138<359 463 359 463>
LayerCount: 2
Fore
SplineSet
26 152 m 0xe0
 26 243 39 279 108 331 c 0
 179 385 183 404 183 432 c 2
 183 463 l 1xd0
 290 463 l 1
 290 463 321 429 321 372 c 0xc8
 321 346 302 321 249 278 c 0
 175 219 165 204 165 167 c 0
 165 133 183 108 250 108 c 0
 317 108 394 124 394 124 c 1
 401 23 l 1
 401 23 315 -12 231 -12 c 0
 87 -12 26 37 26 152 c 0xe0
312 680 m 1xd0
 312 519 l 1
 168 519 l 1
 168 680 l 1
 312 680 l 1xd0
EndSplineSet
EndChar

StartChar: ellipsis
Encoding: 8230 8230 268
Width: 766
Flags: MW
HStem: 0 166<56 200 56 200 311 455 56 311 566 710>
VStem: 56 144<0 166 0 166> 311 144<0 166 0 166> 566 144<0 166 0 166>
LayerCount: 2
Fore
SplineSet
56 0 m 1
 56 166 l 1
 200 166 l 1
 200 0 l 1
 56 0 l 1
311 0 m 1
 311 166 l 1
 455 166 l 1
 455 0 l 1
 311 0 l 1
566 0 m 1
 566 166 l 1
 710 166 l 1
 710 0 l 1
 566 0 l 1
EndSplineSet
EndChar

StartChar: endash.cap
Encoding: 65551 -1 269
Width: 618
Flags: MW
HStem: 239 114<59 559 59 559>
VStem: 59 500<239 353 239 353>
LayerCount: 2
Fore
SplineSet
59 353 m 1
 559 353 l 1
 559 239 l 1
 59 239 l 1
 59 353 l 1
EndSplineSet
Position2: "'cpsp' Capital Spacing in Lateinisch lookup 0 subtable" dx=5 dy=0 dh=10 dv=0
EndChar

StartChar: emdash.cap
Encoding: 65552 -1 270
Width: 1118
Flags: MW
HStem: 239 114<59 1059 59 1059>
VStem: 59 1000<239 353 239 353>
LayerCount: 2
Fore
SplineSet
59 353 m 1
 1059 353 l 1
 1059 239 l 1
 59 239 l 1
 59 353 l 1
EndSplineSet
Position2: "'cpsp' Capital Spacing in Lateinisch lookup 0 subtable" dx=5 dy=0 dh=10 dv=0
EndChar

StartChar: periodcentered
Encoding: 183 183 271
Width: 256
Flags: MW
HStem: 167 166<56 200 56 200>
VStem: 56 144<167 333 167 333>
LayerCount: 2
Fore
SplineSet
56 167 m 1
 56 333 l 1
 200 333 l 1
 200 167 l 1
 56 167 l 1
EndSplineSet
Substitution2: "'case' Case-Sensitive Forms in Lateinisch lookup 4 subtable" periodcentered.cap
EndChar

StartChar: periodcentered.cap
Encoding: 65553 -1 272
Width: 256
Flags: MW
HStem: 245 166<56 200 56 200>
VStem: 56 144<245 411 245 411>
LayerCount: 2
Fore
SplineSet
56 245 m 1
 56 411 l 1
 200 411 l 1
 200 245 l 1
 56 245 l 1
EndSplineSet
Position2: "'cpsp' Capital Spacing in Lateinisch lookup 0 subtable" dx=5 dy=0 dh=10 dv=0
EndChar

StartChar: currency
Encoding: 164 164 273
Width: 560
Flags: MW
HStem: 75 91 338 91<194 303.5>
VStem: 102 92<166 275.5 228.5 337> 366 91<166 275.5>
LayerCount: 2
Fore
SplineSet
438 2 m 1
 365 75 l 1
 339 62 310 55 280 55 c 0
 249 55 221 62 195 75 c 1
 122 2 l 1
 30 94 l 1
 102 166 l 1
 90 192 83 221 83 252 c 0
 83 282 90 311 102 337 c 1
 30 410 l 1
 122 502 l 1
 194 429 l 1
 220 442 249 449 280 449 c 0
 310 449 339 442 365 429 c 1
 438 502 l 1
 530 410 l 1
 457 337 l 1
 470 311 477 282 477 252 c 0
 477 221 470 192 457 166 c 1
 530 94 l 1
 438 2 l 1
280 166 m 0
 327 166 366 205 366 252 c 0
 366 299 327 338 280 338 c 0
 233 338 194 299 194 252 c 0
 194 205 233 166 280 166 c 0
EndSplineSet
EndChar

StartChar: perthousand
Encoding: 8240 8240 274
Width: 845
Flags: MW
HStem: -12 80<432 450 432 479.5 689 707> -8 21G<140 140> 199 80<432 450 689 707> 461 131<140 158> 672 21G<110.5 187.5> 673 21G<448 448> 679 20G<375 375>
VStem: 127 44<504 550> 321 98<111 157 111 182.5> 463 98<111 157> 578 98<111 157 111 182.5> 720 98<111 157>
LayerCount: 2
Fore
SplineSet
149 592 m 0xb3d0
 167 592 171 573 171 527 c 0
 171 481 167 461 149 461 c 0
 131 461 127 481 127 527 c 0
 127 573 131 592 149 592 c 0xb3d0
140 -8 m 1x45
 375 699 l 1x03
 448 673 l 1
 213 -32 l 1
 140 -8 l 1x45
29 527 m 0
 29 430 72 381 149 381 c 0
 226 381 269 430 269 527 c 0
 269 624 226 672 149 672 c 0x09
 72 672 29 624 29 527 c 0
321 134 m 0xa0c0
 321 231 364 279 441 279 c 0
 518 279 561 231 561 134 c 0
 561 37 518 -12 441 -12 c 0
 364 -12 321 37 321 134 c 0xa0c0
419 134 m 0
 419 88 423 68 441 68 c 0
 459 68 463 88 463 134 c 0
 463 180 459 199 441 199 c 0
 423 199 419 180 419 134 c 0
578 134 m 0xa030
 578 231 621 279 698 279 c 0
 775 279 818 231 818 134 c 0
 818 37 775 -12 698 -12 c 0
 621 -12 578 37 578 134 c 0xa030
676 134 m 0
 676 88 680 68 698 68 c 0
 716 68 720 88 720 134 c 0
 720 180 716 199 698 199 c 0
 680 199 676 180 676 134 c 0
EndSplineSet
EndChar

StartChar: lessequal
Encoding: 8804 8804 275
Width: 560
Flags: MW
HStem: 19 120<66 487 66 487>
VStem: 66 421<19 139 19 139 274 283 386 390 390 390>
LayerCount: 2
Fore
SplineSet
487 386 m 1
 215 337 l 1
 487 283 l 1
 487 153 l 1
 66 274 l 1
 66 390 l 1
 487 516 l 1
 487 386 l 1
66 19 m 1
 66 139 l 1
 487 139 l 1
 487 19 l 1
 66 19 l 1
EndSplineSet
EndChar

StartChar: greaterequal
Encoding: 8805 8805 276
Width: 560
Flags: MW
HStem: 19 120<73 494 73 494>
VStem: 73 421<19 139 19 139 274 283 283 283 386 390 19 516 19 516>
LayerCount: 2
Fore
SplineSet
345 337 m 1
 73 386 l 1
 73 516 l 1
 494 390 l 1
 494 274 l 1
 73 153 l 1
 73 283 l 1
 345 337 l 1
494 139 m 1
 494 19 l 1
 73 19 l 1
 73 139 l 1
 494 139 l 1
EndSplineSet
EndChar

StartChar: logicalnot
Encoding: 172 172 277
Width: 560
Flags: MW
HStem: 238 120<57 373 57 493>
VStem: 373 120<104 238 238 238>
LayerCount: 2
Fore
SplineSet
57 358 m 1
 493 358 l 1
 493 104 l 1
 373 104 l 1
 373 238 l 1
 57 238 l 1
 57 358 l 1
EndSplineSet
EndChar

StartChar: Delta
Encoding: 8710 8710 278
Width: 560
Flags: MW
HStem: 0 114<177 383 177 516> 548 112<267 294 267 267>
VStem: 44 472<0 102 0 104 0 104>
LayerCount: 2
Fore
SplineSet
44 104 m 1
 168 660 l 1
 393 660 l 1
 516 102 l 1
 516 0 l 1
 44 0 l 1
 44 104 l 1
294 548 m 1
 267 548 l 1
 177 114 l 1
 383 114 l 1
 294 548 l 1
EndSplineSet
EndChar

StartChar: Omega
Encoding: 8486 8486 279
Width: 560
Flags: MW
HStem: -9 114<52 132 52 260 52 132 428 508> 552 120<237.5 322.5>
VStem: 40 142<299 423 287.5 484.5> 52 208<-9 90 -9 105 -9 105> 300 208<-9 90 90 90> 378 142<299 423>
LayerCount: 2
Fore
SplineSet
52 105 m 1xd4
 132 105 l 1
 132 105 40 213 40 385 c 0
 40 584 107 672 280 672 c 0
 453 672 520 584 520 385 c 0xe4
 520 213 428 105 428 105 c 1
 508 105 l 1
 508 -9 l 1
 300 -9 l 1xe8
 300 90 l 1
 300 90 378 225 378 350 c 0
 378 496 365 552 280 552 c 0
 195 552 182 496 182 350 c 0xe4
 182 225 260 90 260 90 c 1
 260 -9 l 1
 52 -9 l 1
 52 105 l 1xd4
EndSplineSet
EndChar

StartChar: oslashacute
Encoding: 511 511 280
Width: 532
Flags: MW
HStem: -108 861<162 373>
VStem: 172 188<231.5 272 202.5 299.5>
LayerCount: 2
Fore
SplineSet
266 512 m 0
 92 512 36 405 36 251 c 0
 36 150 60 69 125 25 c 1
 82 -78 l 1
 162 -108 l 1
 203 -6 l 1
 222 -10 243 -12 266 -12 c 0
 440 -12 496 97 496 251 c 0
 496 354 471 436 402 479 c 1
 443 577 l 1
 362 607 l 1
 322 507 l 1
 305 510 286 512 266 512 c 0
121 651 m 1
 373 753 l 1
 413 638 l 1
 151 564 l 1
 121 651 l 1
266 102 m 0
 259 102 252 102 246 103 c 1
 346 350 l 1
 356 326 360 293 360 251 c 0
 360 154 340 102 266 102 c 0
266 398 m 0
 270 398 275 397 279 397 c 2
 184 156 l 1
 175 180 172 212 172 251 c 0
 172 348 192 398 266 398 c 0
EndSplineSet
EndChar

StartChar: exclamdown
Encoding: 161 161 281
Width: 264
Flags: MW
HStem: 339 161<60 204 60 204>
VStem: 60 144<339 500> 66 131.5
LayerCount: 2
Fore
SplineSet
204 500 m 1xc0
 204 339 l 1
 60 339 l 1
 60 500 l 1
 204 500 l 1xc0
191 250 m 1xa0
 204 -180 l 1
 59 -180 l 1
 73 250 l 1
 191 250 l 1xa0
EndSplineSet
Substitution2: "'case' Case-Sensitive Forms in Lateinisch lookup 4 subtable" exclamdown.cap
EndChar

StartChar: exclamdown.cap
Encoding: 65554 -1 282
Width: 280
Flags: MW
HStem: 1 21G<67 212 67 67> 520 161<68 212 68 212>
VStem: 68 144<520 681> 74 131.5
LayerCount: 2
Fore
SplineSet
212 681 m 1xe0
 212 520 l 1
 68 520 l 1
 68 681 l 1
 212 681 l 1xe0
199 431 m 1xd0
 212 1 l 1
 67 1 l 1
 81 431 l 1
 199 431 l 1xd0
EndSplineSet
EndChar

StartChar: quotesinglbase
Encoding: 8218 8218 283
Width: 256
Flags: MW
HStem: -117 247<23 211 70 126>
VStem: 23 188
LayerCount: 2
Fore
SplineSet
23 -117 m 1
 70 130 l 1
 211 130 l 1
 126 -117 l 1
 23 -117 l 1
EndSplineSet
EndChar

StartChar: parenleft.cap
Encoding: 65555 -1 284
Width: 308
Flags: MW
HStem: -95 875<154 281 154 281>
VStem: 38 148<231.5 430.5 231.5 450.5>
LayerCount: 2
Fore
SplineSet
154 780 m 1
 281 780 l 1
 281 780 186 530 186 331 c 0
 186 132 281 -95 281 -95 c 1
 154 -95 l 1
 154 -95 38 92 38 331 c 0
 38 570 154 780 154 780 c 1
EndSplineSet
Position2: "'cpsp' Capital Spacing in Lateinisch lookup 0 subtable" dx=5 dy=0 dh=10 dv=0
EndChar

StartChar: parenright.cap
Encoding: 65556 -1 285
Width: 308
Flags: MW
HStem: -90 875<27 154 27 154>
VStem: 122 148<259.5 458.5>
LayerCount: 2
Fore
SplineSet
154 -90 m 1
 27 -90 l 1
 27 -90 122 160 122 359 c 0
 122 558 27 785 27 785 c 1
 154 785 l 1
 154 785 270 598 270 359 c 0
 270 120 154 -90 154 -90 c 1
EndSplineSet
Position2: "'cpsp' Capital Spacing in Lateinisch lookup 0 subtable" dx=5 dy=0 dh=10 dv=0
EndChar

StartChar: bracketleft.cap
Encoding: 65557 -1 286
Width: 355
Flags: MW
HStem: -93 120<205 320 205 320> 659 120<205 320 205 205>
VStem: 68 137<27 659 27 779 27 779>
LayerCount: 2
Fore
SplineSet
320 779 m 1
 320 659 l 1
 205 659 l 1
 205 27 l 1
 320 27 l 1
 320 -93 l 1
 68 -93 l 1
 68 779 l 1
 320 779 l 1
EndSplineSet
Position2: "'cpsp' Capital Spacing in Lateinisch lookup 0 subtable" dx=5 dy=0 dh=10 dv=0
EndChar

StartChar: bracketright.cap
Encoding: 65558 -1 287
Width: 355
Flags: MW
HStem: -93 120<35 150 35 287 35 150> 659 120<35 287 35 150>
VStem: 150 137<27 659 659 659>
LayerCount: 2
Fore
SplineSet
35 659 m 1
 35 779 l 1
 287 779 l 1
 287 -93 l 1
 35 -93 l 1
 35 27 l 1
 150 27 l 1
 150 659 l 1
 35 659 l 1
EndSplineSet
Position2: "'cpsp' Capital Spacing in Lateinisch lookup 0 subtable" dx=5 dy=0 dh=10 dv=0
EndChar

StartChar: braceleft.cap
Encoding: 65559 -1 288
Width: 361
Flags: MW
HStem: 677 114<325 325>
VStem: 121 130<597.5 626 589.5 680.5>
LayerCount: 2
Fore
SplineSet
259 202 m 0
 259 173 252 118 252 85 c 0
 252 45 262 15 323 10 c 1
 323 -104 l 1
 175 -99 121 -51 121 68 c 0
 121 107 128 164 128 189 c 0
 128 235 92 271 16 291 c 1
 16 395 l 1
 93 413 128 443 128 489 c 0
 128 517 121 579 121 616 c 0
 121 745 177 786 325 791 c 1
 325 677 l 1
 264 672 251 646 251 606 c 0
 251 573 258 507 258 478 c 0
 258 398 244 368 146 344 c 1
 244 320 259 282 259 202 c 0
EndSplineSet
Position2: "'cpsp' Capital Spacing in Lateinisch lookup 0 subtable" dx=5 dy=0 dh=10 dv=0
EndChar

StartChar: braceright.cap
Encoding: 65560 -1 289
Width: 362
Flags: MW
HStem: -108 114<36 36> 673 21G<38 38>
VStem: 110 130<57 85.5 2.5 93.5>
LayerCount: 2
Fore
SplineSet
102 481 m 0
 102 510 109 565 109 598 c 0
 109 638 99 668 38 673 c 1
 38 787 l 1
 186 782 240 734 240 615 c 0
 240 576 233 519 233 494 c 0
 233 448 269 412 345 392 c 1
 345 288 l 1
 268 270 233 240 233 194 c 0
 233 166 240 104 240 67 c 0
 240 -62 184 -103 36 -108 c 1
 36 6 l 1
 97 11 110 37 110 77 c 0
 110 110 103 176 103 205 c 0
 103 285 117 315 215 339 c 1
 117 363 102 401 102 481 c 0
EndSplineSet
Position2: "'cpsp' Capital Spacing in Lateinisch lookup 0 subtable" dx=5 dy=0 dh=10 dv=0
EndChar

StartChar: grave.cap
Encoding: 65561 -1 290
Width: 268
Flags: MW
HStem: 746 199
VStem: 9 293<825 839>
LayerCount: 2
Fore
SplineSet
50 945 m 1
 302 839 l 1
 269 746 l 1
 9 825 l 1
 50 945 l 1
EndSplineSet
EndChar

StartChar: acute.cap
Encoding: 65562 -1 291
Width: 268
Flags: MW
HStem: 746 199
VStem: 1 293<825 839>
LayerCount: 2
Fore
SplineSet
1 839 m 1
 253 945 l 1
 294 825 l 1
 34 746 l 1
 1 839 l 1
EndSplineSet
EndChar

StartChar: circumflex.cap
Encoding: 65563 -1 292
Width: 486
Flags: MW
HStem: 765 149<24 275 158 166 267 267 267 275 158 409>
VStem: 24 385<765 765>
LayerCount: 2
Fore
SplineSet
24 765 m 1
 158 914 l 1
 275 914 l 1
 409 765 l 1
 267 765 l 1
 218 821 l 1
 166 765 l 1
 24 765 l 1
EndSplineSet
EndChar

StartChar: caron.cap
Encoding: 65564 -1 293
Width: 268
Flags: MW
HStem: 765 149<88 88 88 96 197 205>
VStem: -46 385<914 914>
LayerCount: 2
Fore
SplineSet
88 765 m 1
 -46 914 l 1
 96 914 l 1
 148 858 l 1
 197 914 l 1
 339 914 l 1
 205 765 l 1
 88 765 l 1
EndSplineSet
EndChar

StartChar: tilde.cap
Encoding: 65565 -1 294
Width: 268
Flags: MW
HStem: 758 118<220 247 220 265> 804 118<55 85.5>
VStem: -40 385<821 858>
LayerCount: 2
Fore
SplineSet
316 918 m 1xa0
 345 821 l 1
 345 821 292 758 238 758 c 0xa0
 186 758 102 804 69 804 c 0
 41 804 -11 762 -11 762 c 1
 -40 858 l 1
 -40 858 14 922 67 922 c 0x60
 128 922 206 876 234 876 c 0
 260 876 316 918 316 918 c 1xa0
EndSplineSet
EndChar

StartChar: dieresis.cap
Encoding: 65566 -1 295
Width: 268
Flags: MW
HStem: 764 132<-42 86 -42 86 172 300 -42 172>
VStem: -42 128<764 896 764 896> 172 128<764 896 764 896>
LayerCount: 2
Fore
SplineSet
-42 764 m 1
 -42 896 l 1
 86 896 l 1
 86 764 l 1
 -42 764 l 1
172 764 m 1
 172 896 l 1
 300 896 l 1
 300 764 l 1
 172 764 l 1
EndSplineSet
EndChar

StartChar: macron.cap
Encoding: 65567 -1 296
Width: 268
Flags: MW
HStem: 782 98<-25 322 -25 322>
VStem: -25 347<782 880 782 880>
LayerCount: 2
Fore
SplineSet
-25 782 m 1
 -25 880 l 1
 322 880 l 1
 322 782 l 1
 -25 782 l 1
EndSplineSet
EndChar

StartChar: breve.cap
Encoding: 65568 -1 297
Width: 268
Flags: MW
HStem: 759 151<-30 216.5>
VStem: -30 373<910 910>
LayerCount: 2
Fore
SplineSet
-30 910 m 1
 91 910 l 1
 96 878 119 853 156 853 c 0
 195 853 218 878 222 910 c 1
 343 910 l 1
 333 825 277 759 156 759 c 0
 35 759 -20 825 -30 910 c 1
EndSplineSet
EndChar

StartChar: ring.cap
Encoding: 65569 -1 298
Width: 268
Flags: MW
HStem: 595 85<131 167 131 189.5> 762 85<131 167>
VStem: -1 91<708.5 733.5 708.5 761.5> 208 91<708.5 733.5>
LayerCount: 2
Fore
SplineSet
299 721 m 0
 299 640 230 595 149 595 c 0
 67 595 -1 640 -1 721 c 0
 -1 802 67 847 149 847 c 0
 230 847 299 802 299 721 c 0
90 721 m 0
 90 696 113 680 149 680 c 0
 185 680 208 696 208 721 c 0
 208 746 185 762 149 762 c 0
 113 762 90 746 90 721 c 0
EndSplineSet
EndChar

StartChar: hungarumlaut.cap
Encoding: 65570 -1 299
Width: 268
Flags: MW
HStem: 739 234
VStem: -23 391<776 930>
LayerCount: 2
Fore
SplineSet
185 775 m 1
 252 972 l 1
 368 930 l 1
 290 739 l 1
 185 775 l 1
-23 776 m 1
 44 973 l 1
 160 931 l 1
 82 740 l 1
 -23 776 l 1
EndSplineSet
EndChar

StartChar: dotaccent.cap
Encoding: 65571 -1 300
Width: 268
Flags: MW
HStem: 767 135<67 201 67 201>
VStem: 67 134<767 902 767 902>
LayerCount: 2
Fore
SplineSet
67 767 m 1
 67 902 l 1
 201 902 l 1
 201 767 l 1
 67 767 l 1
EndSplineSet
EndChar

StartChar: Aringacute
Encoding: 506 506 301
Width: 602
Flags: MW
HStem: 0 21G<17 155 17 17 447 585 447 447> 123 120<208 394 208 420 182 394> 566 114<277 305 300 305 300 325> 660 20 762 85<282 318>
VStem: 150 91<709.5 733.5 708.5 761.5> 359 91<710 733.5>
LayerCount: 2
Fore
SplineSet
450 721 m 0xde
 450 699 445 679 436 663 c 1
 585 0 l 1
 447 0 l 1
 420 123 l 1
 182 123 l 1
 155 0 l 1
 17 0 l 1
 165 660 l 1
 155 677 150 698 150 721 c 0
 150 802 218 847 300 847 c 0
 381 847 450 802 450 721 c 0xde
277 566 m 1xee
 208 243 l 1
 394 243 l 1
 325 566 l 1
 277 566 l 1xee
142 939 m 1
 394 1045 l 1
 435 925 l 1
 175 846 l 1
 142 939 l 1
241 721 m 0xde
 241 696 264 680 300 680 c 2
 305 680 l 2
 338 681 359 697 359 721 c 0
 359 746 336 762 300 762 c 0
 264 762 241 746 241 721 c 0xde
EndSplineSet
Position2: "'cpsp' Capital Spacing in Lateinisch lookup 0 subtable" dx=5 dy=0 dh=10 dv=0
EndChar

StartChar: Eng
Encoding: 330 330 302
Width: 693
Flags: MW
HStem: -212 120<405 430 405 480> 0 120<392 481 471 481 471 481> 560 120<212 222 212 212>
VStem: 74 138<0 560 0 680 0 680> 481 138<-21 0 0 0 120 680>
LayerCount: 2
Fore
SplineSet
74 0 m 1
 74 680 l 1
 307 680 l 1
 471 120 l 1
 481 120 l 1
 481 680 l 1
 619 680 l 1
 619 -27 l 2
 619 -177 555 -212 405 -212 c 1
 405 -92 l 1
 455 -92 481 -78 481 -21 c 2
 481 0 l 1
 392 0 l 1
 222 560 l 1
 212 560 l 1
 212 0 l 1
 74 0 l 1
EndSplineSet
Position2: "'cpsp' Capital Spacing in Lateinisch lookup 0 subtable" dx=5 dy=0 dh=10 dv=0
EndChar

StartChar: amacron
Encoding: 257 257 303
Width: 511
Flags: MW
HStem: -12 109<195 221.5> 216 93 398 114<219 272> 597 100<107 394 107 394>
VStem: 29 135<138.5 174 138.5 208.5> 107 287<597 697 597 697> 311 134<136 220 220 220 313 344 136 365.5>
LayerCount: 2
Fore
SplineSet
445 344 m 2xfa
 445 136 l 2
 447 106 451 94 478 89 c 1
 474 -12 l 1
 407 -12 373 -5 331 23 c 1
 331 23 259 -12 184 -12 c 0
 79 -12 29 46 29 152 c 0
 29 265 94 297 204 305 c 2
 311 313 l 1
 311 344 l 2
 311 387 292 398 252 398 c 0
 186 398 64 390 64 390 c 1
 60 483 l 1
 60 483 167 512 263 512 c 0
 393 512 445 461 445 344 c 2xfa
311 220 m 1
 220 212 l 2
 185 209 164 192 164 156 c 0
 164 121 177 97 213 97 c 0
 256 97 311 113 311 113 c 1
 311 220 l 1
107 597 m 1xf4
 107 697 l 1
 394 697 l 1
 394 597 l 1
 107 597 l 1xf4
EndSplineSet
EndChar

StartChar: abreve
Encoding: 259 259 304
Width: 512
Flags: MW
HStem: 103 106 309.5 73.5 511 193<237 270 237 325> 585 119<237 270 237 314.5> 585 163<191.5 198 308 314.5>
VStem: 164 147<138.5 174>
LayerCount: 2
Fore
SplineSet
445 154 m 2x54
 445 339 l 2
 445 467 381 511 269 511 c 0
 196 511 63 489 63 489 c 1xe4
 67 375 l 1
 67 375 187 383 261 383 c 0
 290 383 311 365 311 338 c 2
 311 313 l 1
 203 306 l 2
 93 298 29 265 29 152 c 0
 29 52 79 -12 178 -12 c 0
 247 -12 331 22 331 22 c 1
 363 1 386 -12 473 -12 c 1
 477 102 l 1
 449 107 445 117 445 154 c 2x54
220 207 m 2
 311 211 l 1
 311 118 l 1
 311 118 246 103 205 103 c 0
 177 103 164 121 164 156 c 0
 164 192 185 205 220 207 c 2
59 748 m 1x4c
 198 748 l 1x4c
 203 718 221 704 253 704 c 0x54
 287 704 304 718 308 748 c 1
 447 748 l 1x4c
 437 653 376 585 253 585 c 0x54
 130 585 69 653 59 748 c 1x4c
EndSplineSet
EndChar

StartChar: aringacute
Encoding: 507 507 305
Width: 511
Flags: MW
HStem: -12 109<195 221.5> 216 93 398 114<219 272> 521 71<239.5 266 239.5 284.5> 683 72<239.5 266>
VStem: 29 135<138.5 174 138.5 208.5> 135 72<624.5 651 624.5 670.5> 298 71<624.5 651> 311 134<136 220 220 220 313 344 136 365.5>
LayerCount: 2
Fore
SplineSet
445 344 m 2xec80
 445 136 l 2
 447 106 451 94 478 89 c 1
 474 -12 l 1
 407 -12 373 -5 331 23 c 1
 331 23 259 -12 184 -12 c 0
 79 -12 29 46 29 152 c 0
 29 265 94 297 204 305 c 2
 311 313 l 1
 311 344 l 2
 311 387 292 398 252 398 c 0
 186 398 64 390 64 390 c 1
 60 483 l 1
 60 483 167 512 263 512 c 0
 393 512 445 461 445 344 c 2xec80
311 220 m 1
 220 212 l 2
 185 209 164 192 164 156 c 0
 164 121 177 97 213 97 c 0
 256 97 311 113 311 113 c 1
 311 220 l 1
135 638 m 0xfb
 135 703 185 755 252 755 c 0
 317 755 369 703 369 638 c 0
 369 571 317 521 252 521 c 0
 185 521 135 571 135 638 c 0xfb
207 638 m 0
 207 611 226 592 253 592 c 0
 279 592 298 611 298 638 c 0
 298 664 279 683 253 683 c 0
 226 683 207 664 207 638 c 0
108 852 m 1
 360 954 l 1
 400 839 l 1
 138 765 l 1
 108 852 l 1
EndSplineSet
EndChar

StartChar: aogonek
Encoding: 261 261 306
Width: 510
Flags: MW
HStem: -216 102<345 427.5> -12 109<195 221.5> -11 21G 216 93 398 114<219 272>
VStem: 29 135<138.5 174 138.5 208.5> 267 125<-92 -79.5> 311 134<136 220 220 220 313 344 136 365.5>
LayerCount: 2
Fore
SplineSet
445 344 m 2xbd
 445 136 l 2
 447 106 451 94 478 89 c 1
 474 -12 l 1xdd
 460 -12 447 -11 436 -11 c 1xde
 419 -27 392 -56 392 -81 c 0
 392 -103 406 -114 424 -114 c 0
 431 -114 466 -110 466 -110 c 1
 478 -205 l 1
 478 -205 419 -216 376 -216 c 0
 314 -216 267 -180 267 -120 c 0
 267 -39 348 11 348 11 c 1
 351 10 l 1xbe
 331 23 l 1
 331 23 259 -12 184 -12 c 0xde
 79 -12 29 46 29 152 c 0
 29 265 94 297 204 305 c 2
 311 313 l 1
 311 344 l 2
 311 387 292 398 252 398 c 0
 186 398 64 390 64 390 c 1
 60 483 l 1
 60 483 167 512 263 512 c 0
 393 512 445 461 445 344 c 2xbd
311 220 m 1
 220 212 l 2
 185 209 164 192 164 156 c 0
 164 121 177 97 213 97 c 0
 256 97 311 113 311 113 c 1
 311 220 l 1
EndSplineSet
EndChar

StartChar: aeacute
Encoding: 509 509 307
Width: 784
Flags: MW
HStem: -12 115<191 214.5> -12 123<510 571.5> 192 103<445 617 445 739 445 617> 209 100.5 383 128<232.5 275.5> 392 119<504 562.5>
VStem: 29 135<138.5 174 138.5 208> 310.5 134.5 617 132<295 330.5>
LayerCount: 2
Fore
SplineSet
546 111 m 0x6780
 628 111 731 120 731 120 c 1
 733 16 l 1
 733 16 618 -12 525 -12 c 0
 457 -12 407 3 372 36 c 1
 349 25 l 2
 315 10 251 -12 178 -12 c 0
 79 -12 29 52 29 152 c 0
 29 264 95 300 203 306 c 2
 311 313 l 1
 311 338 l 2
 311 365 290 383 261 383 c 0
 187 383 67 372 67 372 c 1x5b80
 63 489 l 1
 63 489 196 511 269 511 c 0
 324 511 368 500 398 474 c 1
 432 498 477 511 531 511 c 0
 678 511 749 437 749 286 c 1
 739 192 l 1
 445 192 l 1
 446 135 474 111 546 111 c 0x6780
205 103 m 0x9780
 246 103 311 118 311 118 c 1
 311 149 310 180 310 211 c 1
 220 207 l 2
 185 205 164 192 164 156 c 0
 164 121 177 103 205 103 c 0x9780
445 295 m 1x6780
 617 295 l 1
 617 366 594 392 531 392 c 0
 466 392 445 361 445 295 c 1x6780
256 651 m 1
 508 753 l 1
 548 638 l 1
 286 564 l 1
 256 651 l 1
EndSplineSet
EndChar

StartChar: cacute
Encoding: 263 263 308
Width: 446
Flags: MW
HStem: -12 120<241 274> 392 120<240 278 174.5 307> 492 20G<174.5 278>
VStem: 38 136<199 305 199 343.5>
LayerCount: 2
Fore
SplineSet
249 512 m 0xd0
 307 512 409 490 409 490 c 1xb0
 405 384 l 1
 405 384 326 392 288 392 c 0
 192 392 174 355 174 255 c 0
 174 143 193 108 289 108 c 0
 327 108 405 116 405 116 c 1
 409 9 l 1
 409 9 302 -12 246 -12 c 0
 97 -12 38 67 38 255 c 0
 38 432 100 512 249 512 c 0xd0
97 651 m 1
 349 753 l 1
 389 638 l 1
 127 564 l 1
 97 651 l 1
EndSplineSet
EndChar

StartChar: ccircumflex
Encoding: 265 265 309
Width: 446
Flags: MW
HStem: -12 120<241 274> 392 120<240 278 174.5 307> 492 20G<174.5 278> 580 151<54 264 54 264 180 269 180 392>
VStem: 38 136<199 305 199 343.5>
LayerCount: 2
Fore
SplineSet
249 512 m 0xd8
 307 512 409 490 409 490 c 1xb8
 405 384 l 1
 405 384 326 392 288 392 c 0
 192 392 174 355 174 255 c 0
 174 143 193 108 289 108 c 0
 327 108 405 116 405 116 c 1
 409 9 l 1
 409 9 302 -12 246 -12 c 0
 97 -12 38 67 38 255 c 0
 38 432 100 512 249 512 c 0xd8
54 580 m 1
 180 731 l 1
 264 731 l 1
 392 580 l 1
 269 580 l 1
 223 647 l 1
 177 580 l 1
 54 580 l 1
EndSplineSet
EndChar

StartChar: ccaron
Encoding: 269 269 310
Width: 446
Flags: MW
HStem: -12 120<241 274> 392 120<240 278 174.5 307> 492 20G<174.5 278> 580 151<73 199 73 283>
VStem: 38 136<199 305 199 343.5>
LayerCount: 2
Fore
SplineSet
249 512 m 0xd8
 307 512 409 490 409 490 c 1xb8
 405 384 l 1
 405 384 326 392 288 392 c 0
 192 392 174 355 174 255 c 0
 174 143 193 108 289 108 c 0
 327 108 405 116 405 116 c 1
 409 9 l 1
 409 9 302 -12 246 -12 c 0
 97 -12 38 67 38 255 c 0
 38 432 100 512 249 512 c 0xd8
199 580 m 1
 73 731 l 1
 196 731 l 1
 242 664 l 1
 288 731 l 1
 411 731 l 1
 283 580 l 1
 199 580 l 1
EndSplineSet
EndChar

StartChar: cdotaccent
Encoding: 267 267 311
Width: 446
Flags: MW
HStem: -12 120<241 274> 392 120<240 278 174.5 307> 492 20G<174.5 278> 556 135<189 323 189 323>
VStem: 38 136<199 305 199 343.5> 189 134<556 691 556 691>
LayerCount: 2
Fore
SplineSet
249 512 m 0xd4
 307 512 409 490 409 490 c 1xb4
 405 384 l 1
 405 384 326 392 288 392 c 0
 192 392 174 355 174 255 c 0
 174 143 193 108 289 108 c 0
 327 108 405 116 405 116 c 1
 409 9 l 1
 409 9 302 -12 246 -12 c 0
 97 -12 38 67 38 255 c 0xdc
 38 432 100 512 249 512 c 0xd4
189 556 m 1
 189 691 l 1
 323 691 l 1
 323 556 l 1
 189 556 l 1
EndSplineSet
EndChar

StartChar: dcaron
Encoding: 271 271 312
Width: 664
Flags: MW
HStem: -12 120<224.5 258.5> 0 108<224.5 487 224.5 354> 396 116<230 263.5 177 276.5> 680 20G<353 487 487 487>
VStem: 38 136<201 302.5 201 343.5> 353 134<123 386 386 386 498 700 0 700>
LayerCount: 2
Fore
SplineSet
590 678 m 1xbc
 544 444 l 1
 665 444 l 1
 720 678 l 1
 590 678 l 1xbc
487 700 m 1
 487 0 l 1
 354 0 l 1x7c
 354 21 l 1
 354 21 284 -12 233 -12 c 0
 82 -12 38 76 38 252 c 0
 38 435 109 512 245 512 c 0
 282 512 353 498 353 498 c 1
 353 700 l 1
 487 700 l 1
256 108 m 0xbc
 303 108 353 123 353 123 c 1
 353 386 l 1
 353 386 298 396 255 396 c 0
 205 396 174 353 174 252 c 0
 174 150 193 108 256 108 c 0xbc
EndSplineSet
EndChar

StartChar: dcroat
Encoding: 273 273 313
Width: 549
Flags: MW
HStem: -12 120<224.5 258.5> 0 108<224.5 487 224.5 354> 396 116<230 263.5 177 276.5> 622 78 622 116<129 456 129 353>
VStem: 38 136<201 302.5 201 343.5> 353 134<123 386 386 386 498 622 622 622>
LayerCount: 2
Fore
SplineSet
129 622 m 1xae
 129 738 l 1
 456 738 l 1xae
 456 700 l 1
 487 700 l 1
 487 0 l 1
 354 0 l 1x76
 354 21 l 1
 354 21 284 -12 233 -12 c 0
 82 -12 38 76 38 252 c 0
 38 435 109 512 245 512 c 0
 282 512 353 498 353 498 c 1
 353 622 l 1
 129 622 l 1xae
256 108 m 0
 303 108 353 123 353 123 c 1
 353 386 l 1
 353 386 298 396 255 396 c 0
 205 396 174 353 174 252 c 0
 174 150 193 108 256 108 c 0
EndSplineSet
EndChar

StartChar: ecaron
Encoding: 283 283 314
Width: 510
Flags: MW
HStem: -12 118<237 298.5> 193 102<172 344 171 466 172 172> 402 110<226 289.5> 580 151<85 211 85 295>
VStem: 37 134<295 295 295 332> 344 132<295 335.5>
LayerCount: 2
Fore
SplineSet
273 106 m 0
 355 106 458 115 458 115 c 1
 460 16 l 1
 460 16 345 -12 252 -12 c 0
 101 -12 37 63 37 243 c 0
 37 421 112 512 258 512 c 0
 405 512 476 437 476 286 c 1
 466 193 l 1
 172 193 l 1
 173 133 201 106 273 106 c 0
171 295 m 1
 344 295 l 1
 344 376 321 402 258 402 c 0
 194 402 172 371 171 295 c 1
211 580 m 1
 85 731 l 1
 208 731 l 1
 254 664 l 1
 300 731 l 1
 423 731 l 1
 295 580 l 1
 211 580 l 1
EndSplineSet
EndChar

StartChar: emacron
Encoding: 275 275 315
Width: 510
Flags: MW
HStem: -12 118<237 298.5> 193 102<172 344 171 466 172 172> 402 110<226 289.5> 597 100<113 400 113 400>
VStem: 37 134<295 295 295 332> 113 287<597 697 597 697> 344 132<295 335.5>
LayerCount: 2
Fore
SplineSet
273 106 m 0xfa
 355 106 458 115 458 115 c 1
 460 16 l 1
 460 16 345 -12 252 -12 c 0
 101 -12 37 63 37 243 c 0
 37 421 112 512 258 512 c 0
 405 512 476 437 476 286 c 1
 466 193 l 1
 172 193 l 1
 173 133 201 106 273 106 c 0xfa
171 295 m 1
 344 295 l 1
 344 376 321 402 258 402 c 0
 194 402 172 371 171 295 c 1
113 597 m 1xf4
 113 697 l 1
 400 697 l 1
 400 597 l 1
 113 597 l 1xf4
EndSplineSet
EndChar

StartChar: ebreve
Encoding: 277 277 316
Width: 510
Flags: MW
HStem: -12 118<237 298.5> 193 102<172 344 171 466 172 172> 402 110<226 289.5> 573 157<94 308>
VStem: 37 134<295 295 295 332> 344 132<295 335.5>
LayerCount: 2
Fore
SplineSet
273 106 m 0
 355 106 458 115 458 115 c 1
 460 16 l 1
 460 16 345 -12 252 -12 c 0
 101 -12 37 63 37 243 c 0
 37 421 112 512 258 512 c 0
 405 512 476 437 476 286 c 1
 466 193 l 1
 172 193 l 1
 173 133 201 106 273 106 c 0
171 295 m 1
 344 295 l 1
 344 376 321 402 258 402 c 0
 194 402 172 371 171 295 c 1
94 730 m 1
 195 730 l 1
 200 690 222 664 258 664 c 0
 296 664 317 691 321 730 c 1
 422 730 l 1
 412 650 358 573 258 573 c 0
 158 573 104 650 94 730 c 1
EndSplineSet
EndChar

StartChar: edotaccent
Encoding: 279 279 317
Width: 510
Flags: MW
HStem: -12 118<237 298.5> 193 102<172 344 171 466 172 172> 402 110<226 289.5> 556 135<190 324 190 324>
VStem: 37 134<295 295 295 332> 190 134<556 691 556 691> 344 132<295 335.5>
LayerCount: 2
Fore
SplineSet
273 106 m 0
 355 106 458 115 458 115 c 1
 460 16 l 1
 460 16 345 -12 252 -12 c 0
 101 -12 37 63 37 243 c 0
 37 421 112 512 258 512 c 0
 405 512 476 437 476 286 c 1
 466 193 l 1
 172 193 l 1xfe
 173 133 201 106 273 106 c 0
171 295 m 1xfe
 344 295 l 1
 344 376 321 402 258 402 c 0
 194 402 172 371 171 295 c 1xfe
190 556 m 1xf4
 190 691 l 1
 324 691 l 1
 324 556 l 1
 190 556 l 1xf4
EndSplineSet
EndChar

StartChar: eogonek
Encoding: 281 281 318
Width: 511
Flags: MW
HStem: -216 102<302 384.5> -12 118<237 256> 1 21G<407 407> 193 102<172 344 171 466 172 172> 402 110<226 289.5>
VStem: 37 134<295 295 295 332> 224 125<-150 -63.5> 344 132<295 335.5> 407 52
LayerCount: 2
Fore
SplineSet
407 1 m 1xbe80
 407 1 349 -46 349 -81 c 0
 349 -103 363 -114 381 -114 c 0
 388 -114 423 -110 423 -110 c 1
 435 -205 l 1
 435 -205 376 -216 333 -216 c 0
 271 -216 224 -180 224 -120 c 0
 224 -71 253 -33 276 -11 c 1xde
 268 -12 260 -12 252 -12 c 0
 101 -12 37 63 37 243 c 0
 37 421 112 512 258 512 c 0
 405 512 476 437 476 286 c 1
 466 193 l 1xdd
 172 193 l 1
 173 133 201 106 273 106 c 0
 355 106 458 115 458 115 c 1
 460 16 l 1xdc80
 460 16 430 9 393 2 c 1
 407 1 l 1xbe80
171 295 m 1xdd
 344 295 l 1
 344 376 321 402 258 402 c 0
 194 402 172 371 171 295 c 1xdd
EndSplineSet
EndChar

StartChar: gcircumflex
Encoding: 285 285 319
Width: 534
Flags: MW
HStem: -230 110<241.5 311.5 241.5 342.5> -27 116 157 102<245.5 281 227 319.5> 398 104 406 104<227 275 194.5 281> 580 151<103 313 103 313 229 318 229 441>
VStem: 37 132<-91.5 -68> 43 134<309.5 356.5 309.5 397.5> 72 128<109 116.5> 330 132<309.5 347.5 263 356.5> 380 135<-88 -51> 440 75<401 401>
LayerCount: 2
Fore
SplineSet
278 -230 m 0xf620
 132 -230 37 -203 37 -91 c 0xf620
 37 -45 59 -11 109 28 c 1
 87 43 72 73 72 104 c 0xf4a0
 72 129 111 184 111 184 c 1
 76 209 43 246 43 333 c 0
 43 462 136 510 253 510 c 0xed10
 297 510 354 497 354 497 c 1
 515 502 l 1
 515 395 l 1
 440 401 l 1xf510
 449 387 462 362 462 333 c 0
 462 193 388 157 251 157 c 0
 240 157 219 159 210 161 c 1
 210 161 200 135 200 122 c 0xf4c0
 200 96 212 90 297 89 c 0
 467 88 515 50 515 -62 c 0
 515 -184 407 -230 278 -230 c 0xf620
286 -27 m 0
 258 -27 196 -20 196 -20 c 1
 179 -37 169 -52 169 -77 c 0
 169 -106 204 -120 279 -120 c 0
 344 -120 380 -106 380 -70 c 0
 380 -32 360 -28 286 -27 c 0
254 259 m 0xed40
 308 259 330 286 330 333 c 0
 330 380 308 406 254 406 c 0
 200 406 177 380 177 333 c 0
 177 286 200 259 254 259 c 0xed40
103 580 m 1
 229 731 l 1
 313 731 l 1
 441 580 l 1
 318 580 l 1
 272 647 l 1
 226 580 l 1
 103 580 l 1
EndSplineSet
EndChar

StartChar: gbreve
Encoding: 287 287 320
Width: 534
Flags: MW
HStem: -230 110<241.5 311.5 241.5 342.5> -27 116 157 102<245.5 281 227 319.5> 398 104 406 104<227 275 194.5 281> 573 157<107 321>
VStem: 37 132<-91.5 -68> 43 134<309.5 356.5 309.5 397.5> 72 128<109 116.5> 330 132<309.5 347.5 263 356.5> 380 135<-88 -51> 440 75<401 401>
LayerCount: 2
Fore
SplineSet
278 -230 m 0xf620
 132 -230 37 -203 37 -91 c 0xf620
 37 -45 59 -11 109 28 c 1
 87 43 72 73 72 104 c 0xf4a0
 72 129 111 184 111 184 c 1
 76 209 43 246 43 333 c 0
 43 462 136 510 253 510 c 0xed10
 297 510 354 497 354 497 c 1
 515 502 l 1
 515 395 l 1
 440 401 l 1xf510
 449 387 462 362 462 333 c 0
 462 193 388 157 251 157 c 0
 240 157 219 159 210 161 c 1
 210 161 200 135 200 122 c 0xf4c0
 200 96 212 90 297 89 c 0
 467 88 515 50 515 -62 c 0
 515 -184 407 -230 278 -230 c 0xf620
286 -27 m 0
 258 -27 196 -20 196 -20 c 1
 179 -37 169 -52 169 -77 c 0
 169 -106 204 -120 279 -120 c 0
 344 -120 380 -106 380 -70 c 0
 380 -32 360 -28 286 -27 c 0
254 259 m 0xed40
 308 259 330 286 330 333 c 0
 330 380 308 406 254 406 c 0
 200 406 177 380 177 333 c 0
 177 286 200 259 254 259 c 0xed40
107 730 m 1
 208 730 l 1
 213 690 235 664 271 664 c 0
 309 664 330 691 334 730 c 1
 435 730 l 1
 425 650 371 573 271 573 c 0
 171 573 117 650 107 730 c 1
EndSplineSet
EndChar

StartChar: gdotaccent
Encoding: 289 289 321
Width: 534
Flags: MW
HStem: -230 110<241.5 311.5 241.5 342.5> -27 116 157 102<245.5 281 227 319.5> 398 104 406 104<227 275 194.5 281> 556 135<203 337 203 337>
VStem: 37 132<-91.5 -68> 43 134<309.5 356.5 309.5 397.5> 72 128<109 116.5> 203 134<556 691 556 691> 330 132<309.5 347.5 263 356.5> 380 135<-88 -51> 440 75<401 401>
LayerCount: 2
Fore
SplineSet
278 -230 m 0xf650
 132 -230 37 -203 37 -91 c 0xf650
 37 -45 59 -11 109 28 c 1
 87 43 72 73 72 104 c 0xf490
 72 129 111 184 111 184 c 1
 76 209 43 246 43 333 c 0
 43 462 136 510 253 510 c 0xed48
 297 510 354 497 354 497 c 1
 515 502 l 1
 515 395 l 1
 440 401 l 1xf648
 449 387 462 362 462 333 c 0
 462 193 388 157 251 157 c 0
 240 157 219 159 210 161 c 1
 210 161 200 135 200 122 c 0xf4a0
 200 96 212 90 297 89 c 0
 467 88 515 50 515 -62 c 0
 515 -184 407 -230 278 -230 c 0xf650
286 -27 m 0
 258 -27 196 -20 196 -20 c 1
 179 -37 169 -52 169 -77 c 0
 169 -106 204 -120 279 -120 c 0
 344 -120 380 -106 380 -70 c 0
 380 -32 360 -28 286 -27 c 0
254 259 m 0xed20
 308 259 330 286 330 333 c 0
 330 380 308 406 254 406 c 0
 200 406 177 380 177 333 c 0
 177 286 200 259 254 259 c 0xed20
203 556 m 1xf650
 203 691 l 1
 337 691 l 1
 337 556 l 1
 203 556 l 1xf650
EndSplineSet
EndChar

StartChar: gcommaaccent
Encoding: 291 291 322
Width: 534
Flags: MW
HStem: -230 110<241.5 311.5 241.5 342.5> -27 116 157 102<245.5 281 227 319.5> 398 104 406 104<227 275 194.5 281> 583 234<225 300 170 346>
VStem: 37 132<-91.5 -68> 43 134<309.5 356.5 309.5 397.5> 72 128<109 116.5> 330 132<309.5 347.5 263 356.5> 380 135<-88 -51> 440 75<401 401>
LayerCount: 2
Fore
SplineSet
346 817 m 1xf520
 300 583 l 1
 170 583 l 1
 225 817 l 1
 346 817 l 1xf520
278 -230 m 0xf620
 132 -230 37 -203 37 -91 c 0xf620
 37 -45 59 -11 109 28 c 1
 87 43 72 73 72 104 c 0xf4a0
 72 129 111 184 111 184 c 1
 76 209 43 246 43 333 c 0
 43 462 136 510 253 510 c 0xed10
 297 510 354 497 354 497 c 1
 515 502 l 1
 515 395 l 1
 440 401 l 1xf510
 449 387 462 362 462 333 c 0
 462 193 388 157 251 157 c 0
 240 157 219 159 210 161 c 1
 210 161 200 135 200 122 c 0xf4c0
 200 96 212 90 297 89 c 0
 467 88 515 50 515 -62 c 0
 515 -184 407 -230 278 -230 c 0xf620
286 -27 m 0
 258 -27 196 -20 196 -20 c 1
 179 -37 169 -52 169 -77 c 0
 169 -106 204 -120 279 -120 c 0
 344 -120 380 -106 380 -70 c 0
 380 -32 360 -28 286 -27 c 0
254 259 m 0xed40
 308 259 330 286 330 333 c 0
 330 380 308 406 254 406 c 0
 200 406 177 380 177 333 c 0
 177 286 200 259 254 259 c 0xed40
EndSplineSet
EndChar

StartChar: hcircumflex
Encoding: 293 293 323
Width: 553
Flags: MW
HStem: 0 21G<62 196 62 62 362 362 362 496> 392 120<292.5 319.5> 680 20G<62 196 196 196> 750 151<107 317 107 317 233 322 233 445>
VStem: 62 134<0 376 476 700> 362 134<0 268 268 271 0 305.5>
LayerCount: 2
Fore
SplineSet
196 0 m 1
 62 0 l 1
 62 700 l 1
 196 700 l 1
 196 476 l 1
 196 476 265 512 320 512 c 0
 460 512 496 424 496 271 c 2
 496 0 l 1
 362 0 l 1
 362 268 l 2
 362 343 352 392 287 392 c 0
 243 392 196 376 196 376 c 1
 196 0 l 1
107 750 m 1
 233 901 l 1
 317 901 l 1
 445 750 l 1
 322 750 l 1
 276 817 l 1
 230 750 l 1
 107 750 l 1
EndSplineSet
EndChar

StartChar: hbar
Encoding: 295 295 324
Width: 553
Flags: MW
HStem: 0 21G<62 196 62 62 362 496 362 362> 392 120<292.5 319.5> 532 116<12 62 12 62 196 339> 532 168<12 196 12 196 62 196 62 339>
VStem: 62 134<0 376 476 532 648 700> 362 134<0 268 268 271 0 305.5>
LayerCount: 2
Fore
SplineSet
12 532 m 1x9c
 12 648 l 1
 62 648 l 1xac
 62 700 l 1
 196 700 l 1x9c
 196 648 l 1
 339 648 l 1xac
 339 532 l 1
 196 532 l 1x9c
 196 476 l 1
 196 476 265 512 320 512 c 0
 460 512 496 424 496 271 c 2
 496 0 l 1
 362 0 l 1
 362 268 l 2
 362 343 352 392 287 392 c 0
 243 392 196 376 196 376 c 1xdc
 196 0 l 1
 62 0 l 1
 62 532 l 1
 12 532 l 1x9c
EndSplineSet
EndChar

StartChar: itilde
Encoding: 297 297 325
Width: 258
Flags: MW
HStem: 585 104<179 206 179 223> 621 104<54 84.5> 665 21G<-38 -38>
VStem: -38 340<647 665>
LayerCount: 2
Fore
SplineSet
62 500 m 1x90
 62 0 l 1
 196 0 l 1
 196 500 l 1
 62 500 l 1x90
273 723 m 1
 302 647 l 1
 302 647 249 585 197 585 c 0x90
 155 585 101 621 68 621 c 0
 40 621 -9 590 -9 590 c 1x50
 -38 665 l 1x30
 -38 665 14 725 66 725 c 0x50
 107 725 165 689 193 689 c 0
 219 689 273 723 273 723 c 1
EndSplineSet
EndChar

StartChar: imacron
Encoding: 299 299 326
Width: 258
Flags: MW
HStem: 597 100<-14 273 -14 273>
VStem: -14 76 196 77
LayerCount: 2
Fore
SplineSet
62 500 m 1
 62 0 l 1
 196 0 l 1
 196 500 l 1
 62 500 l 1
-14 597 m 1
 -14 697 l 1
 273 697 l 1
 273 597 l 1
 -14 597 l 1
EndSplineSet
EndChar

StartChar: ibreve
Encoding: 301 301 327
Width: 258
Flags: MW
HStem: 500 164<62 148 111 148 111 196> 573 157<-35 179>
VStem: -35 328<730 730>
LayerCount: 2
Fore
SplineSet
62 500 m 1xa0
 62 0 l 1
 196 0 l 1
 196 500 l 1
 62 500 l 1xa0
-35 730 m 1x60
 66 730 l 1
 71 690 93 664 129 664 c 0
 167 664 188 691 192 730 c 1
 293 730 l 1
 283 650 229 573 129 573 c 0
 29 573 -25 650 -35 730 c 1x60
EndSplineSet
EndChar

StartChar: iogonek
Encoding: 303 303 328
Width: 258
Flags: MW
HStem: -216 102<82 164.5> 0 21G<62 62 62 74 196 196> 480 20G<62 196 196 196> 564 136<62 196 62 196>
VStem: 62 134<0 500 0 500 564 700>
LayerCount: 2
Fore
SplineSet
62 0 m 1
 62 500 l 1
 196 500 l 1
 196 0 l 1
 196 0 129 -44 129 -81 c 0
 129 -103 143 -114 161 -114 c 0
 168 -114 203 -110 203 -110 c 1
 215 -205 l 1
 215 -205 156 -216 113 -216 c 0
 51 -216 4 -180 4 -120 c 0
 4 -61 49 -19 74 0 c 1
 62 0 l 1
62 564 m 1
 62 700 l 1
 196 700 l 1
 196 564 l 1
 62 564 l 1
EndSplineSet
EndChar

StartChar: jcircumflex
Encoding: 309 309 329
Width: 259
Flags: MW
HStem: -230 21G<19 19> 480 20G<63 197 197 197> 580 151<-37 173 -37 173 89 178 89 301>
VStem: 63 134<24 500>
LayerCount: 2
Fore
SplineSet
63 24 m 2
 63 500 l 1
 197 500 l 1
 197 23 l 2
 197 -116 158 -160 19 -230 c 1
 -34 -131 l 1
 48 -77 63 -61 63 24 c 2
-37 580 m 1
 89 731 l 1
 173 731 l 1
 301 580 l 1
 178 580 l 1
 132 647 l 1
 86 580 l 1
 -37 580 l 1
EndSplineSet
EndChar

StartChar: kcommaaccent
Encoding: 311 311 330
Width: 515
Flags: MW
HStem: -311 234<-10 166 36 111> 0 21G<62 196 62 62 352 352 352 503> 480 20G<346 496 496 496> 680 20G<62 196 196 196>
VStem: 62 134<0 186 302 700>
LayerCount: 2
Fore
SplineSet
-10 -311 m 1
 36 -77 l 1
 166 -77 l 1
 111 -311 l 1
 -10 -311 l 1
196 0 m 1
 62 0 l 1
 62 700 l 1
 196 700 l 1
 196 302 l 1
 247 311 l 1
 346 500 l 1
 496 500 l 1
 366 263 l 1
 503 0 l 1
 352 0 l 1
 251 195 l 1
 196 186 l 1
 196 0 l 1
EndSplineSet
EndChar

StartChar: lacute
Encoding: 314 314 331
Width: 270
Flags: MW
HStem: 0 21G<68 68 68 202> 680 20G<68 202 202 202>
VStem: 68 134<0 700 0 700>
LayerCount: 2
Fore
SplineSet
68 0 m 1
 68 700 l 1
 202 700 l 1
 202 0 l 1
 68 0 l 1
41 861 m 1
 293 963 l 1
 333 848 l 1
 71 774 l 1
 41 861 l 1
EndSplineSet
EndChar

StartChar: lcaron
Encoding: 318 318 332
Width: 377
Flags: MW
HStem: 0 21G<68 68 68 202> 680 20G<68 202 202 202>
VStem: 68 134<0 700 0 700>
LayerCount: 2
Fore
SplineSet
303 678 m 1
 257 444 l 1
 378 444 l 1
 433 678 l 1
 303 678 l 1
68 0 m 1
 68 700 l 1
 202 700 l 1
 202 0 l 1
 68 0 l 1
EndSplineSet
EndChar

StartChar: lcommaaccent
Encoding: 316 316 333
Width: 270
Flags: MW
HStem: 0 21G<68 68 68 202> 680 20G<68 202 202 202>
VStem: 68 134<0 700 0 700>
LayerCount: 2
Fore
SplineSet
68 0 m 1
 68 700 l 1
 202 700 l 1
 202 0 l 1
 68 0 l 1
66 -77 m 1
 20 -311 l 1
 141 -311 l 1
 196 -77 l 1
 66 -77 l 1
EndSplineSet
EndChar

StartChar: nacute
Encoding: 324 324 334
Width: 553
Flags: MW
HStem: 0 753<62 398 196 398 398 398 398 496 398 496>
VStem: 196 166<0 267 0 374 0 374>
LayerCount: 2
Fore
SplineSet
62 0 m 1
 196 0 l 1
 196 374 l 1
 196 374 240 392 287 392 c 0
 352 392 362 343 362 267 c 2
 362 0 l 1
 496 0 l 1
 496 271 l 2
 496 424 460 512 320 512 c 0
 263 512 195 472 195 472 c 1
 195 500 l 1
 62 500 l 1
 62 0 l 1
146 651 m 1
 398 753 l 1
 438 638 l 1
 176 564 l 1
 146 651 l 1
EndSplineSet
EndChar

StartChar: ncaron
Encoding: 328 328 335
Width: 553
Flags: MW
HStem: 0 21G<62 196 62 62 362 362 362 496> 392 120<291.5 319.5> 472 28<62 195> 580 151<105 231 105 315>
VStem: 62 134<0 374> 362 134<0 267 267 271 0 305>
LayerCount: 2
Fore
SplineSet
196 0 m 1xbc
 62 0 l 1
 62 500 l 1
 195 500 l 1
 195 472 l 1xbc
 195 472 263 512 320 512 c 0
 460 512 496 424 496 271 c 2
 496 0 l 1
 362 0 l 1
 362 267 l 2
 362 343 352 392 287 392 c 0
 240 392 196 374 196 374 c 1xdc
 196 0 l 1xbc
231 580 m 1
 105 731 l 1
 228 731 l 1
 274 664 l 1
 320 731 l 1
 443 731 l 1
 315 580 l 1
 231 580 l 1
EndSplineSet
EndChar

StartChar: ncommaaccent
Encoding: 326 326 336
Width: 553
Flags: MW
HStem: -311 234<-10 166 36 111> 0 21G<62 196 62 62 362 362 362 496> 392 120<291.5 319.5> 472 28<62 195>
VStem: 62 134<0 374> 362 134<0 267 267 271 0 305>
LayerCount: 2
Fore
SplineSet
-10 -311 m 1xdc
 36 -77 l 1
 166 -77 l 1
 111 -311 l 1
 -10 -311 l 1xdc
196 0 m 1
 62 0 l 1
 62 500 l 1
 195 500 l 1
 195 472 l 1xdc
 195 472 263 512 320 512 c 0
 460 512 496 424 496 271 c 2
 496 0 l 1
 362 0 l 1
 362 267 l 2
 362 343 352 392 287 392 c 0
 240 392 196 374 196 374 c 1xec
 196 0 l 1
EndSplineSet
EndChar

StartChar: omacron
Encoding: 333 333 337
Width: 532
Flags: MW
HStem: 597 100<126 413 126 413>
VStem: 126 287<597 697 597 697> 172 188<202.5 299.5>
LayerCount: 2
Fore
SplineSet
266 512 m 0xa0
 92 512 36 405 36 251 c 0
 36 97 92 -12 266 -12 c 0
 440 -12 496 97 496 251 c 0
 496 405 440 512 266 512 c 0xa0
266 102 m 0
 192 102 172 154 172 251 c 0
 172 348 192 398 266 398 c 0
 340 398 360 348 360 251 c 0
 360 154 340 102 266 102 c 0
126 597 m 1xc0
 126 697 l 1
 413 697 l 1
 413 597 l 1
 126 597 l 1xc0
EndSplineSet
EndChar

StartChar: obreve
Encoding: 335 335 338
Width: 532
Flags: MW
HStem: 512 152<250 287 250 353> 573 157<104 318>
VStem: 172 188<202.5 299.5>
LayerCount: 2
Fore
SplineSet
266 512 m 0xa0
 92 512 36 405 36 251 c 0
 36 97 92 -12 266 -12 c 0
 440 -12 496 97 496 251 c 0
 496 405 440 512 266 512 c 0xa0
266 102 m 0
 192 102 172 154 172 251 c 0
 172 348 192 398 266 398 c 0
 340 398 360 348 360 251 c 0
 360 154 340 102 266 102 c 0
104 730 m 1x60
 205 730 l 1
 210 690 232 664 268 664 c 0
 306 664 327 691 331 730 c 1
 432 730 l 1
 422 650 368 573 268 573 c 0
 168 573 114 650 104 730 c 1x60
EndSplineSet
EndChar

StartChar: ohungarumlaut
Encoding: 337 337 339
Width: 532
Flags: MW
HStem: -12 830<179 374>
VStem: 172 188<202.5 299.5>
LayerCount: 2
Fore
SplineSet
266 512 m 0
 92 512 36 405 36 251 c 0
 36 97 92 -12 266 -12 c 0
 440 -12 496 97 496 251 c 0
 496 405 440 512 266 512 c 0
266 102 m 0
 192 102 172 154 172 251 c 0
 172 348 192 398 266 398 c 0
 340 398 360 348 360 251 c 0
 360 154 340 102 266 102 c 0
257 628 m 1
 374 818 l 1
 483 751 l 1
 358 563 l 1
 257 628 l 1
53 628 m 1
 170 817 l 1
 279 751 l 1
 154 563 l 1
 53 628 l 1
EndSplineSet
EndChar

StartChar: racute
Encoding: 341 341 340
Width: 372
Flags: MW
HStem: 0 21G<62 62 62 196> 447 53<62 195> 492 20G<355 355>
VStem: 62 134<0 335 0 500> 195 160<447 500 447 447>
LayerCount: 2
Fore
SplineSet
62 0 m 1xb0
 62 500 l 1
 195 500 l 1
 195 447 l 1xd0
 195 447 279 497 355 512 c 1
 355 377 l 1xa8
 267 360 196 335 196 335 c 1
 196 0 l 1
 62 0 l 1xb0
48 651 m 1
 300 753 l 1
 340 638 l 1
 78 564 l 1
 48 651 l 1
EndSplineSet
EndChar

StartChar: rcommaaccent
Encoding: 343 343 341
Width: 372
Flags: MW
HStem: 0 21G<62 62 62 196> 447 53<62 195> 492 20G<355 355>
VStem: 62 134<-77 335 0 335 0 500> 195 160<447 500 447 447>
LayerCount: 2
Fore
SplineSet
62 -77 m 1xb0
 16 -311 l 1
 137 -311 l 1
 192 -77 l 1
 62 -77 l 1xb0
62 0 m 1
 62 500 l 1
 195 500 l 1
 195 447 l 1xd0
 195 447 279 497 355 512 c 1
 355 377 l 1xa8
 267 360 196 335 196 335 c 1
 196 0 l 1
 62 0 l 1
EndSplineSet
EndChar

StartChar: rcaron
Encoding: 345 345 342
Width: 372
Flags: MW
HStem: 0 21G<62 62 62 196> 447 53<62 195> 492 20G<355 355> 580 151<5 131 5 215>
VStem: 62 134<0 335 0 500> 195 160<447 500 447 447>
LayerCount: 2
Fore
SplineSet
62 0 m 1xb8
 62 500 l 1
 195 500 l 1
 195 447 l 1xd8
 195 447 279 497 355 512 c 1
 355 377 l 1xb4
 267 360 196 335 196 335 c 1
 196 0 l 1
 62 0 l 1xb8
131 580 m 1
 5 731 l 1
 128 731 l 1
 174 664 l 1
 220 731 l 1
 343 731 l 1
 215 580 l 1
 131 580 l 1
EndSplineSet
EndChar

StartChar: sacute
Encoding: 347 347 343
Width: 472
Flags: MW
HStem: -12 120<199 255 197.5 298.5> 391 120<210 265 176.5 268>
VStem: 36 133<339.5 364.5 339.5 406> 304 133<134 158>
LayerCount: 2
Fore
SplineSet
423 486 m 1
 421 375 l 1
 421 375 297 391 239 391 c 0
 181 391 169 378 169 351 c 0
 169 328 188 323 280 306 c 0
 396 285 437 251 437 150 c 0
 437 33 361 -12 236 -12 c 0
 162 -12 44 12 44 12 c 1
 48 124 l 1
 48 124 172 108 223 108 c 0
 287 108 304 121 304 147 c 0
 304 169 293 179 201 194 c 0
 93 212 36 238 36 348 c 0
 36 464 124 511 229 511 c 0
 301 511 423 486 423 486 c 1
91 651 m 1
 343 753 l 1
 383 638 l 1
 121 564 l 1
 91 651 l 1
EndSplineSet
EndChar

StartChar: scircumflex
Encoding: 349 349 344
Width: 472
Flags: MW
HStem: -12 120<199 255 197.5 298.5> 391 120<210 265 176.5 268> 580 151<68 278 68 278 194 283 194 406>
VStem: 36 133<339.5 364.5 339.5 406> 304 133<134 158>
LayerCount: 2
Fore
SplineSet
423 486 m 1
 421 375 l 1
 421 375 297 391 239 391 c 0
 181 391 169 378 169 351 c 0
 169 328 188 323 280 306 c 0
 396 285 437 251 437 150 c 0
 437 33 361 -12 236 -12 c 0
 162 -12 44 12 44 12 c 1
 48 124 l 1
 48 124 172 108 223 108 c 0
 287 108 304 121 304 147 c 0
 304 169 293 179 201 194 c 0
 93 212 36 238 36 348 c 0
 36 464 124 511 229 511 c 0
 301 511 423 486 423 486 c 1
68 580 m 1
 194 731 l 1
 278 731 l 1
 406 580 l 1
 283 580 l 1
 237 647 l 1
 191 580 l 1
 68 580 l 1
EndSplineSet
EndChar

StartChar: scedilla
Encoding: 351 351 345
Width: 472
Flags: MW
HStem: -241 88<218.5 302> -230 21G<175 175> -105 68<203 256 203 256> -11 119<197.5 256> -10 21G<203 203> 391 120<210 265 176.5 268>
VStem: 36 133<339.5 364.5 339.5 406> 203 53<-37 -11 -37 -10 -37 -10> 265 114<-135.5 -118.5> 304 133<134 158>
LayerCount: 2
Fore
SplineSet
379 -127 m 0xaf80
 379 -205 336 -241 268 -241 c 0x8f40
 225 -241 175 -230 175 -230 c 1x4f40
 179 -152 l 1
 179 -152 210 -153 227 -153 c 0
 254 -153 265 -144 265 -127 c 0
 265 -110 254 -105 227 -105 c 2xaf80
 203 -105 l 1x6f40
 203 -10 l 1x5740
 131 -5 44 12 44 12 c 1x4f40
 48 124 l 1
 48 124 172 108 223 108 c 0
 287 108 304 121 304 147 c 0
 304 169 293 179 201 194 c 0
 93 212 36 238 36 348 c 0
 36 464 124 511 229 511 c 0
 301 511 423 486 423 486 c 1
 421 375 l 1
 421 375 297 391 239 391 c 0
 181 391 169 378 169 351 c 0
 169 328 188 323 280 306 c 0
 396 285 437 251 437 150 c 0
 437 39 369 -7 256 -11 c 1x5740
 256 -37 l 1x6f40
 334 -38 379 -52 379 -127 c 0xaf80
EndSplineSet
Substitution2: "'locl' Localized Forms in Lateinisch lookup 0 subtable" scommaaccent
EndChar

StartChar: scommaaccent
Encoding: 537 537 346
Width: 472
Flags: MW
HStem: -77 89<29 44 44 44 44 159> -12 120<199 255 197.5 298.5> 391 120<210 265 176.5 268>
VStem: 36 133<339.5 364.5 339.5 406> 304 133<134 158>
LayerCount: 2
Fore
SplineSet
29 -77 m 1xb8
 -17 -311 l 1
 104 -311 l 1
 159 -77 l 1
 29 -77 l 1xb8
423 486 m 1
 421 375 l 1
 421 375 297 391 239 391 c 0
 181 391 169 378 169 351 c 0
 169 328 188 323 280 306 c 0
 396 285 437 251 437 150 c 0
 437 33 361 -12 236 -12 c 0x78
 162 -12 44 12 44 12 c 1xb8
 48 124 l 1
 48 124 172 108 223 108 c 0
 287 108 304 121 304 147 c 0
 304 169 293 179 201 194 c 0x78
 93 212 36 238 36 348 c 0
 36 464 124 511 229 511 c 0
 301 511 423 486 423 486 c 1
EndSplineSet
EndChar

StartChar: tcaron
Encoding: 357 357 347
Width: 487
Flags: MW
HStem: -12 128<238 256.5> 378 121<24 83 24 83 217 340> 430 69
VStem: 83 134<178 189 189 378 499 639> 376 130<430 690 430 690>
LayerCount: 2
Fore
SplineSet
340 378 m 1xd8
 217 378 l 1
 217 189 l 2
 217 139 217 116 259 116 c 0
 287 116 335 118 335 118 c 1
 341 3 l 1
 341 3 274 -12 239 -12 c 0
 118 -12 83 34 83 178 c 2
 83 378 l 1
 24 378 l 1
 24 499 l 1
 83 499 l 1
 83 639 l 1
 217 639 l 1
 217 499 l 1
 340 499 l 1
 340 378 l 1xd8
506 690 m 1
 506 430 l 1
 376 430 l 1xb8
 376 690 l 1
 506 690 l 1
EndSplineSet
EndChar

StartChar: tcommaaccent
Encoding: 539 539 348
Width: 364
Flags: MW
HStem: -77 185<49 272> -12 120<237 255.5> 386 114<23 82 23 82 216 339>
VStem: 82 134<178 181 181 386 500 639>
LayerCount: 2
Fore
SplineSet
49 -77 m 1xb0
 3 -311 l 1
 124 -311 l 1
 179 -77 l 1
 49 -77 l 1xb0
339 386 m 1
 216 386 l 1
 216 181 l 2
 216 131 216 108 258 108 c 0
 286 108 334 110 334 110 c 1
 340 3 l 1
 340 3 273 -12 238 -12 c 0x70
 117 -12 82 34 82 178 c 2
 82 386 l 1
 23 386 l 1
 23 500 l 1
 82 500 l 1
 82 639 l 1
 216 639 l 1
 216 500 l 1
 339 500 l 1
 339 386 l 1
EndSplineSet
EndChar

StartChar: tbar
Encoding: 359 359 349
Width: 365
Flags: MW
HStem: -12 128<237 255.5> 209 100<52 82 52 82 216 311> 378 121<23 82 23 82 216 339>
VStem: 82 134<178 189 189 209 164 209 309 378 499 639>
LayerCount: 2
Fore
SplineSet
339 378 m 1
 216 378 l 1
 216 309 l 1
 311 309 l 1
 311 209 l 1
 216 209 l 1
 216 189 l 2
 216 139 216 116 258 116 c 0
 286 116 334 118 334 118 c 1
 340 3 l 1
 340 3 273 -12 238 -12 c 0
 117 -12 82 34 82 178 c 2
 82 209 l 1
 52 209 l 1
 52 309 l 1
 82 309 l 1
 82 378 l 1
 23 378 l 1
 23 499 l 1
 82 499 l 1
 82 639 l 1
 216 639 l 1
 216 499 l 1
 339 499 l 1
 339 378 l 1
EndSplineSet
EndChar

StartChar: utilde
Encoding: 361 361 350
Width: 553
Flags: MW
HStem: 585 104<316 343 316 360> 621 104<191 221.5> 665 21G<99 99>
VStem: 191 166<236 500 126 500>
LayerCount: 2
Fore
SplineSet
491 500 m 1x30
 357 500 l 1
 357 126 l 1
 357 126 311 108 261 108 c 0
 195 108 191 147 191 236 c 2
 191 500 l 1
 57 500 l 1
 57 238 l 2
 57 69 87 -12 233 -12 c 0
 286 -12 358 28 358 28 c 1
 358 0 l 1
 491 0 l 1
 491 500 l 1x30
410 723 m 1x90
 439 647 l 1
 439 647 386 585 334 585 c 0x90
 292 585 238 621 205 621 c 0
 177 621 128 590 128 590 c 1x50
 99 665 l 1x30
 99 665 151 725 203 725 c 0x50
 244 725 302 689 330 689 c 0
 356 689 410 723 410 723 c 1x90
EndSplineSet
EndChar

StartChar: umacron
Encoding: 363 363 351
Width: 553
Flags: MW
HStem: 597 100<133 420 133 420>
VStem: 191 166<236 500 126 500>
LayerCount: 2
Fore
SplineSet
491 500 m 1
 357 500 l 1
 357 126 l 1
 357 126 311 108 261 108 c 0
 195 108 191 147 191 236 c 2
 191 500 l 1
 57 500 l 1
 57 238 l 2
 57 69 87 -12 233 -12 c 0
 286 -12 358 28 358 28 c 1
 358 0 l 1
 491 0 l 1
 491 500 l 1
133 597 m 1
 133 697 l 1
 420 697 l 1
 420 597 l 1
 133 597 l 1
EndSplineSet
EndChar

StartChar: ubreve
Encoding: 365 365 352
Width: 553
Flags: MW
HStem: 573 157<112 326>
VStem: 191 166<236 500 126 500>
LayerCount: 2
Fore
SplineSet
491 500 m 1
 357 500 l 1
 357 126 l 1
 357 126 311 108 261 108 c 0
 195 108 191 147 191 236 c 2
 191 500 l 1
 57 500 l 1
 57 238 l 2
 57 69 87 -12 233 -12 c 0
 286 -12 358 28 358 28 c 1
 358 0 l 1
 491 0 l 1
 491 500 l 1
112 730 m 1
 213 730 l 1
 218 690 240 664 276 664 c 0
 314 664 335 691 339 730 c 1
 440 730 l 1
 430 650 376 573 276 573 c 0
 176 573 122 650 112 730 c 1
EndSplineSet
EndChar

